<svg width="733" height="568" viewBox="0 0 733 568" fill="none" xmlns="http://www.w3.org/2000/svg">
    <path d="M384.204 51.5499C220.117 51.5499 87.0977 140.142 87.0977 249.425C87.0977 313.314 132.56 370.127 203.111 406.306C215.439 412.627 217.979 429.167 208.181 438.963L201.868 445.275C196.679 450.465 199.587 459.353 206.841 460.471L242.995 466.039C248.947 466.955 252.32 473.365 249.701 478.79L212.99 554.868C208.905 563.331 218.943 571.574 226.45 565.922L360.455 465.158C375.337 453.971 392.664 446.493 411.011 443.335C484.081 430.763 681.309 384.331 681.309 249.425C681.309 140.142 548.291 51.5499 384.204 51.5499"
          fill="url(#paint0_linear_6854_204110)"/>
    <path d="M423.082 34.9904C396.33 34.9904 370.37 37.2468 345.607 41.4928C360.586 40.0103 375.915 39.2386 391.514 39.2386C562.676 39.2386 701.431 131.653 701.431 245.649C701.431 341.83 602.659 422.645 468.986 445.557C618.38 430.784 733 345.008 733 241.401C733 127.403 594.244 34.9904 423.082 34.9904"
          fill="#47525A"/>
    <path fill-rule="evenodd" clip-rule="evenodd"
          d="M189.493 402.411C185.876 405.24 178.312 403.846 168.861 398.844C168.657 398.722 168.449 398.599 168.241 398.477L168.196 398.47L168.195 398.47C168.181 398.468 168.166 398.466 168.15 398.464C165.656 397.11 163.031 395.508 160.319 393.674C152.565 388.433 144.399 381.588 136.223 373.549C128.311 365.768 120.384 356.86 112.825 347.195C107.108 339.88 101.857 332.47 97.1947 325.155C89.3366 312.82 83.1397 300.762 79.1608 289.902C73.6157 274.779 73.0589 263.123 77.7123 259.484C78.9571 258.51 80.6636 258.035 82.7549 258.035C88.4946 258.035 97.1087 261.602 106.886 268.215C114.513 273.376 122.548 280.084 130.592 287.96C138.636 295.832 146.699 304.872 154.38 314.694C169.748 334.344 181.703 354.691 188.045 371.988C193.594 387.115 194.146 398.771 189.493 402.411ZM35.565 444.489C34.0215 445 32.4281 445.204 30.9072 445.054C28.671 444.837 25.8059 444.289 22.5058 443.063C10.7322 438.695 2.76084 428.822 0.963783 416.397C0.461332 412.911 0.529229 409.991 0.787245 407.76C1.10863 404.958 2.64315 402.165 5.02413 400.078C5.11066 400.003 5.20131 399.923 5.29611 399.839C5.39968 399.748 5.50819 399.652 5.62164 399.553C7.0113 418.243 17.9657 435.621 35.565 444.489ZM149.315 396.364C130.819 395.568 97.8607 402.796 77.4936 414.366C71.3388 417.863 70.3454 426.285 75.3867 431.16C76.5077 430.492 77.812 430.103 79.2107 430.103C83.3532 430.103 86.7113 433.462 86.7113 437.604C86.7113 438.299 86.6097 438.966 86.4334 439.604C86.9659 439.484 87.5175 439.414 88.086 439.414C92.2285 439.414 95.5866 442.773 95.5866 446.915C95.5866 447.533 95.504 448.128 95.3634 448.703C95.7887 448.628 96.2237 448.581 96.6705 448.581C100.813 448.581 104.171 451.939 104.171 456.081C104.171 456.452 104.135 456.815 104.083 457.172L106.769 459.605C114.653 466.612 114.32 478.99 106.158 485.579C99.68 490.807 90.3733 490.59 84.1492 485.058L40.3726 442.726C21.1844 434.632 9.49671 416.127 9.10742 396.541C9.46576 396.231 9.83699 395.911 10.2194 395.58C17.7501 389.077 29.6211 378.825 32.8132 375.374C32.8086 375.415 32.8041 375.46 32.7996 375.506C33.1975 375.061 33.9143 374.387 34.885 373.475C42.7345 366.099 67.1815 343.128 73.7426 299.554C80.7769 316.081 92.0617 334.612 106.049 352.497C119.927 370.241 135.064 385.564 149.315 396.364Z"
          fill="#47525A"/>
    <path d="M284.3 169.234H265.017C265.155 167.594 265.064 166.113 264.741 164.796C264.415 163.479 263.86 162.34 263.075 161.381C262.29 160.421 261.26 159.686 259.988 159.179C258.716 158.669 257.202 158.414 255.445 158.414C252.068 158.414 249.052 159.253 246.394 160.928C243.735 162.605 241.526 164.998 239.77 168.107C238.011 171.217 236.764 174.922 236.024 179.222C235.377 183.385 235.359 186.841 235.972 189.593C236.585 192.345 237.798 194.402 239.614 195.765C241.429 197.13 243.792 197.813 246.707 197.813C248.649 197.813 250.434 197.582 252.064 197.118C253.694 196.657 255.151 195.991 256.434 195.124C257.718 194.257 258.815 193.216 259.727 192.003C260.642 190.79 261.341 189.443 261.826 187.963H281.247C280.507 190.969 279.19 194.038 277.295 197.17C275.399 200.303 272.947 203.182 269.942 205.807C266.936 208.43 263.399 210.551 259.329 212.169C255.26 213.787 250.681 214.598 245.595 214.598C238.937 214.598 233.197 213.14 228.376 210.227C223.556 207.314 220.066 203.062 217.904 197.465C215.74 191.87 215.308 185.05 216.603 177.004C217.897 169.234 220.453 162.727 224.266 157.479C228.082 152.23 232.717 148.276 238.174 145.617C243.631 142.96 249.434 141.629 255.583 141.629C260.232 141.629 264.399 142.242 268.086 143.467C271.775 144.694 274.885 146.479 277.415 148.826C279.948 151.173 281.815 154.057 283.017 157.479C284.219 160.901 284.646 164.819 284.3 169.234"
          fill="#23282C"/>
    <path d="M340.83 177.142C341.475 173.073 341.522 169.646 340.968 166.86C340.413 164.074 339.246 161.969 337.464 160.548C335.683 159.127 333.291 158.414 330.285 158.414C326.863 158.414 323.835 159.247 321.2 160.912C318.564 162.576 316.379 164.97 314.646 168.091C312.91 171.213 311.697 174.97 311.004 179.363C310.264 183.477 310.201 186.899 310.812 189.627C311.425 192.356 312.65 194.402 314.49 195.765C316.327 197.13 318.724 197.813 321.685 197.813C325.061 197.813 328.049 197.003 330.65 195.385C333.25 193.766 335.411 191.419 337.136 188.343C338.856 185.27 340.087 181.535 340.83 177.142V177.142ZM360.249 179.363C358.954 187.085 356.388 193.558 352.551 198.784C348.713 204.008 344.055 207.95 338.576 210.61C333.094 213.269 327.234 214.598 320.992 214.598C314.333 214.598 308.553 213.154 303.651 210.263C298.748 207.373 295.177 203.141 292.934 197.569C290.691 191.999 290.241 185.188 291.583 177.142C292.83 169.42 295.374 162.922 299.212 157.651C303.049 152.38 307.731 148.392 313.258 145.687C318.783 142.982 324.69 141.629 330.98 141.629C337.591 141.629 343.342 143.087 348.233 145.999C353.124 148.912 356.684 153.179 358.916 158.796C361.145 164.414 361.591 171.269 360.249 179.363"
          fill="#23282C"/>
    <path d="M375.232 142.598H399.23L409.08 182.828H409.913L433.08 142.598H457.077L445.286 213.625H426.421L433.218 172.562H432.663L410.189 213.07H398.813L389.797 172.286H389.242L382.305 213.625H363.44L375.232 142.598Z"
          fill="#23282C"/>
    <path d="M485.515 142.598L473.724 213.625H454.44L466.232 142.598H485.515Z" fill="#23282C"/>
    <path d="M556.124 142.598L544.332 213.625H528.242L508.821 176.308H508.404L502.16 213.625H482.879L494.671 142.598H511.039L530.184 179.777H530.739L536.843 142.598H556.124"
          fill="#23282C"/>
    <path d="M607.521 166.045C607.428 164.819 607.175 163.739 606.758 162.802C606.342 161.865 605.753 161.068 604.988 160.41C604.226 159.749 603.284 159.253 602.164 158.918C601.041 158.583 599.729 158.414 598.226 158.414C594.989 158.414 592.042 159.19 589.383 160.738C586.724 162.288 584.499 164.518 582.706 167.431C580.916 170.346 579.685 173.861 579.013 177.975C578.32 182.137 578.261 185.698 578.841 188.656C579.418 191.616 580.672 193.882 582.602 195.455C584.533 197.025 587.151 197.813 590.458 197.813C593.418 197.813 595.971 197.385 598.122 196.53C600.272 195.674 601.994 194.459 603.291 192.888C604.586 191.315 605.394 189.466 605.717 187.339L609.046 187.685H592.816L595.037 173.951H626.526L624.93 183.801C623.867 190.274 621.585 195.806 618.082 200.395C614.578 204.985 610.226 208.5 605.025 210.938C599.821 213.378 594.111 214.598 587.891 214.598C581.002 214.598 575.188 213.129 570.448 210.193C565.707 207.258 562.325 203.073 560.304 197.639C558.281 192.205 557.88 185.743 559.107 178.251C560.078 172.38 561.841 167.177 564.396 162.646C566.949 158.115 570.077 154.283 573.778 151.148C577.476 148.016 581.556 145.646 586.02 144.039C590.481 142.432 595.105 141.629 599.891 141.629C604.076 141.629 607.879 142.224 611.301 143.415C614.723 144.605 617.647 146.294 620.076 148.478C622.504 150.664 624.324 153.247 625.537 156.23C626.752 159.213 627.243 162.485 627.013 166.045H607.521"
          fill="#23282C"/>
    <path d="M257.04 281.989C257.248 279.701 256.694 277.901 255.374 276.595C254.057 275.29 251.837 274.635 248.716 274.635C246.729 274.635 245.07 274.869 243.739 275.33C242.41 275.792 241.381 276.428 240.654 277.238C239.925 278.046 239.468 278.983 239.282 280.047C239.074 280.88 239.092 281.636 239.335 282.319C239.579 283.001 240.052 283.618 240.758 284.173C241.462 284.73 242.399 285.225 243.567 285.664C244.735 286.104 246.127 286.497 247.745 286.844L253.295 288.093C257.086 288.926 260.27 290.017 262.848 291.37C265.426 292.721 267.456 294.324 268.936 296.173C270.414 298.024 271.392 300.093 271.867 302.381C272.34 304.669 272.345 307.168 271.883 309.873C271.098 314.542 269.282 318.496 266.437 321.732C263.595 324.971 259.883 327.434 255.307 329.12C250.728 330.808 245.434 331.652 239.423 331.652C233.271 331.652 228.052 330.733 223.763 328.896C219.474 327.056 216.376 324.236 214.47 320.433C212.562 316.629 212.093 311.769 213.064 305.849H231.377C231.098 308.024 231.329 309.85 232.069 311.328C232.809 312.808 234 313.931 235.641 314.693C237.284 315.456 239.33 315.836 241.781 315.836C243.861 315.836 245.642 315.583 247.12 315.074C248.6 314.567 249.768 313.861 250.624 312.96C251.479 312.057 252 311.029 252.186 309.873C252.369 308.809 252.185 307.861 251.629 307.028C251.074 306.197 250.069 305.446 248.612 304.773C247.156 304.104 245.156 303.49 242.612 302.936L235.815 301.41C229.781 300.023 225.225 297.735 222.152 294.543C219.076 291.352 217.989 286.984 218.89 281.434C219.63 276.903 221.497 272.942 224.492 269.557C227.486 266.168 231.3 263.534 235.937 261.649C240.573 259.763 245.71 258.822 251.353 258.822C257.086 258.822 261.888 259.781 265.763 261.701C269.636 263.62 272.422 266.313 274.121 269.781C275.819 273.25 276.276 277.32 275.491 281.989H257.04"
          fill="#23282C"/>
    <path d="M330.84 294.336C331.487 290.266 331.535 286.84 330.978 284.054C330.423 281.267 329.256 279.163 327.477 277.741C325.695 276.32 323.303 275.609 320.297 275.609C316.875 275.609 313.847 276.44 311.21 278.106C308.576 279.769 306.389 282.164 304.656 285.285C302.922 288.406 301.709 292.163 301.014 296.556C300.274 300.671 300.211 304.093 300.824 306.82C301.437 309.55 302.662 311.596 304.5 312.96C306.337 314.323 308.736 315.006 311.697 315.006C315.071 315.006 318.061 314.196 320.662 312.578C323.262 310.96 325.424 308.613 327.146 305.537C328.868 302.463 330.1 298.729 330.84 294.336V294.336ZM350.261 296.556C348.967 304.278 346.4 310.751 342.561 315.977C338.725 321.203 334.065 325.144 328.586 327.803C323.106 330.462 317.244 331.791 311.002 331.791C304.343 331.791 298.563 330.347 293.663 327.457C288.761 324.567 285.189 320.334 282.946 314.762C280.703 309.192 280.253 302.382 281.593 294.336C282.842 286.613 285.386 280.118 289.222 274.844C293.061 269.573 297.744 265.585 303.268 262.88C308.795 260.176 314.703 258.822 320.99 258.822C327.603 258.822 333.354 260.28 338.245 263.193C343.134 266.106 346.694 270.372 348.926 275.989C351.157 281.607 351.601 288.463 350.261 296.556Z"
          fill="#23282C"/>
    <path d="M408.525 294.336C409.17 290.266 409.218 286.84 408.663 284.054C408.109 281.267 406.941 279.163 405.16 277.741C403.378 276.32 400.986 275.609 397.98 275.609C394.558 275.609 391.53 276.44 388.896 278.106C386.259 279.769 384.075 282.164 382.339 285.285C380.605 288.406 379.392 292.163 378.699 296.556C377.959 300.671 377.894 304.093 378.507 306.82C379.12 309.55 380.345 311.596 382.185 312.96C384.023 314.323 386.42 315.006 389.38 315.006C392.755 315.006 395.744 314.196 398.345 312.578C400.945 310.96 403.107 308.613 404.831 305.537C406.552 302.463 407.783 298.729 408.525 294.336V294.336ZM427.944 296.556C426.65 304.278 424.083 310.751 420.247 315.977C416.408 321.203 411.75 325.144 406.269 327.803C400.789 330.462 394.93 331.791 388.687 331.791C382.029 331.791 376.248 330.347 371.346 327.457C366.444 324.567 362.872 320.334 360.629 314.762C358.386 309.192 357.936 302.382 359.278 294.336C360.525 286.613 363.069 280.118 366.908 274.844C370.744 269.573 375.427 265.585 380.954 262.88C386.478 260.176 392.386 258.822 398.675 258.822C405.286 258.822 411.037 260.28 415.928 263.193C420.819 266.106 424.38 270.372 426.611 275.989C428.84 281.607 429.286 288.463 427.944 296.556Z"
          fill="#23282C"/>
    <path d="M504.38 259.794L492.589 330.82H476.497L457.075 293.503H456.659L450.417 330.82H431.136L442.928 259.794H459.296L478.439 296.973H478.995L485.097 259.794H504.38"
          fill="#23282C"/>
    <path d="M137.918 246.173C133.809 244.652 130.569 241.413 129.048 237.303L127.272 232.503L125.495 237.303C123.975 241.413 120.735 244.652 116.626 246.173L111.824 247.949L116.626 249.726C120.735 251.247 123.975 254.486 125.495 258.596L127.272 263.396L129.048 258.596C130.569 254.486 133.809 251.247 137.918 249.726L142.72 247.949L137.918 246.173Z"
          fill="#23282C"/>
    <path d="M209.86 351.087C207.538 350.227 205.709 348.396 204.849 346.076L203.846 343.362L202.841 346.076C201.983 348.396 200.152 350.227 197.833 351.087L195.121 352.089L197.833 353.092C200.152 353.952 201.983 355.781 202.841 358.103L203.846 360.814L204.849 358.103C205.709 355.781 207.538 353.952 209.86 353.092L212.571 352.089L209.86 351.087Z"
          fill="#23282C"/>
    <path d="M177.439 308.661C175.119 307.803 173.288 305.972 172.43 303.65L171.425 300.938L170.423 303.65C169.562 305.972 167.734 307.803 165.412 308.661L162.7 309.666L165.412 310.668C167.734 311.526 169.562 313.357 170.423 315.679L171.425 318.391L172.43 315.679C173.288 313.357 175.119 311.526 177.439 310.668L180.152 309.666L177.439 308.661Z"
          fill="#23282C"/>
    <path d="M263.35 366.435C259.24 364.914 256.001 361.675 254.481 357.565L252.704 352.764L250.927 357.565C249.406 361.675 246.167 364.914 242.057 366.435L237.257 368.211L242.057 369.988C246.167 371.509 249.406 374.748 250.927 378.858L252.704 383.658L254.481 378.858C256.001 374.748 259.24 371.509 263.35 369.988L268.151 368.211L263.35 366.435"
          fill="#23282C"/>
    <path d="M203.129 252.157C196.763 249.801 191.743 244.781 189.387 238.414L186.635 230.975L183.882 238.414C181.526 244.781 176.506 249.801 170.14 252.157L162.7 254.909L170.14 257.662C176.506 260.018 181.526 265.038 183.882 271.404L186.635 278.844L189.387 271.404C191.743 265.038 196.763 260.018 203.129 257.662L210.569 254.909L203.129 252.157Z"
          fill="#23282C"/>
    <path d="M179.195 168.351C172.828 165.995 167.808 160.974 165.452 154.608L162.7 147.168L159.948 154.608C157.591 160.974 152.571 165.995 146.205 168.351L138.766 171.103L146.205 173.855C152.571 176.211 157.591 181.231 159.948 187.598L162.7 195.037L165.452 187.598C167.808 181.231 172.828 176.211 179.195 173.855L186.634 171.103L179.195 168.351Z"
          fill="#23282C"/>
    <path d="M251.883 24.4272C244.606 21.7339 238.869 15.9965 236.175 8.7177L233.029 0.21452L229.883 8.7177C227.19 15.9965 221.453 21.7339 214.176 24.4272L205.673 27.5732L214.176 30.7192C221.453 33.4125 227.19 39.15 229.883 46.4265L233.029 54.9297L236.175 46.4265C238.869 39.15 244.606 33.4125 251.883 30.7192L260.386 27.5732L251.883 24.4272Z"
          fill="#47525A"/>
    <path d="M408.872 481.025C405.232 479.678 402.362 476.808 401.018 473.171L399.443 468.919L397.87 473.171C396.523 476.808 393.655 479.678 390.016 481.025L385.766 482.598L390.016 484.171C393.655 485.518 396.523 488.385 397.87 492.025L399.443 496.277L401.018 492.025C402.362 488.385 405.232 485.518 408.872 484.171L413.122 482.598L408.872 481.025Z"
          fill="#47525A"/>
    <path d="M691.793 47.4098C682.221 43.8677 674.673 36.3219 671.133 26.7505L666.994 15.5652L662.856 26.7505C659.314 36.3219 651.766 43.8677 642.195 47.4098L631.012 51.5494L642.195 55.6867C651.766 59.2287 659.314 66.7745 662.856 76.346L666.994 87.5312L671.133 76.346C674.673 66.7745 682.221 59.2287 691.793 55.6867L702.975 51.5494L691.793 47.4098Z"
          fill="#47525A"/>
    <path d="M247.794 235.116C320.919 233.404 483.965 231.008 491.169 231.001C521.977 230.965 570.961 232.465 600.951 235.043C601.44 235.085 601.794 235.3 601.794 235.553C601.794 235.805 601.44 236.021 600.951 236.062C575.346 238.266 539.396 239.468 513.296 239.921C472.702 240.605 274.927 236.624 247.794 235.99V235.116Z"
          fill="#23282C"/>
    <path d="M298.212 363.222C298.284 362.276 298.044 361.538 297.492 361.006C296.94 360.475 296.021 360.219 294.731 360.237C293.912 360.25 293.228 360.355 292.683 360.554C292.135 360.753 291.714 361.022 291.42 361.359C291.123 361.699 290.94 362.088 290.87 362.527C290.79 362.874 290.802 363.186 290.906 363.464C291.01 363.745 291.209 363.998 291.503 364.223C291.798 364.447 292.187 364.648 292.673 364.822C293.158 364.997 293.735 365.151 294.405 365.282L296.702 365.764C298.273 366.085 299.595 366.518 300.665 367.061C301.738 367.602 302.587 368.251 303.207 369.005C303.829 369.761 304.246 370.607 304.454 371.551C304.664 372.493 304.683 373.522 304.508 374.643C304.212 376.576 303.485 378.219 302.331 379.57C301.177 380.923 299.66 381.962 297.782 382.687C295.901 383.413 293.721 383.793 291.241 383.829C288.701 383.866 286.542 383.517 284.761 382.786C282.978 382.053 281.683 380.908 280.873 379.348C280.062 377.791 279.838 375.786 280.205 373.337L287.762 373.226C287.66 374.124 287.767 374.878 288.081 375.485C288.396 376.091 288.894 376.546 289.577 376.852C290.259 377.157 291.105 377.302 292.119 377.286C292.977 377.275 293.71 377.157 294.317 376.94C294.925 376.72 295.403 376.422 295.752 376.044C296.098 375.668 296.306 375.24 296.376 374.76C296.446 374.321 296.365 373.93 296.13 373.59C295.896 373.251 295.475 372.948 294.871 372.678C294.265 372.411 293.436 372.169 292.384 371.956L289.568 371.368C287.07 370.831 285.175 369.915 283.887 368.616C282.597 367.316 282.122 365.519 282.462 363.224C282.74 361.348 283.487 359.703 284.702 358.288C285.918 356.871 287.475 355.76 289.378 354.954C291.279 354.149 293.395 353.728 295.724 353.694C298.09 353.66 300.079 354.026 301.688 354.796C303.3 355.563 304.465 356.659 305.187 358.08C305.912 359.501 306.124 361.178 305.828 363.111L298.212 363.222"
          fill="white"/>
    <path d="M308.878 360.314L309.872 353.887L335.354 353.513L334.36 359.941L325.54 360.07L322.098 383.031L314.253 383.146L317.696 360.185L308.878 360.314"
          fill="white"/>
    <path d="M337.963 371.229L354.111 370.993L353.168 376.964L337.019 377.199L337.963 371.229ZM337.788 382.801L329.199 382.928L343.313 353.396L354.193 353.238L359.435 382.484L350.845 382.611L347.67 361.408L347.441 361.411L337.788 382.801Z"
          fill="white"/>
    <path d="M362.496 353.117L371.37 352.986L375.268 364.843L375.555 364.839L383.051 352.816L391.928 352.685L378.135 372.991L376.725 382.232L368.824 382.348L370.234 373.107L362.496 353.117"
          fill="white"/>
    <path d="M400.726 358.967L401.719 352.539L427.199 352.166L426.206 358.593L417.388 358.722L413.946 381.683L406.101 381.799L409.543 358.838L400.726 358.967"
          fill="white"/>
    <path d="M447.528 351.869L455.486 351.751L452.641 370.579C452.311 372.818 451.491 374.76 450.185 376.407C448.877 378.053 447.205 379.334 445.165 380.246C443.126 381.16 440.852 381.633 438.342 381.672C435.813 381.708 433.668 381.298 431.909 380.44C430.151 379.585 428.865 378.347 428.053 376.731C427.242 375.115 427.002 373.189 427.331 370.95L430.178 352.122L438.136 352.007L435.395 370.145C435.266 371.055 435.349 371.858 435.646 372.56C435.942 373.263 436.413 373.811 437.058 374.207C437.703 374.606 438.48 374.796 439.387 374.782C440.304 374.769 441.146 374.554 441.918 374.137C442.692 373.721 443.33 373.155 443.835 372.44C444.339 371.727 444.656 370.916 444.787 370.007L447.528 351.869"
          fill="white"/>
    <path d="M484.632 351.326L480.194 380.715L473.554 380.812L465.311 365.526L465.139 365.528L462.787 380.971L454.827 381.086L459.265 351.697L466.021 351.597L474.149 366.827L474.378 366.825L476.673 351.441L484.632 351.326"
          fill="white"/>
    <path d="M483.975 380.658L488.413 351.269L509.541 350.959L508.547 357.389L495.377 357.582L494.651 362.633L506.732 362.455L505.738 368.885L493.655 369.061L492.928 374.113L506.042 373.92L505.046 380.35L483.975 380.658"
          fill="white"/>
    <path d="M518.03 373.399L520.922 373.359C522.373 373.336 523.666 373.062 524.797 372.535C525.931 372.007 526.873 371.136 527.624 369.916C528.373 368.698 528.905 367.037 529.217 364.932C529.514 362.943 529.482 361.408 529.122 360.329C528.762 359.251 528.097 358.507 527.128 358.097C526.157 357.687 524.908 357.493 523.383 357.515L520.434 357.558L518.03 373.399ZM520.506 380.124L509.054 380.291L513.492 350.902L524.485 350.739C527.502 350.696 530.03 351.264 532.071 352.448C534.111 353.629 535.573 355.34 536.455 357.581C537.338 359.82 537.544 362.499 537.076 365.618C536.623 368.621 535.654 371.199 534.174 373.349C532.692 375.5 530.788 377.156 528.461 378.315C526.135 379.476 523.484 380.078 520.506 380.124"
          fill="white"/>
    <path d="M141.496 373.698C140.463 374.509 138.598 374.427 136.222 373.549C128.309 365.768 120.383 356.859 112.824 347.195C107.107 339.88 101.856 332.47 97.1936 325.155C96.4784 321.67 96.75 319.117 98.0265 318.116C98.5108 317.736 99.1762 317.551 99.9865 317.551C102.223 317.551 105.572 318.94 109.375 321.511C112.34 323.517 115.463 326.128 118.591 329.188C121.719 332.253 124.856 335.766 127.843 339.586C133.818 347.227 138.467 355.139 140.935 361.866C143.094 367.75 143.307 372.282 141.496 373.698"
          fill="#131618"/>
    <defs>
        <linearGradient id="paint0_linear_6854_204110" x1="105.231" y1="534.691" x2="691.678" y2="513.538"
                        gradientUnits="userSpaceOnUse">
            <stop stop-color="#FAC01E"/>
            <stop offset="0.861035" stop-color="#FC762A"/>
        </linearGradient>
    </defs>
</svg>
