<svg width="20" height="20" viewBox="0 0 20 20" fill="none" xmlns="http://www.w3.org/2000/svg">
    <g filter="url(#filter0_b_6221_181340)">
        <path d="M10.0417 4.44299L7.19093 7.30163C6.86189 7.63151 6.32798 7.63289 5.99873 7.30301C5.66969 6.97292 5.66969 6.43603 5.99873 6.10605L8.84926 3.24741C9.17829 2.91753 9.7138 2.91753 10.0428 3.24741C10.2075 3.41245 10.2897 3.62854 10.2897 3.84599C10.2884 4.06208 10.2062 4.27796 10.0416 4.44299"/>
        <path d="M14.8366 9.2498L11.9859 12.1084C11.6568 12.4383 11.1227 12.4397 10.7937 12.1098C10.4646 11.7797 10.4646 11.2428 10.7937 10.9128L13.6444 8.05421C13.9735 7.72412 14.509 7.72412 14.838 8.05421C15.0027 8.21926 15.0849 8.43534 15.0849 8.65258C15.0835 8.86888 15.0013 9.08476 14.8367 9.24979"/>
        <path d="M13.5305 7.9335L13.5261 7.93794L10.6791 10.7917C10.385 10.2838 10.0419 9.80936 9.66099 9.37497L9.62094 9.32816C9.36481 9.03853 9.0774 8.75345 8.76771 8.47946L8.72312 8.44164C8.29762 8.07625 7.82317 7.73325 7.30859 7.41912L10.1599 4.55886L10.1621 4.55664C11.0043 5.91547 12.1382 7.04935 13.5304 7.93356"/>
        <path d="M16.4164 17.0008H8.46099C8.18638 17.0008 7.96289 16.7767 7.96289 16.5013V16.3399C7.96289 15.64 8.53094 15.0703 9.22886 15.0703H15.6484C16.3465 15.0703 16.9145 15.64 16.9145 16.3399V16.5013C16.9146 16.7767 16.691 17.0008 16.4162 17.0008"/>
        <path d="M9.53735 9.48522L9.49498 9.43841C9.24772 9.15777 8.96474 8.87702 8.65738 8.60525L8.615 8.56964C8.58605 8.54512 8.5571 8.52061 8.52815 8.49609L6.46094 10.5701L7.52127 11.6326L9.59303 9.55199C9.57517 9.5298 9.55742 9.50751 9.53734 9.48521"/>
        <path d="M4.31982 15.0372C3.98918 15.0372 3.67898 14.9087 3.44567 14.6748C2.96342 14.1908 2.96342 13.4035 3.44567 12.9196L5.71587 10.6434C5.87003 10.4886 6.13895 10.4886 6.293 10.6434L7.46567 11.819C7.62449 11.9785 7.62449 12.2377 7.46567 12.3973L5.19559 14.6738C4.96165 14.9084 4.65066 15.0373 4.31984 15.0373L4.31982 15.0372ZM7.40652 12.3383H7.40852H7.40652Z"/>
    </g>
    <defs>
        <filter id="filter0_b_6221_181340" x="-10" y="-10" width="40" height="40" filterUnits="userSpaceOnUse"
                color-interpolation-filters="sRGB">
            <feFlood flood-opacity="0" result="BackgroundImageFix"/>
            <feGaussianBlur in="BackgroundImage" stdDeviation="5"/>
            <feComposite in2="SourceAlpha" operator="in" result="effect1_backgroundBlur_6221_181340"/>
            <feBlend mode="normal" in="SourceGraphic" in2="effect1_backgroundBlur_6221_181340" result="shape"/>
        </filter>
    </defs>
</svg>
