<svg width="20" height="20" viewBox="0 0 20 20" fill="none" xmlns="http://www.w3.org/2000/svg">
    <path d="M17.2004 5.19901H2.20039V4.59901L15.4004 3.54301V4.59901H17.2004V2.79901C17.2004 1.47901 16.1312 0.552607 14.8256 0.738607L2.77639 2.45941C1.46959 2.64661 0.400391 3.87901 0.400391 5.19901V17.199C0.400391 17.8355 0.653247 18.446 1.10333 18.8961C1.55342 19.3461 2.16387 19.599 2.80039 19.599H17.2004C17.8369 19.599 18.4474 19.3461 18.8974 18.8961C19.3475 18.446 19.6004 17.8355 19.6004 17.199V7.59901C19.6004 6.96249 19.3475 6.35204 18.8974 5.90195C18.4474 5.45186 17.8369 5.19901 17.2004 5.19901ZM15.4004 13.6062C15.1639 13.6061 14.9298 13.5595 14.7114 13.4689C14.4929 13.3784 14.2945 13.2457 14.1273 13.0784C13.9602 12.9111 13.8276 12.7126 13.7372 12.4941C13.6468 12.2756 13.6003 12.0415 13.6004 11.805C13.6005 11.5685 13.6471 11.3344 13.7377 11.116C13.8282 10.8976 13.9609 10.6991 14.1282 10.532C14.2955 10.3648 14.494 10.2323 14.7125 10.1418C14.931 10.0514 15.1651 10.0049 15.4016 10.005C15.8791 10.0052 16.3371 10.195 16.6746 10.5328C17.0122 10.8706 17.2017 11.3287 17.2016 11.8062C17.2014 12.2838 17.0116 12.7417 16.6738 13.0792C16.336 13.4168 15.8779 13.6064 15.4004 13.6062Z"
          fill="url(#paint0_linear)"/>
    <defs>
        <linearGradient id="paint0_linear" x1="10.0004" y1="0.714844" x2="10.0004" y2="19.599"
                        gradientUnits="userSpaceOnUse">
            <stop stop-color="#0E151B"/>
            <stop offset="1"/>
        </linearGradient>
    </defs>
</svg>
