<svg width="24" height="25" viewBox="0 0 24 25" fill="none" xmlns="http://www.w3.org/2000/svg">
    <path d="M17.002 20.5H6.00195C5.47152 20.5 4.96281 20.2893 4.58774 19.9142C4.21267 19.5391 4.00195 19.0304 4.00195 18.5V7.5C4.00195 6.96957 4.21267 6.46086 4.58774 6.08579C4.96281 5.71071 5.47152 5.5 6.00195 5.5H10.002V7.5H6.00195V18.5H17.002V14.5H19.002V18.5C19.002 19.0304 18.7912 19.5391 18.4162 19.9142C18.0411 20.2893 17.5324 20.5 17.002 20.5ZM11.702 14.207L10.292 12.793L16.585 6.5H13.002V4.5H20.002V11.5H18.002V7.915L11.702 14.207Z"
          fill="white"/>
</svg>
