<svg width="24" class="grid_button" height="24" viewBox="0 0 24 24" fill="none" xmlns="http://www.w3.org/2000/svg">
    <path d="M0.839844 2.64047C0.839844 2.0676 1.06741 1.5182 1.47249 1.11312C1.87757 0.70804 2.42698 0.480469 2.99984 0.480469H21.7198C22.2927 0.480469 22.8421 0.70804 23.2472 1.11312C23.6523 1.5182 23.8798 2.0676 23.8798 2.64047V21.3605C23.8798 21.9333 23.6523 22.4827 23.2472 22.8878C22.8421 23.2929 22.2927 23.5205 21.7198 23.5205H2.99984C2.42698 23.5205 1.87757 23.2929 1.47249 22.8878C1.06741 22.4827 0.839844 21.9333 0.839844 21.3605V2.64047ZM2.99984 1.92047C2.80889 1.92047 2.62575 1.99633 2.49073 2.13135C2.3557 2.26638 2.27984 2.44951 2.27984 2.64047V7.68047H8.03984V1.92047H2.99984ZM8.03984 9.12047H2.27984V14.8805H8.03984V9.12047ZM9.47984 14.8805H15.2398V9.12047H9.47984V14.8805ZM8.03984 16.3205H2.27984V21.3605C2.27984 21.5514 2.3557 21.7346 2.49073 21.8696C2.62575 22.0046 2.80889 22.0805 2.99984 22.0805H8.03984V16.3205ZM9.47984 16.3205V22.0805H15.2398V16.3205H9.47984ZM16.6798 16.3205V22.0805H21.7198C21.9108 22.0805 22.0939 22.0046 22.229 21.8696C22.364 21.7346 22.4398 21.5514 22.4398 21.3605V16.3205H16.6798ZM16.6798 14.8805H22.4398V9.12047H16.6798V14.8805ZM16.6798 7.68047H22.4398V2.64047C22.4398 2.44951 22.364 2.26638 22.229 2.13135C22.0939 1.99633 21.9108 1.92047 21.7198 1.92047H16.6798V7.68047ZM15.2398 7.68047V1.92047H9.47984V7.68047H15.2398Z"
          fill="#FFFFF"/>
    <defs>
        <linearGradient id="paint0_linear" x1="0.5" y1="17.1819" x2="35.5" y2="17.1819" gradientUnits="userSpaceOnUse">
            <stop stop-color="#FAC01E"/>
            <stop offset="1" stop-color="#FC762A"/>
        </linearGradient>
    </defs>
</svg>
