<svg width="14" height="14" viewBox="0 0 14 14" fill="none" xmlns="http://www.w3.org/2000/svg">
    <path fill-rule="evenodd" clip-rule="evenodd"
          d="M7.00065 4.3724C7.64232 4.3724 8.16732 3.8474 8.16732 3.20573C8.16732 2.56406 7.64232 2.03906 7.00065 2.03906C6.35898 2.03906 5.83398 2.56406 5.83398 3.20573C5.83398 3.8474 6.35898 4.3724 7.00065 4.3724ZM7.00065 6.1224C6.35898 6.1224 5.83398 6.6474 5.83398 7.28906C5.83398 7.93073 6.35898 8.45573 7.00065 8.45573C7.64232 8.45573 8.16732 7.93073 8.16732 7.28906C8.16732 6.6474 7.64232 6.1224 7.00065 6.1224ZM7.00065 10.2057C6.35898 10.2057 5.83398 10.7307 5.83398 11.3724C5.83398 12.0141 6.35898 12.5391 7.00065 12.5391C7.64232 12.5391 8.16732 12.0141 8.16732 11.3724C8.16732 10.7307 7.64232 10.2057 7.00065 10.2057Z"
          fill="#F2F2F2"/>
</svg>
