<svg width="21" height="21" viewBox="0 0 21 21" fill="none" xmlns="http://www.w3.org/2000/svg">
    <path d="M8.95202 1.03629C9.80213 -0.121472 11.5885 -0.121472 12.4386 1.03629C12.9841 1.77922 13.9734 2.08819 14.8691 1.79536C16.2648 1.339 17.71 2.34827 17.6898 3.76522C17.6768 4.67446 18.2882 5.48336 19.1919 5.75247C20.6001 6.17185 21.1521 7.80487 20.2693 8.93978C19.7028 9.66804 19.7028 10.6679 20.2693 11.3962C21.1521 12.5311 20.6001 14.1641 19.1919 14.5835C18.2882 14.8526 17.6768 15.6615 17.6898 16.5707C17.71 17.9877 16.2648 18.9969 14.869 18.5406C13.9734 18.2477 12.9841 18.5567 12.4386 19.2996C11.5885 20.4574 9.80213 20.4574 8.95202 19.2996C8.40651 18.5567 7.41721 18.2477 6.52158 18.5406C5.12583 18.9969 3.68064 17.9877 3.70086 16.5707C3.71384 15.6615 3.10242 14.8526 2.19877 14.5835C0.790527 14.1641 0.238512 12.5311 1.12135 11.3962C1.68786 10.6679 1.68786 9.66804 1.12135 8.93978C0.238512 7.80487 0.790527 6.17185 2.19877 5.75247C3.10242 5.48336 3.71384 4.67446 3.70086 3.76522C3.68064 2.34827 5.12583 1.339 6.52158 1.79536C7.41721 2.08819 8.40651 1.77922 8.95202 1.03629Z"
          fill="#2F80ED"/>
    <path d="M13.9164 7.37759C14.0642 7.24165 14.2608 7.1665 14.4648 7.16799C14.6688 7.16948 14.8642 7.2475 15.0098 7.38558C15.1554 7.52366 15.2398 7.71101 15.2452 7.90808C15.2506 8.10516 15.1765 8.29655 15.0387 8.44187L10.8537 13.4998C10.7818 13.5747 10.6949 13.6348 10.5984 13.6765C10.5018 13.7182 10.3976 13.7407 10.2918 13.7426C10.1861 13.7445 10.081 13.7258 9.98293 13.6875C9.88485 13.6493 9.79575 13.5923 9.72097 13.52L6.94568 10.838C6.8684 10.7684 6.80641 10.6845 6.76341 10.5913C6.72042 10.498 6.6973 10.3974 6.69543 10.2953C6.69357 10.1932 6.713 10.0918 6.75257 9.99716C6.79213 9.9025 6.85102 9.81651 6.92572 9.74432C7.00041 9.67213 7.08939 9.61522 7.18734 9.57699C7.2853 9.53876 7.39021 9.51998 7.49584 9.52178C7.60146 9.52358 7.70563 9.54592 7.80212 9.58747C7.89861 9.62902 7.98546 9.68893 8.05748 9.76362L10.2538 11.8851L13.8965 7.39989C13.903 7.39208 13.91 7.38464 13.9175 7.37759H13.9164Z"
          fill="black"/>
</svg>
