<svg width="10" height="12" viewBox="0 0 10 12" fill="none" xmlns="http://www.w3.org/2000/svg">
    <path d="M9.77037 0.765515C9.84319 0.766795 9.89532 0.83676 9.87572 0.906907L8.56176 5.60949C8.53698 5.69819 8.42117 5.71944 8.36601 5.6454L4.79802 0.857011C4.74286 0.782976 4.79633 0.678087 4.88842 0.679706L9.77037 0.765515Z"
          fill="white"/>
    <path d="M6.13963 2.00832C6.18871 1.97175 6.25826 1.98205 6.29497 2.03132L7.69101 3.90487C7.72773 3.95415 7.71771 4.02374 7.66863 4.06031L3.58075 7.10632C3.53167 7.14289 3.46212 7.13259 3.42541 7.08332L2.02936 5.20977C1.99265 5.16049 2.00267 5.0909 2.05175 5.05433L6.13963 2.00832Z"
          fill="white"/>
    <path d="M0.7892 11.7939C0.716378 11.7926 0.664245 11.7226 0.683845 11.6525L1.99781 6.94988C2.02259 6.86118 2.13839 6.83993 2.19356 6.91397L5.76155 11.7024C5.81671 11.7764 5.76324 11.8813 5.67115 11.8797L0.7892 11.7939Z"
          fill="white"/>
    <path d="M4.41994 10.5511C4.37086 10.5876 4.30131 10.5773 4.2646 10.5281L2.86855 8.6545C2.83184 8.60523 2.84186 8.53564 2.89094 8.49907L6.97882 5.45306C7.0279 5.41649 7.09745 5.42679 7.13416 5.47606L8.5302 7.34961C8.56692 7.39888 8.5569 7.46847 8.50782 7.50504L4.41994 10.5511Z"
          fill="white"/>
</svg>
