<svg width="30" height="30" viewBox="0 0 30 30" fill="none" xmlns="http://www.w3.org/2000/svg">
    <path d="M15 30C23.2843 30 30 23.2843 30 15C30 6.71573 23.2843 0 15 0C6.71573 0 0 6.71573 0 15C0 23.2843 6.71573 30 15 30Z"
          fill="#2E3148"/>
    <path d="M15.0006 23.7031C19.8075 23.7031 23.7043 19.8063 23.7043 14.9994C23.7043 10.1924 19.8075 6.29565 15.0006 6.29565C10.1937 6.29565 6.29688 10.1924 6.29688 14.9994C6.29688 19.8063 10.1937 23.7031 15.0006 23.7031Z"
          fill="#1B1E36"/>
    <path d="M15.0317 1.91296C13.4125 1.91296 12.0996 7.78576 12.0996 15.0303C12.0996 22.2748 13.4125 28.1476 15.0317 28.1476C16.6508 28.1476 17.9638 22.2748 17.9638 15.0303C17.9638 7.78576 16.6508 1.91296 15.0317 1.91296ZM15.2341 27.4073C15.049 27.6543 14.8638 27.469 14.8638 27.469C14.1181 26.605 13.7453 24.9999 13.7453 24.9999C12.441 20.8024 12.7514 11.79 12.7514 11.79C13.3644 4.63516 14.4794 2.94496 14.8589 2.56972C14.8976 2.53143 14.9486 2.50802 15.003 2.50363C15.0573 2.49924 15.1114 2.51415 15.1558 2.54572C15.7063 2.93584 16.1681 4.56736 16.1681 4.56736C17.5316 9.62908 17.4082 14.3822 17.4082 14.3822C17.5316 18.518 16.7249 23.1476 16.7249 23.1476C16.1039 26.666 15.2341 27.4073 15.2341 27.4073Z"
          fill="#6F7390"/>
    <path d="M26.4091 8.50419C25.603 7.09923 19.8561 8.88315 13.5691 12.4882C7.28223 16.0932 2.84751 20.1549 3.65307 21.5592C4.45863 22.9636 10.2061 21.1803 16.4931 17.5752C22.78 13.9702 27.2147 9.90855 26.4091 8.50419ZM4.39683 21.3665C4.08819 21.3276 4.15791 21.0739 4.15791 21.0739C4.53651 19.9974 5.74131 18.8752 5.74131 18.8752C8.73447 15.6549 16.7068 11.4394 16.7068 11.4394C23.2173 8.41035 25.2395 8.53815 25.7525 8.67939C25.8052 8.69408 25.8509 8.72694 25.8817 8.77214C25.9124 8.81735 25.9262 8.87197 25.9205 8.92635C25.8588 9.59835 24.6705 10.8103 24.6705 10.8103C20.961 14.5134 16.7765 16.7721 16.7765 16.7721C13.2505 18.9381 8.83335 20.5411 8.83335 20.5411C5.47227 21.7523 4.39695 21.3665 4.39695 21.3665H4.39683Z"
          fill="#6F7390"/>
    <path d="M26.3807 21.6049C27.1931 20.2036 22.7695 16.1234 16.5047 12.4912C10.2399 8.85905 4.49366 7.05305 3.68198 8.45669C2.8703 9.86033 7.29314 13.9382 13.5616 17.5703C19.83 21.2025 25.569 23.0086 26.3807 21.6049ZM4.2203 8.99813C4.1003 8.71361 4.35362 8.64509 4.35362 8.64509C5.47514 8.43329 7.0505 8.91593 7.0505 8.91593C11.3363 9.89189 18.9785 14.6789 18.9785 14.6789C24.8625 18.7962 25.7649 20.6098 25.9001 21.1246C25.9139 21.1774 25.9085 21.2334 25.885 21.2826C25.8615 21.3319 25.8214 21.3712 25.7717 21.3938C25.1581 21.6747 23.5149 21.2561 23.5149 21.2561C18.45 19.8981 14.3994 17.4099 14.3994 17.4099C10.7599 15.4469 7.16114 12.4265 7.16114 12.4265C4.42658 10.1241 4.22114 9.00125 4.22114 9.00125L4.2203 8.99813Z"
          fill="#6F7390"/>
    <path d="M15.0002 16.5423C15.8525 16.5423 16.5434 15.8514 16.5434 14.9991C16.5434 14.1468 15.8525 13.4559 15.0002 13.4559C14.1479 13.4559 13.457 14.1468 13.457 14.9991C13.457 15.8514 14.1479 16.5423 15.0002 16.5423Z"
          fill="#B7B9C8"/>
    <path d="M21.3267 10.0005C21.8211 10.0005 22.2218 9.58597 22.2218 9.0746C22.2218 8.56323 21.8211 8.14868 21.3267 8.14868C20.8324 8.14868 20.4316 8.56323 20.4316 9.0746C20.4316 9.58597 20.8324 10.0005 21.3267 10.0005Z"
          fill="#B7B9C8"/>
    <path d="M6.63531 13.149C7.12965 13.149 7.53039 12.7344 7.53039 12.223C7.53039 11.7117 7.12965 11.2971 6.63531 11.2971C6.14097 11.2971 5.74023 11.7117 5.74023 12.223C5.74023 12.7344 6.14097 13.149 6.63531 13.149Z"
          fill="#B7B9C8"/>
    <path d="M13.1783 24.5069C13.6726 24.5069 14.0734 24.0923 14.0734 23.5809C14.0734 23.0696 13.6726 22.655 13.1783 22.655C12.6839 22.655 12.2832 23.0696 12.2832 23.5809C12.2832 24.0923 12.6839 24.5069 13.1783 24.5069Z"
          fill="#B7B9C8"/>
</svg>
