<svg width="30" height="30" viewBox="0 0 30 30" fill="none" xmlns="http://www.w3.org/2000/svg">
    <path d="M27.4633 1.25V11.6179C27.4633 13.7765 27.6597 17.7993 25.8279 20.9065C23.4723 24.8642 19.1889 27.8731 15.0024 28.2326C10.8159 27.8404 6.5314 24.8316 4.17643 20.8738C2.34491 17.7996 2.54128 13.7435 2.54128 11.5852V1.25H27.4633Z"
          fill="#090A1A"/>
    <path d="M27.4941 1.25V11.6506C27.4941 13.8092 27.6904 17.865 25.8259 20.9392C23.471 24.8966 19.1537 27.9058 14.9999 28.2656C10.8134 27.9058 6.49738 24.8966 4.14125 20.9392C2.31002 17.8323 2.5061 13.8092 2.5061 11.6506V1.25H27.4941Z"
          stroke="#00B6FA" stroke-width="0.8" stroke-miterlimit="10"/>
    <path d="M20.9593 20.924L19.7976 20.0526C19.4729 20.3882 19.1161 20.6913 18.7324 20.9575L19.862 21.7962V21.8931C21.0053 21.0077 21.9691 19.9124 22.702 18.6659C23.0896 17.9689 23.3722 17.2185 23.5407 16.439V16.4066C23.381 17.2037 23.0863 17.9677 22.6693 18.6656C22.213 19.498 21.6368 20.2589 20.9593 20.924Z"
          fill="#00B6FA"/>
    <path d="M20.9594 20.9225L19.7977 20.0511C19.4689 20.3893 19.1083 20.6948 18.7207 20.9636L19.8622 21.7947V21.8916C21.0054 21.0059 21.9691 19.9103 22.7019 18.6635C23.0895 17.9666 23.3721 17.2162 23.5406 16.4367V16.4043C23.3808 17.2014 23.0861 17.9654 22.6692 18.6633C22.213 19.496 21.6369 20.2572 20.9594 20.9225Z"
          fill="#00B6FA"/>
    <path d="M18.734 22.668C17.5958 23.3673 16.3176 23.8077 14.9902 23.9578C16.3199 23.8176 17.6001 23.3765 18.734 22.668Z"
          fill="#142D51"/>
    <path d="M18.734 22.668C17.5958 23.3673 16.3176 23.8077 14.9902 23.9578C16.3199 23.8176 17.6001 23.3765 18.734 22.668Z"
          fill="white"/>
    <path d="M9.66211 4.43066L11.598 5.88391H13.8249L11.8872 4.43153L9.66211 4.43066Z" fill="#00B6FA"/>
    <path d="M9.66211 4.43066L11.598 5.88391H13.8249L11.8872 4.43153L9.66211 4.43066Z" fill="#00B6FA"/>
    <path d="M8.24474 4.43286H6.04883V9.75795L19.7969 20.0536C21.5073 18.3432 22.411 16.3422 22.5079 15.9226C22.5724 15.6967 22.6369 15.6334 22.7662 15.6334C22.992 15.6334 23.2824 15.9226 23.573 16.2789V16.4079C23.6662 16.0368 23.731 15.6592 23.7668 15.2782V14.989L11.6015 5.88581H8.24474V4.43286Z"
          fill="#00B6FA"/>
    <path d="M8.24474 4.43286H6.04883V9.75795L19.7969 20.0536C21.5374 18.4716 22.5044 16.3737 22.5091 15.9211C22.5736 15.6953 22.6381 15.6319 22.7673 15.6319C22.9932 15.6319 23.2836 15.9211 23.5742 16.2774V16.4064C23.6674 16.0353 23.7322 15.6577 23.768 15.2768V14.9876L11.6015 5.88581H8.24474V4.43286Z"
          fill="#00B6FA"/>
    <path d="M22.7642 15.6299C22.6352 15.6299 22.5704 15.6944 22.5059 15.9191C22.4414 16.3387 21.5377 18.3718 19.7949 20.0501L20.9566 20.9214C21.6351 20.249 22.2215 19.4897 22.7005 18.6633C23.1123 17.9629 23.4066 17.1998 23.5719 16.4044V16.2754C23.2815 15.9202 22.9909 15.6299 22.7642 15.6299Z"
          fill="#00B6FA"/>
    <path d="M22.7642 15.6299C22.6352 15.6299 22.5704 15.6944 22.5059 15.9191C22.4414 16.3387 21.5377 18.3718 19.7949 20.0501L20.9566 20.9214C21.6351 20.249 22.2215 19.4897 22.7005 18.6633C23.1123 17.9629 23.4066 17.1998 23.5719 16.4044V16.2754C23.2815 15.9202 22.9909 15.6299 22.7642 15.6299Z"
          fill="#00B6FA"/>
    <path d="M22.7642 15.6299C22.6352 15.6299 22.5704 15.6944 22.5059 15.9191C22.4414 16.3387 21.5377 18.3718 19.7949 20.0501L20.9566 20.9214C21.6351 20.249 22.2215 19.4897 22.7005 18.6633C23.1123 17.9629 23.4066 17.1998 23.5719 16.4044V16.2754C23.2815 15.9202 22.9909 15.6299 22.7642 15.6299Z"
          fill="#00B6FA"/>
    <path d="M8.24414 4.43066V5.88391H11.6003L9.66268 4.43153L8.24414 4.43066Z" fill="#00B6FA"/>
    <path d="M8.24414 4.43066V5.88391H11.6003L9.66268 4.43153L8.24414 4.43066Z" fill="#00B6FA"/>
    <path d="M8.24414 4.43066V5.88391H11.6003L9.66268 4.43153L8.24414 4.43066Z" fill="#00B6FA"/>
    <path d="M23.8615 4.43066H22.4415V5.88391H13.8262L23.8615 13.4032V4.43066Z" fill="#00B6FA"/>
    <path d="M23.8615 4.43066H22.4415V5.88391H13.8262L23.8615 13.4032V4.43066Z" fill="#00B6FA"/>
    <path d="M22.4436 4.43066H11.8906L13.8283 5.88304H22.4465L22.4436 4.43066Z" fill="#00B6FA"/>
    <path d="M22.4436 4.43066H11.8906L13.8283 5.88304H22.4465L22.4436 4.43066Z" fill="#00B6FA"/>
    <path d="M22.4436 4.43066H11.8906L13.8283 5.88304H22.4465L22.4436 4.43066Z" fill="#00B6FA"/>
    <path d="M18.7969 22.6344C18.7645 22.6344 18.7645 22.6668 18.7324 22.6668C18.7572 22.6644 18.7802 22.6528 18.7969 22.6344Z"
          fill="#142D51"/>
    <path d="M18.7969 22.6344C18.7645 22.6344 18.7645 22.6668 18.7324 22.6668C18.7572 22.6644 18.7802 22.6528 18.7969 22.6344Z"
          fill="white"/>
    <path d="M15.4729 22.4399C16.6657 22.2111 17.7912 21.7148 18.7646 20.9884L6.04836 11.4994V11.9511C6.04836 13.5001 5.91937 16.4369 7.24247 18.6638C8.69485 21.1799 11.2121 23.1175 13.8262 23.763C13.375 23.2792 13.6333 22.7627 15.4729 22.4399Z"
          fill="#00B6FA"/>
    <path d="M15.4729 22.4399C16.8573 22.343 17.8287 21.6654 18.7646 20.9875L6.04836 11.4994V11.9511C6.04836 13.5001 5.91937 16.4369 7.24247 18.6638C8.69485 21.1799 11.2121 23.1175 13.8262 23.763C13.375 23.2792 13.6333 22.7627 15.4729 22.4399Z"
          fill="#00B6FA"/>
    <path d="M18.762 20.9879C17.792 21.7203 16.6651 22.2174 15.4703 22.44C13.6306 22.7628 13.3727 23.2787 13.8244 23.7631C13.9504 23.8002 14.0804 23.8219 14.2117 23.8276C14.467 23.8862 14.7256 23.9293 14.9861 23.9566C16.3125 23.801 17.5895 23.3606 18.7299 22.6656C18.7623 22.6656 18.7623 22.6332 18.7944 22.6332C18.9307 22.5585 19.0602 22.472 19.1816 22.3749C19.4399 22.2136 19.6657 22.0201 19.924 21.8587V21.8263L18.762 20.9879Z"
          fill="#00B6FA"/>
    <path d="M18.762 20.9879C17.792 21.7203 16.6651 22.2174 15.4703 22.44C13.6306 22.7628 13.3727 23.2787 13.8244 23.7631C13.9504 23.8002 14.0804 23.8219 14.2117 23.8276C14.467 23.8862 14.7256 23.9293 14.9861 23.9566C16.3125 23.801 17.5895 23.3606 18.7299 22.6656C18.7623 22.6656 18.7623 22.6332 18.7944 22.6332C18.9307 22.5585 19.0602 22.472 19.1816 22.3749C19.4399 22.2136 19.6657 22.0024 19.924 21.8411V21.8266L18.762 20.9879Z"
          fill="#00B6FA"/>
    <path d="M18.762 20.9879C17.792 21.7203 16.6651 22.2174 15.4703 22.44C13.6306 22.7628 13.3727 23.2787 13.8244 23.7631C13.9504 23.8002 14.0804 23.8219 14.2117 23.8276C14.467 23.8862 14.7256 23.9293 14.9861 23.9566C16.3125 23.801 17.5895 23.3606 18.7299 22.6656C18.7623 22.6656 18.7623 22.6332 18.7944 22.6332C18.9307 22.5585 19.0602 22.472 19.1816 22.3749C19.4399 22.2136 19.6657 22.0021 19.924 21.8408V21.8263L18.762 20.9879Z"
          fill="#00B6FA"/>
</svg>
