<svg width="30" height="30" viewBox="0 0 30 30" fill="none" xmlns="http://www.w3.org/2000/svg">
    <path d="M15.8114 19.301L15.5639 19.3398H15.5457C15.5274 19.3445 15.5091 19.3445 15.4919 19.3491L15.4273 19.3574C12.1844 19.8692 9.44069 19.9355 7.0455 19.5646C6.40005 19.461 5.45176 19.2911 4.64117 18.9554C3.68267 18.5592 3.13779 18.023 3.02322 17.3553C2.7333 15.7276 5.23822 14.4222 6.06495 13.9938C8.25413 12.8542 10.9527 12.031 14.3101 11.4835C17.6676 10.9359 20.4974 10.8531 22.9544 11.2369C24.5557 11.4882 26.7196 11.9844 26.9762 13.4452C27.2328 14.9061 25.3625 16.0613 23.9345 16.8067C21.7985 17.9189 19.1893 18.7234 15.9501 19.273L15.8861 19.2818C15.8684 19.2865 15.8496 19.2865 15.8323 19.2906C15.8151 19.2947 15.8157 19.301 15.8114 19.301ZM15.5317 19.2129H15.5403L15.7925 19.1689H15.7974C15.8151 19.1642 15.834 19.1642 15.8512 19.1601L15.9152 19.1507C19.1355 18.6079 21.7329 17.8039 23.8581 16.6984C27.1015 15.0086 26.8944 13.8529 26.8315 13.4737C26.5658 11.9383 23.8269 11.5099 22.9286 11.3737C20.4883 10.994 17.6757 11.0737 14.3322 11.6218C10.9887 12.1699 8.30791 12.9842 6.12788 14.1176C2.88445 15.8069 3.091 16.9631 3.155 17.3423C3.42394 18.8772 6.16714 19.301 7.06379 19.4419C9.44607 19.8128 12.1737 19.7465 15.4053 19.2347L15.4698 19.2259C15.4881 19.2217 15.5069 19.2217 15.5236 19.2176L15.5317 19.2129Z"
          fill="#002FA7"/>
    <path d="M15.572 18.6788C15.508 18.6881 15.4392 18.7011 15.366 18.7099C15.2283 18.7317 15.0729 18.7539 14.9029 18.7804L14.8846 18.785C14.8114 18.7933 14.734 18.8073 14.6512 18.8156C14.578 18.8244 14.5 18.8379 14.4177 18.8467H14.4021C14.2789 18.8643 14.1461 18.8772 14.0127 18.8954H13.9949L13.825 18.9124C13.7793 18.9171 13.7287 18.9218 13.6835 18.9306H13.6771C12.6373 19.0409 11.6476 19.1072 10.7408 19.1202C9.09161 19.1419 7.76788 18.9964 6.81422 18.6881C5.90358 18.3924 5.32159 17.9417 5.09676 17.3511C5.05773 17.2504 5.02856 17.1463 5.00962 17.0403C4.92894 16.5772 5.0462 16.1188 5.36247 15.6821C5.80031 15.0708 6.63349 14.4885 7.83996 13.9529C8.96951 13.4483 10.396 12.9951 12.0817 12.5983C13.1489 12.3465 14.0057 12.1968 14.4226 12.1321C14.8394 12.0673 15.7135 11.9337 16.7952 11.8275C17.986 11.7114 19.7272 11.6068 21.2703 11.7529C22.5941 11.8762 23.5832 12.1631 24.2072 12.6086C24.6423 12.9194 24.9064 13.31 24.9855 13.7726C25.0045 13.8835 25.0122 13.996 25.0086 14.1083C24.9898 14.7387 24.6009 15.3433 23.8538 15.9033C23.0599 16.4974 21.8599 17.0574 20.2882 17.5609C19.4179 17.8386 18.4594 18.0903 17.4374 18.3152C17.402 18.3248 17.3661 18.3322 17.3298 18.3374L16.9775 18.411C16.8855 18.4281 16.7984 18.4462 16.7086 18.4628L16.622 18.4809C16.5714 18.4892 16.5257 18.4985 16.4757 18.5074C16.4256 18.5162 16.3681 18.5296 16.3143 18.5384L16.2272 18.5555C16.0577 18.5866 15.9017 18.613 15.7646 18.6394C15.7059 18.6571 15.6392 18.67 15.572 18.6788ZM13.9869 18.7674H14.01C14.138 18.7539 14.266 18.7363 14.3897 18.7187H14.4021C14.4806 18.7099 14.5581 18.6964 14.6361 18.6881C14.7141 18.6799 14.7975 18.6659 14.8695 18.6571L14.8878 18.6529C15.0573 18.626 15.2106 18.6042 15.3461 18.5861C15.4929 18.5643 15.607 18.5472 15.7538 18.5203C15.891 18.498 16.047 18.4685 16.2164 18.4364L16.3035 18.4188C16.3541 18.41 16.4084 18.4012 16.459 18.3882L16.6015 18.3613L16.6881 18.3437C16.7753 18.326 16.8624 18.3084 16.9538 18.2919L17.3067 18.2167C17.3433 18.2079 17.3755 18.2033 17.4143 18.1945C18.4362 17.9743 19.3851 17.7184 20.251 17.4439C21.8109 16.9455 22.9942 16.3938 23.7736 15.8069C24.4869 15.2692 24.858 14.6999 24.8768 14.1083C24.8805 14.0042 24.8727 13.9 24.8537 13.7975C24.7806 13.3706 24.531 13.0075 24.1249 12.7164C23.5208 12.2895 22.5586 12.0062 21.258 11.8875C19.7234 11.7461 17.9919 11.8487 16.8097 11.9627C15.7291 12.0663 14.8631 12.1953 14.4462 12.2626C14.0294 12.3299 13.1731 12.4828 12.115 12.7288C10.4627 13.1168 8.99963 13.5799 7.8959 14.0757C6.71417 14.603 5.90035 15.1677 5.47328 15.7587C5.18013 16.1643 5.0704 16.5922 5.14355 17.0201C5.16068 17.1194 5.1877 17.2169 5.22424 17.3112C5.43939 17.8671 5.98964 18.2908 6.8637 18.5731C7.80284 18.8772 9.10828 19.0186 10.7434 18.9964C11.6509 18.9834 12.6357 18.9218 13.6706 18.8073H13.6797C13.7274 18.8036 13.7748 18.7976 13.8217 18.7892L13.9869 18.7674Z"
          fill="#002FA7"/>
    <path d="M10.2179 17.3864L10.2045 17.3822H10.1916L10.2045 17.5055C10.2448 17.5014 10.2819 17.5014 10.325 17.4967C10.4324 17.4889 10.5401 17.4874 10.6477 17.492C10.5024 17.4651 10.3589 17.4298 10.2179 17.3864ZM11.7686 17.5905H11.7643V17.5977H11.7735L11.7686 17.5905ZM24.9769 13.7825C24.8994 13.3163 24.6337 12.9308 24.1986 12.618C23.5757 12.1725 22.5849 11.886 21.2617 11.7622C19.7185 11.6166 17.9806 11.7233 16.7887 11.8373C15.7076 11.9409 14.8373 12.0699 14.4161 12.1414C13.9949 12.2129 13.1408 12.3584 12.0731 12.6076C10.3879 13.0049 8.95821 13.4592 7.83135 13.9622C6.62596 14.4968 5.796 15.0791 5.35333 15.6878C5.03705 16.1245 4.91818 16.5839 5.00048 17.0465C5.01446 17.1266 5.03441 17.2055 5.06018 17.2828C5.06933 17.3092 5.07793 17.3346 5.08761 17.3605C5.09407 17.3765 5.10052 17.3926 5.10752 17.4086C5.34902 17.9785 5.92294 18.4094 6.80991 18.697C7.76304 19.0078 9.08677 19.1513 10.7365 19.1295H10.7639L10.7816 19.1077C11.0194 18.8653 11.2754 18.6146 11.5314 18.4012L11.547 18.3882L11.689 18.2691H11.4707C10.2475 18.2805 9.26212 18.1753 8.54028 17.9489H8.53382L8.54243 17.9458C9.17552 17.7008 9.69995 17.5651 10.183 17.5122C10.6041 17.6298 11.0385 17.6978 11.4766 17.7148C11.1788 17.7002 10.8824 17.6656 10.5896 17.6112L10.4342 17.578L10.3712 17.5604C10.3104 17.5449 10.2507 17.5283 10.1948 17.5086L10.1814 17.5055H10.1765C10.0927 17.4808 10.0104 17.4514 9.93017 17.4174C9.45898 17.4925 8.93939 17.6454 8.3262 17.894L8.17667 17.9557L8.16699 17.9598L8.32835 18.0173C9.04696 18.2763 10.0609 18.41 11.3335 18.4053C11.1183 18.5908 10.9118 18.798 10.7149 18.9964C9.09537 19.0192 7.80338 18.8741 6.87177 18.5737C6.02837 18.3022 5.48726 17.9002 5.25812 17.3708C5.24898 17.3511 5.24037 17.332 5.23284 17.3112C5.22531 17.2905 5.21617 17.2677 5.20918 17.246C5.18409 17.1721 5.16449 17.0966 5.15055 17.0201C5.07739 16.5933 5.18712 16.1643 5.48027 15.7582C5.90412 15.1677 6.7174 14.603 7.90074 14.0777C9.00447 13.5836 10.4659 13.1204 12.1193 12.7309C13.1774 12.4838 14.0342 12.3294 14.4511 12.2647C14.8679 12.1999 15.7334 12.0663 16.8145 11.9647C17.9979 11.8482 19.7277 11.7482 21.2623 11.8896C22.5634 12.0088 23.5251 12.2911 24.1297 12.7185C24.538 13.0096 24.7849 13.3712 24.858 13.7996C24.8773 13.9021 24.8851 14.0063 24.8811 14.1104C24.8629 14.7014 24.4917 15.2702 23.7774 15.8085C23.0034 16.3907 21.826 16.9424 20.2812 17.4366C20.0246 17.3087 19.7497 17.1776 19.4743 17.0616C20.6701 16.6559 21.5812 16.2146 22.1858 15.7468L22.3187 15.6432H22.2912L22.1449 15.6354C21.2929 15.5836 20.6561 15.6266 20.1478 15.7675L20.1338 15.7722L20.1203 15.781C19.7622 16.0154 19.3777 16.21 18.9741 16.3612L18.9096 16.3829C18.7859 16.4316 18.653 16.4803 18.5207 16.5238L18.4378 16.5508L18.4405 16.5363C18.4454 16.5057 18.4502 16.4746 18.454 16.4441C18.478 16.2672 18.4881 16.0888 18.4841 15.9105C18.4847 15.8823 18.4835 15.8541 18.4803 15.8261C18.4766 15.7976 18.4771 15.7696 18.4744 15.7406C18.4717 15.7116 18.4696 15.6831 18.4669 15.6541C18.4642 15.6251 18.4604 15.5966 18.4561 15.5676C18.4508 15.5287 18.4448 15.4899 18.4378 15.451C18.4309 15.4122 18.4212 15.3738 18.4136 15.335C18.4099 15.3153 18.4056 15.2961 18.4013 15.2775C18.3309 14.977 18.2159 14.6879 18.0597 14.4191C18.0063 14.3269 17.9486 14.2376 17.8865 14.1513C17.8677 14.1249 17.8483 14.0995 17.8284 14.0736C17.8085 14.0477 17.7945 14.0291 17.7746 14.0073C17.7547 13.9855 17.737 13.9607 17.7176 13.9379C17.5039 13.6839 17.2521 13.462 16.9705 13.2795C16.748 13.1353 16.5079 13.0181 16.2557 12.9303C15.7326 12.7483 15.1712 12.6922 14.6205 12.7671C14.5663 12.7724 14.5124 12.7805 14.4591 12.7915H14.4451C13.8995 12.8958 13.3885 13.127 12.9568 13.4649C12.7579 13.6173 12.5792 13.7927 12.4249 13.9871L12.412 14.0047C12.3072 14.1359 12.2129 14.2744 12.1296 14.4191C12.1129 14.4481 12.0973 14.4771 12.0817 14.5062C12.0661 14.5352 12.057 14.5523 12.0457 14.5766C12.0344 14.6009 12.0252 14.6155 12.0166 14.6362C11.971 14.7327 11.9306 14.8314 11.8956 14.932C11.8859 14.9589 11.8768 14.9838 11.8676 15.0133C11.8585 15.0428 11.8504 15.0651 11.8423 15.0951L11.824 15.1578C11.8254 15.1617 11.8254 15.1659 11.824 15.1697C11.824 15.1765 11.8197 15.1837 11.8181 15.191C11.8128 15.2091 11.8085 15.2298 11.8041 15.2469C11.8036 15.2491 11.8036 15.2514 11.8041 15.2537V15.2594C11.7998 15.2749 11.7972 15.2889 11.7939 15.3039C11.7907 15.3189 11.788 15.3308 11.7848 15.3428C11.7789 15.3712 11.7735 15.4003 11.7686 15.4287C11.7574 15.4924 11.7477 15.5563 11.7396 15.6204C11.7396 15.6422 11.7348 15.6644 11.7326 15.6862C11.7305 15.708 11.7278 15.7447 11.7256 15.7743C11.7175 15.9052 11.7175 16.0365 11.7256 16.1674C11.7288 16.2193 11.7326 16.2711 11.7385 16.3229C11.7379 16.3344 11.7392 16.3459 11.7423 16.357C11.7477 16.3954 11.753 16.4296 11.759 16.4643C11.7583 16.4717 11.7596 16.4792 11.7627 16.486C11.7622 16.4874 11.7622 16.4888 11.7627 16.4902C11.7631 16.4961 11.764 16.502 11.7654 16.5078C11.7649 16.5091 11.7649 16.5106 11.7654 16.5119C11.7659 16.5191 11.767 16.5262 11.7686 16.5332C11.7686 16.5487 11.7735 16.5637 11.7767 16.5793C11.8061 16.7311 11.8464 16.8809 11.8972 17.0274C11.9638 17.225 12.0504 17.4159 12.1559 17.5972H12.1586C12.1764 17.6278 12.1952 17.6583 12.2124 17.6894L12.2328 17.7205H12.2102L12.0451 17.7282H12.2748L12.3958 17.7236L12.3323 17.6278C12.3254 17.6174 12.3189 17.607 12.3124 17.5956C12.1919 17.4043 12.0941 17.2004 12.0209 16.988C11.9665 16.8326 11.9251 16.6732 11.8972 16.5114C11.8886 16.4544 11.8789 16.4016 11.8741 16.3441C11.8708 16.3135 11.8676 16.2824 11.8649 16.2519C11.8401 15.9837 11.8526 15.7135 11.902 15.4484C11.9889 14.9499 12.2009 14.4794 12.5195 14.0777C12.5636 14.0259 12.6099 13.9705 12.6578 13.9187C12.7749 13.7895 12.9032 13.6701 13.0413 13.5618C13.4557 13.2384 13.9457 13.0171 14.4688 12.9169L14.4823 12.9143L14.5516 12.9029L14.6323 12.8899C15.1618 12.8181 15.7016 12.8727 16.204 13.049C16.7145 13.2269 17.1702 13.5259 17.5289 13.9183C17.8877 14.3107 18.1379 14.7839 18.2566 15.2941C18.2652 15.3459 18.2792 15.3977 18.2883 15.4578C18.3147 15.6034 18.3302 15.7508 18.3346 15.8986C18.3395 16.1298 18.3184 16.3608 18.2716 16.5876C18.2709 16.5974 18.2691 16.6071 18.2663 16.6166L18.2437 16.7311L18.3582 16.6958L18.405 16.6803L18.5546 16.6285C18.6923 16.5845 18.8208 16.5358 18.9488 16.4876L19.0128 16.4653C19.4218 16.3097 19.812 16.1115 20.1763 15.8742C20.6346 15.751 21.2117 15.7064 21.9448 15.7375L21.9395 15.7416C21.3252 16.1856 20.4199 16.6036 19.25 16.9849L19.0715 17.0424L19.2436 17.1082L19.2581 17.1134C19.5912 17.2436 19.9166 17.3914 20.2328 17.5563L20.2602 17.5697H20.2785C21.8502 17.0652 23.0502 16.5062 23.8425 15.9121C24.5923 15.3516 24.9817 14.7491 24.9984 14.1176C25.0028 14.0055 24.9956 13.8932 24.9769 13.7825ZM11.7665 17.5905H11.7622V17.5977H11.7713L11.7665 17.5905ZM11.7251 17.7288H11.7326L11.8111 17.7314H11.8741C11.8203 17.7314 11.7665 17.7282 11.7165 17.7257H11.6546L11.7251 17.7288ZM10.1927 17.3858L10.2056 17.5091C10.2459 17.505 10.283 17.505 10.3266 17.5008C10.4339 17.4926 10.5417 17.4909 10.6493 17.4957C10.5038 17.4695 10.3601 17.4349 10.219 17.3921L10.205 17.3879L10.1927 17.3858ZM10.219 17.39L10.2056 17.3858H10.1927L10.2056 17.5091C10.2459 17.505 10.283 17.505 10.3266 17.5008C10.4339 17.4926 10.5417 17.4909 10.6493 17.4957C10.5037 17.4676 10.36 17.4311 10.219 17.3864V17.39ZM11.7703 17.5899H11.766V17.5972H11.7751L11.7703 17.5899ZM11.7703 17.591H11.766V17.5972H11.7751L11.7703 17.591ZM10.2244 17.3858L10.2109 17.3817H10.198L10.2109 17.505C10.2513 17.5008 10.2884 17.5008 10.3314 17.4962C10.4388 17.4884 10.5466 17.4869 10.6542 17.4915C10.5087 17.4653 10.365 17.4307 10.2239 17.3879L10.2244 17.3858Z"
          fill="#002FA7"/>
    <path d="M10.2179 17.3864L10.2045 17.3822H10.1916L10.2045 17.5055C10.2448 17.5014 10.2819 17.5014 10.325 17.4967C10.4324 17.4889 10.5401 17.4874 10.6477 17.492C10.5024 17.4651 10.3589 17.4298 10.2179 17.3864ZM11.7686 17.5905H11.7643V17.5977H11.7735L11.7686 17.5905ZM24.9769 13.7825C24.8994 13.3163 24.6337 12.9308 24.1986 12.618C23.5757 12.1725 22.5849 11.886 21.2617 11.7622C19.7185 11.6166 17.9806 11.7233 16.7887 11.8373C15.7076 11.9409 14.8373 12.0699 14.4161 12.1414C13.9949 12.2129 13.1408 12.3584 12.0731 12.6076C10.3879 13.0049 8.95821 13.4592 7.83135 13.9622C6.62596 14.4968 5.796 15.0791 5.35333 15.6878C5.03705 16.1245 4.91818 16.5839 5.00048 17.0465C5.01446 17.1266 5.03441 17.2055 5.06018 17.2828C5.06933 17.3092 5.07793 17.3346 5.08761 17.3605C5.09407 17.3765 5.10052 17.3926 5.10752 17.4086C5.34902 17.9785 5.92294 18.4094 6.80991 18.697C7.76304 19.0078 9.08677 19.1513 10.7365 19.1295H10.7639L10.7816 19.1077C11.0194 18.8653 11.2754 18.6146 11.5314 18.4012L11.547 18.3882L11.689 18.2691H11.4707C10.2475 18.2805 9.26212 18.1753 8.54028 17.9489H8.53382L8.54243 17.9458C9.17552 17.7008 9.69995 17.5651 10.183 17.5122C10.6041 17.6298 11.0385 17.6978 11.4766 17.7148C11.1788 17.7002 10.8824 17.6656 10.5896 17.6112L10.4342 17.578L10.3712 17.5604C10.3104 17.5449 10.2507 17.5283 10.1948 17.5086L10.1814 17.5055H10.1765C10.0927 17.4808 10.0104 17.4514 9.93017 17.4174C9.45898 17.4925 8.93939 17.6454 8.3262 17.894L8.17667 17.9557L8.16699 17.9598L8.32835 18.0173C9.04696 18.2763 10.0609 18.41 11.3335 18.4053C11.1183 18.5908 10.9118 18.798 10.7149 18.9964C9.09537 19.0192 7.80338 18.8741 6.87177 18.5737C6.02837 18.3022 5.48726 17.9002 5.25812 17.3708C5.24898 17.3511 5.24037 17.332 5.23284 17.3112C5.22531 17.2905 5.21617 17.2677 5.20918 17.246C5.18409 17.1721 5.16449 17.0966 5.15055 17.0201C5.07739 16.5933 5.18712 16.1643 5.48027 15.7582C5.90412 15.1677 6.7174 14.603 7.90074 14.0777C9.00447 13.5836 10.4659 13.1204 12.1193 12.7309C13.1774 12.4838 14.0342 12.3294 14.4511 12.2647C14.8679 12.1999 15.7334 12.0663 16.8145 11.9647C17.9979 11.8482 19.7277 11.7482 21.2623 11.8896C22.5634 12.0088 23.5251 12.2911 24.1297 12.7185C24.538 13.0096 24.7849 13.3712 24.858 13.7996C24.8773 13.9021 24.8851 14.0063 24.8811 14.1104C24.8629 14.7014 24.4917 15.2702 23.7774 15.8085C23.0034 16.3907 21.826 16.9424 20.2812 17.4366C20.0246 17.3087 19.7497 17.1776 19.4743 17.0616C20.6701 16.6559 21.5812 16.2146 22.1858 15.7468L22.3187 15.6432H22.2912L22.1449 15.6354C21.2929 15.5836 20.6561 15.6266 20.1478 15.7675L20.1338 15.7722L20.1203 15.781C19.7622 16.0154 19.3777 16.21 18.9741 16.3612L18.9096 16.3829C18.7859 16.4316 18.653 16.4803 18.5207 16.5238L18.4378 16.5508L18.4405 16.5363C18.4454 16.5057 18.4502 16.4746 18.454 16.4441C18.478 16.2672 18.4881 16.0888 18.4841 15.9105C18.4847 15.8823 18.4835 15.8541 18.4803 15.8261C18.4766 15.7976 18.4771 15.7696 18.4744 15.7406C18.4717 15.7116 18.4696 15.6831 18.4669 15.6541C18.4642 15.6251 18.4604 15.5966 18.4561 15.5676C18.4508 15.5287 18.4448 15.4899 18.4378 15.451C18.4309 15.4122 18.4212 15.3738 18.4136 15.335C18.4099 15.3153 18.4056 15.2961 18.4013 15.2775C18.3309 14.977 18.2159 14.6879 18.0597 14.4191C18.0063 14.3269 17.9486 14.2376 17.8865 14.1513C17.8677 14.1249 17.8483 14.0995 17.8284 14.0736C17.8085 14.0477 17.7945 14.0291 17.7746 14.0073C17.7547 13.9855 17.737 13.9607 17.7176 13.9379C17.5039 13.6839 17.2521 13.462 16.9705 13.2795C16.748 13.1353 16.5079 13.0181 16.2557 12.9303C15.7326 12.7483 15.1712 12.6922 14.6205 12.7671C14.5663 12.7724 14.5124 12.7805 14.4591 12.7915H14.4451C13.8995 12.8958 13.3885 13.127 12.9568 13.4649C12.7579 13.6173 12.5792 13.7927 12.4249 13.9871L12.412 14.0047C12.3072 14.1359 12.2129 14.2744 12.1296 14.4191C12.1129 14.4481 12.0973 14.4771 12.0817 14.5062C12.0661 14.5352 12.057 14.5523 12.0457 14.5766C12.0344 14.6009 12.0252 14.6155 12.0166 14.6362C11.971 14.7327 11.9306 14.8314 11.8956 14.932C11.8859 14.9589 11.8768 14.9838 11.8676 15.0133C11.8585 15.0428 11.8504 15.0651 11.8423 15.0951L11.824 15.1578C11.8254 15.1617 11.8254 15.1659 11.824 15.1697C11.824 15.1765 11.8197 15.1837 11.8181 15.191C11.8128 15.2091 11.8085 15.2298 11.8041 15.2469C11.8036 15.2491 11.8036 15.2514 11.8041 15.2537V15.2594C11.7998 15.2749 11.7972 15.2889 11.7939 15.3039C11.7907 15.3189 11.788 15.3308 11.7848 15.3428C11.7789 15.3712 11.7735 15.4003 11.7686 15.4287C11.7574 15.4924 11.7477 15.5563 11.7396 15.6204C11.7396 15.6422 11.7348 15.6644 11.7326 15.6862C11.7305 15.708 11.7278 15.7447 11.7256 15.7743C11.7175 15.9052 11.7175 16.0365 11.7256 16.1674C11.7288 16.2193 11.7326 16.2711 11.7385 16.3229C11.7379 16.3344 11.7392 16.3459 11.7423 16.357C11.7477 16.3954 11.753 16.4296 11.759 16.4643C11.7583 16.4717 11.7596 16.4792 11.7627 16.486C11.7622 16.4874 11.7622 16.4888 11.7627 16.4902C11.7631 16.4961 11.764 16.502 11.7654 16.5078C11.7649 16.5091 11.7649 16.5106 11.7654 16.5119C11.7659 16.5191 11.767 16.5262 11.7686 16.5332C11.7686 16.5487 11.7735 16.5637 11.7767 16.5793C11.8061 16.7311 11.8464 16.8809 11.8972 17.0274C11.9638 17.225 12.0504 17.4159 12.1559 17.5972H12.1586C12.1764 17.6278 12.1952 17.6583 12.2124 17.6894L12.2328 17.7205H12.2102L12.0451 17.7282H12.2748L12.3958 17.7236L12.3323 17.6278C12.3254 17.6174 12.3189 17.607 12.3124 17.5956C12.1919 17.4043 12.0941 17.2004 12.0209 16.988C11.9665 16.8326 11.9251 16.6732 11.8972 16.5114C11.8886 16.4544 11.8789 16.4016 11.8741 16.3441C11.8708 16.3135 11.8676 16.2824 11.8649 16.2519C11.8401 15.9837 11.8526 15.7135 11.902 15.4484C11.9889 14.9499 12.2009 14.4794 12.5195 14.0777C12.5636 14.0259 12.6099 13.9705 12.6578 13.9187C12.7749 13.7895 12.9032 13.6701 13.0413 13.5618C13.4557 13.2384 13.9457 13.0171 14.4688 12.9169L14.4823 12.9143L14.5516 12.9029L14.6323 12.8899C15.1618 12.8181 15.7016 12.8727 16.204 13.049C16.7145 13.2269 17.1702 13.5259 17.5289 13.9183C17.8877 14.3107 18.1379 14.7839 18.2566 15.2941C18.2652 15.3459 18.2792 15.3977 18.2883 15.4578C18.3147 15.6034 18.3302 15.7508 18.3346 15.8986C18.3395 16.1298 18.3184 16.3608 18.2716 16.5876C18.2709 16.5974 18.2691 16.6071 18.2663 16.6166L18.2437 16.7311L18.3582 16.6958L18.405 16.6803L18.5546 16.6285C18.6923 16.5845 18.8208 16.5358 18.9488 16.4876L19.0128 16.4653C19.4218 16.3097 19.812 16.1115 20.1763 15.8742C20.6346 15.751 21.2117 15.7064 21.9448 15.7375L21.9395 15.7416C21.3252 16.1856 20.4199 16.6036 19.25 16.9849L19.0715 17.0424L19.2436 17.1082L19.2581 17.1134C19.5912 17.2436 19.9166 17.3914 20.2328 17.5563L20.2602 17.5697H20.2785C21.8502 17.0652 23.0502 16.5062 23.8425 15.9121C24.5923 15.3516 24.9817 14.7491 24.9984 14.1176C25.0028 14.0055 24.9956 13.8932 24.9769 13.7825ZM11.7665 17.5905H11.7622V17.5977H11.7713L11.7665 17.5905ZM11.7251 17.7288H11.7326L11.8111 17.7314H11.8741C11.8203 17.7314 11.7665 17.7282 11.7165 17.7257H11.6546L11.7251 17.7288ZM10.1927 17.3858L10.2056 17.5091C10.2459 17.505 10.283 17.505 10.3266 17.5008C10.4339 17.4926 10.5417 17.4909 10.6493 17.4957C10.5038 17.4695 10.3601 17.4349 10.219 17.3921L10.205 17.3879L10.1927 17.3858ZM10.219 17.39L10.2056 17.3858H10.1927L10.2056 17.5091C10.2459 17.505 10.283 17.505 10.3266 17.5008C10.4339 17.4926 10.5417 17.4909 10.6493 17.4957C10.5037 17.4676 10.36 17.4311 10.219 17.3864V17.39ZM10.2195 17.3858L10.2061 17.3817H10.1932L10.2061 17.505C10.2464 17.5008 10.2836 17.5008 10.3266 17.4962C10.434 17.4884 10.5417 17.4869 10.6493 17.4915C10.5039 17.4653 10.3602 17.4307 10.219 17.3879L10.2195 17.3858Z"
          fill="#002FA7"/>
    <path d="M11.7262 17.5858L11.7019 17.5894H11.6971C11.6132 17.5894 11.5298 17.5832 11.4497 17.5785C11.3468 17.5723 11.2473 17.5646 11.1512 17.5552C10.9898 17.5397 10.8392 17.5195 10.6993 17.4941C10.534 17.4657 10.3709 17.4268 10.2109 17.3775L10.1964 17.3729H10.183C10.0953 17.3822 10.0055 17.3952 9.91403 17.4117C9.45038 17.4894 8.94208 17.6381 8.34234 17.878C7.72162 17.6521 7.33112 17.3237 7.1789 16.903C7.17029 16.8797 7.16276 16.8564 7.15577 16.8326C7.14878 16.8088 7.14501 16.7917 7.14017 16.7715C7.13533 16.7513 7.12941 16.7171 7.12404 16.6912C7.05949 16.3286 7.16061 15.9727 7.42148 15.6328L7.43977 15.6106C7.7937 15.1594 8.43539 14.7263 9.35194 14.3254C9.8475 14.1117 10.3552 13.9251 10.8725 13.7664C11.4368 13.5893 12.0559 13.4224 12.7142 13.2707C13.0069 13.2033 13.2747 13.1438 13.5168 13.0961C13.5286 13.093 13.5404 13.0914 13.5528 13.0888C13.3405 13.1925 13.1406 13.3183 12.9568 13.4639C12.7556 13.6182 12.5749 13.7958 12.4189 13.9928L12.412 14.0047C12.3684 14.0596 12.3264 14.1156 12.2872 14.1731C12.1222 14.4081 11.9905 14.6633 11.8956 14.932C11.8859 14.9589 11.8768 14.9838 11.8676 15.0133C11.8585 15.0428 11.8504 15.0651 11.8423 15.0951C11.8386 15.1071 11.8353 15.119 11.8321 15.1314C11.83 15.1404 11.8273 15.1492 11.824 15.1578V15.1697C11.824 15.1734 11.8197 15.1837 11.8181 15.191C11.8128 15.2091 11.8085 15.2298 11.8041 15.2469C11.8036 15.2491 11.8036 15.2514 11.8041 15.2537V15.2594C11.7998 15.2749 11.7972 15.2889 11.7939 15.3039C11.7907 15.3189 11.788 15.3308 11.7848 15.3428C11.7842 15.3475 11.7831 15.3522 11.7816 15.3567C11.7767 15.3795 11.7724 15.4018 11.7686 15.4241C11.7563 15.4894 11.7471 15.5546 11.7396 15.6204C11.7396 15.6422 11.7348 15.6644 11.7326 15.6862C11.7326 15.7157 11.7278 15.7447 11.7256 15.7743C11.7175 15.9052 11.7175 16.0365 11.7256 16.1674C11.7288 16.2193 11.7331 16.2711 11.7391 16.3229C11.7385 16.3331 11.7396 16.3434 11.7423 16.3534C11.7477 16.3923 11.7536 16.4285 11.7595 16.4648C11.7593 16.4688 11.7593 16.4727 11.7595 16.4767L11.7676 16.5285C11.774 16.5674 11.781 16.6062 11.7902 16.6451C11.7892 16.6488 11.7892 16.6527 11.7902 16.6565C11.795 16.6782 11.7998 16.7 11.8052 16.7207C11.8257 16.8051 11.8488 16.8844 11.8735 16.9605C11.88 16.9813 11.887 16.9994 11.8934 17.0217L11.9203 17.0942C11.9295 17.1191 11.9386 17.1429 11.9488 17.1672C11.9687 17.2154 11.9892 17.2636 12.0107 17.3112C12.0204 17.3314 12.0295 17.3496 12.0397 17.3713C12.05 17.3931 12.0596 17.4102 12.0699 17.4304C12.0973 17.4822 12.1274 17.5387 12.1586 17.5905C12.1764 17.621 12.1952 17.6516 12.2124 17.6827L12.2323 17.7137H12.2097L12.0446 17.721H12.2812L12.4001 17.7163L12.3415 17.6205C12.3345 17.6101 12.328 17.5993 12.3211 17.5884C12.1982 17.3983 12.0979 17.1955 12.022 16.9839C11.9685 16.8283 11.9281 16.669 11.901 16.5073C11.8924 16.4503 11.8832 16.3969 11.8784 16.3399C11.8741 16.3063 11.8703 16.2731 11.8676 16.2395C11.8447 15.9738 11.8583 15.7065 11.908 15.4443C11.9957 14.9466 12.2085 14.4771 12.5276 14.0767C12.562 14.0347 12.597 13.9938 12.6352 13.9534C13.1107 13.4161 13.7619 13.0507 14.4817 12.9174V12.9169L14.4597 12.7936V12.791L14.2209 12.8324C13.868 12.8946 13.3301 12.9972 12.6895 13.1432C11.3475 13.454 10.2115 13.8099 9.30461 14.2067C8.38591 14.6108 7.727 15.0475 7.35586 15.5101L7.33704 15.5324C7.03959 15.9121 6.92502 16.3094 6.99817 16.715C7.00301 16.7419 7.00893 16.7668 7.01538 16.7927C7.02184 16.8186 7.02775 16.8445 7.03475 16.8673C7.04174 16.8901 7.04658 16.9061 7.0525 16.9232C7.20149 17.3605 7.57639 17.7044 8.16699 17.9484L8.17721 17.9531C8.22508 17.9728 8.2751 17.9919 8.32674 18.0106L8.35417 18.0189L8.3773 18.0106L8.53867 17.9458L8.54781 17.9427C9.17713 17.6992 9.69834 17.5609 10.184 17.5081H10.1905C10.2486 17.5257 10.3094 17.5418 10.3718 17.5599C10.311 17.5444 10.2507 17.5278 10.1953 17.5081L10.1814 17.505H10.1771C10.0931 17.4802 10.0106 17.4508 9.93017 17.4169C10.0189 17.4024 10.1055 17.3905 10.1905 17.3817L10.2034 17.505C10.2438 17.5008 10.2814 17.5008 10.3244 17.4967C10.4318 17.4885 10.5396 17.4867 10.6472 17.4915C10.8354 17.5267 11.0253 17.5527 11.2162 17.5692C11.2964 17.5765 11.3776 17.5822 11.4621 17.5873C11.5465 17.5925 11.6277 17.5956 11.7127 17.5982H11.717L11.7321 17.5951H11.7627V17.6019H11.8203C11.895 17.6019 11.9693 17.606 12.0397 17.606H12.1548C12.1538 17.6046 12.1528 17.603 12.1522 17.6013H12.0311C11.9612 17.6013 11.8875 17.5982 11.8133 17.5977H11.7606L11.7262 17.5858ZM11.731 17.735L11.8074 17.7376H11.8741C11.8203 17.7376 11.7665 17.7345 11.7165 17.7324H11.6627L11.731 17.735ZM12.1516 17.6075H12.0306C11.9607 17.6075 11.8875 17.6044 11.8154 17.6039H11.7853L11.7724 17.6008H11.7633V17.6044H11.8203C11.895 17.6044 11.9693 17.6086 12.0403 17.6086H12.1548V17.6044L12.1516 17.6075Z"
          fill="#002FA7"/>
    <path d="M18.2528 16.7378L18.2759 16.6212C18.3266 16.3848 18.3495 16.1436 18.3443 15.9022C18.3403 15.7551 18.325 15.6084 18.2985 15.4635C18.2894 15.406 18.2759 15.3531 18.2668 15.3003C18.0843 14.5148 17.5931 13.8279 16.8963 13.3836C16.6835 13.2472 16.4543 13.1363 16.2137 13.0531C15.7112 12.877 15.1715 12.8225 14.642 12.8946L14.6173 12.7682C14.9287 12.7195 15.579 12.6226 16.4036 12.5475C17.333 12.4589 18.6987 12.3797 19.9262 12.4853H19.9353C20.9611 12.5739 21.7404 12.7811 22.2573 13.1033L22.2805 13.1163C22.6882 13.3753 22.9308 13.7074 22.9996 14.1093C23.01 14.1676 23.0161 14.2264 23.0179 14.2855C23.0362 14.7926 22.7522 15.2873 22.1718 15.7458L22.1487 15.7634H22.1213C21.3064 15.7147 20.669 15.7546 20.1747 15.8913C19.8102 16.1284 19.4201 16.3265 19.0112 16.4824L18.9472 16.5047C18.8187 16.5529 18.6907 16.6016 18.553 16.6456C18.4889 16.6673 18.4249 16.6896 18.3561 16.7119L18.2528 16.7378ZM15.572 12.7615C15.8055 12.7931 16.0349 12.8478 16.2567 12.9246C16.509 13.0124 16.7491 13.1296 16.9716 13.2738C17.4241 13.5644 17.7977 13.9552 18.0613 14.4134C18.2169 14.6825 18.3309 14.972 18.3997 15.2728C18.4131 15.3303 18.4222 15.3894 18.4357 15.4448C18.4624 15.5965 18.4778 15.7499 18.482 15.9038C18.4873 16.1179 18.4718 16.3321 18.4357 16.5435L18.5185 16.5171C18.6514 16.4731 18.7842 16.4244 18.908 16.3757L18.972 16.3539C19.3754 16.2 19.7595 16.0027 20.1171 15.766L20.1306 15.7572L20.1445 15.7525C20.6485 15.6116 21.2741 15.5712 22.1143 15.6199C22.6457 15.193 22.9071 14.7393 22.8883 14.2834C22.8868 14.2286 22.8807 14.1741 22.87 14.1202C22.806 13.7628 22.5908 13.4629 22.2288 13.2246L22.2106 13.2116C21.7157 12.9008 20.9508 12.6936 19.9385 12.6024H19.9294C18.7111 12.4988 17.3502 12.576 16.4208 12.6646C16.1094 12.6967 15.8248 12.7278 15.572 12.7615Z"
          fill="#002FA7"/>
    <path d="M11.7708 17.5941V17.5977H11.7842L11.7708 17.5941ZM12.1532 17.5982H12.0322C11.9623 17.5982 11.8886 17.5951 11.8144 17.5941L11.8214 17.5987C11.8961 17.5987 11.9704 17.6024 12.0408 17.6024H12.1559C12.1548 17.6009 12.1539 17.5994 12.1532 17.5977V17.5982ZM11.7353 17.5889L11.7057 17.5936C11.6213 17.5936 11.5395 17.5873 11.4594 17.5822C11.3668 17.5775 11.2781 17.5713 11.1904 17.5625C11.0151 17.5475 10.8413 17.5236 10.6687 17.492C10.5147 17.4646 10.3627 17.4278 10.2136 17.3817L10.1996 17.3775H10.1953L10.1857 17.3744C9.70802 17.219 9.38368 16.9885 9.2207 16.6798C9.2049 16.6503 9.19072 16.62 9.17821 16.5891C9.17175 16.5736 9.1653 16.5575 9.15938 16.5415C9.13937 16.4866 9.12408 16.4303 9.11366 16.3731C9.07332 16.1612 9.14593 15.9463 9.32881 15.7245C9.48674 15.5425 9.67117 15.3833 9.87638 15.2521C10.15 15.0718 10.4377 14.9123 10.737 14.775C11.237 14.5441 11.7515 14.3435 12.2775 14.1746L12.2877 14.171C12.231 14.2518 12.1787 14.3347 12.1306 14.4196C12.114 14.4486 12.0984 14.4777 12.0828 14.5067C12.0672 14.5357 12.0586 14.5528 12.0467 14.5766C12.0349 14.6004 12.0263 14.6155 12.0177 14.6367C11.9725 14.733 11.9322 14.832 11.8967 14.9325C11.887 14.9594 11.8778 14.9843 11.8687 15.0138C11.8595 15.0433 11.8515 15.0656 11.8434 15.0951C11.8353 15.1247 11.831 15.1371 11.8257 15.1583C11.8262 15.1626 11.8251 15.1668 11.8224 15.1703C11.8224 15.177 11.8181 15.1842 11.8165 15.191C11.8111 15.2096 11.8068 15.2298 11.8025 15.2474C11.802 15.2497 11.802 15.252 11.8025 15.2542V15.2599C11.7982 15.2749 11.7955 15.2894 11.7923 15.3044C11.7891 15.3194 11.7837 15.3407 11.7805 15.3562C11.7773 15.3718 11.7708 15.4008 11.767 15.4236C11.7552 15.4888 11.7455 15.5541 11.738 15.6199C11.738 15.6417 11.7331 15.6634 11.731 15.6857C11.7288 15.708 11.7262 15.7442 11.7245 15.7732C11.7165 15.9042 11.7165 16.0355 11.7245 16.1664C11.7278 16.2182 11.7315 16.27 11.7375 16.3218C11.7369 16.3321 11.738 16.3424 11.7407 16.3524C11.7461 16.3912 11.752 16.4275 11.7579 16.4632C11.7576 16.4674 11.7576 16.4715 11.7579 16.4757L11.766 16.5275C11.7724 16.5665 11.7799 16.6053 11.7885 16.644C11.7876 16.6478 11.7876 16.6517 11.7885 16.6554C11.7939 16.6767 11.7988 16.6984 11.8036 16.7197C11.8246 16.8041 11.8472 16.8834 11.8719 16.9595C11.8784 16.9797 11.8854 16.9984 11.8918 17.0206L11.9187 17.0932C11.9279 17.1175 11.937 17.1418 11.9472 17.1662C11.9671 17.2144 11.9876 17.2625 12.0096 17.3097C12.0188 17.3304 12.0284 17.3485 12.0381 17.3703C12.0478 17.3921 12.058 17.4091 12.0688 17.4293C12.0962 17.4812 12.1258 17.5371 12.157 17.5894C12.1747 17.62 12.1941 17.65 12.2108 17.6811L12.2307 17.7127H12.2081L12.043 17.72H12.2802L12.399 17.7153L12.3453 17.6241C12.3368 17.6116 12.3291 17.5986 12.3221 17.5853C12.2032 17.3952 12.1065 17.1929 12.0338 16.9823C11.9789 16.8272 11.9375 16.668 11.9101 16.5062C11.901 16.4487 11.8918 16.3959 11.887 16.3384C11.8504 16.0402 11.8596 15.7384 11.9144 15.4427C12.0035 14.9448 12.2175 14.4754 12.5378 14.0752L12.6449 13.9529L12.6766 13.9141L12.6637 13.9177L12.4657 13.9788L12.4329 13.9892H12.4281C12.426 13.989 12.424 13.9892 12.422 13.9898C12.4201 13.9904 12.4183 13.9915 12.4168 13.9928C12.0941 14.0964 11.7914 14.2016 11.5089 14.3083C11.2145 14.4202 10.9417 14.5348 10.6907 14.6522C9.99471 14.9744 9.49986 15.3055 9.22984 15.6365C9.0233 15.8882 8.941 16.1436 8.9878 16.3907C8.99846 16.4401 9.01192 16.4889 9.02814 16.5368C9.03836 16.5694 9.05019 16.6021 9.0631 16.6337C9.06902 16.6466 9.0744 16.6601 9.08085 16.6725C9.225 16.9864 9.50631 17.2325 9.92156 17.4066H9.92802L9.93877 17.4112C10.027 17.3967 10.1141 17.3848 10.1991 17.3755L10.212 17.4993C10.2524 17.4946 10.2895 17.4946 10.3325 17.4905C10.4399 17.4825 10.5476 17.4808 10.6552 17.4853C10.8432 17.521 11.0329 17.547 11.2238 17.563C11.3045 17.5708 11.3851 17.5765 11.4701 17.5811C11.5551 17.5858 11.6353 17.5894 11.7202 17.592H11.7245L11.7401 17.5889H11.7703H11.7353ZM12.1645 17.6008C12.1634 17.5994 12.1625 17.5978 12.1618 17.5962H12.0408C11.9709 17.5962 11.8972 17.593 11.8257 17.5925L11.8321 17.5967C11.9069 17.5967 11.9811 17.6008 12.0521 17.6008H12.1645ZM11.7799 17.5946L11.7929 17.592H11.7799V17.5946ZM11.7396 17.7246L11.816 17.7277H11.8778C11.8241 17.7277 11.7703 17.7246 11.7202 17.722H11.6589L11.7396 17.7246ZM12.1489 17.5998H12.0279C11.958 17.5998 11.8843 17.5967 11.8101 17.5962H11.7563V17.5998H11.8203C11.895 17.5998 11.9693 17.6039 12.0397 17.6039H12.1548C12.1539 17.602 12.1534 17.5999 12.1532 17.5977L12.1489 17.5998Z"
          fill="#002FA7"/>
    <path d="M18.2528 16.7378L18.2759 16.6212C18.3266 16.3848 18.3495 16.1436 18.3443 15.9022C18.3403 15.7551 18.325 15.6084 18.2985 15.4635C18.2894 15.406 18.2759 15.3531 18.2668 15.3003C18.0843 14.5148 17.5931 13.8279 16.8963 13.3836L16.7134 13.2645L16.9334 13.2603C17.5557 13.2504 18.1781 13.2764 18.7972 13.338C19.5669 13.4261 20.1419 13.5758 20.5184 13.797C20.8115 13.9643 20.981 14.1762 21.0224 14.4233C21.0357 14.5079 21.0402 14.5936 21.0358 14.6792C21.0127 15.106 20.7287 15.508 20.193 15.8748L20.179 15.8831C19.8767 16.0903 19.4835 16.285 19.0204 16.47L18.9564 16.4922C18.8278 16.5404 18.6998 16.5891 18.5626 16.6331C18.4986 16.6554 18.4341 16.6777 18.3652 16.6995L18.2528 16.7378ZM17.1453 13.3898C17.5203 13.6646 17.8317 14.0117 18.0597 14.4088C18.2157 14.6782 18.3302 14.968 18.3997 15.2692C18.4131 15.3267 18.4222 15.3858 18.4357 15.4412C18.4624 15.5929 18.4778 15.7463 18.482 15.9001C18.4873 16.1143 18.4718 16.3285 18.4357 16.5399L18.5185 16.5135C18.6514 16.4695 18.7842 16.4208 18.908 16.3721L18.972 16.3503C19.3752 16.1975 19.7593 16.0015 20.1171 15.766L20.1306 15.7572C20.6211 15.4174 20.8836 15.0511 20.9003 14.6693C20.9049 14.594 20.9004 14.5183 20.8868 14.444C20.8508 14.2368 20.7034 14.0632 20.4479 13.9115C20.0908 13.7043 19.5335 13.5587 18.7805 13.4706C18.2374 13.4143 17.6915 13.3873 17.1453 13.3898Z"
          fill="#002FA7"/>
    <path d="M12.1532 17.5977L12.0322 17.5977C11.9623 17.5977 11.8886 17.5946 11.8144 17.5941L11.8214 17.5982C11.8961 17.5982 11.9704 17.6019 12.0408 17.6019H12.1559C12.1547 17.6007 12.1538 17.5993 12.1532 17.5977ZM12.3974 17.72L12.3436 17.6288C12.335 17.6164 12.3273 17.6034 12.3205 17.5899C12.2016 17.4 12.105 17.1979 12.0322 16.9875C11.9773 16.8322 11.9359 16.6728 11.9085 16.5109C11.8994 16.4539 11.8902 16.4011 11.8854 16.3436L11.8741 16.2374L11.8617 16.2457L11.7837 16.2944L11.7348 16.3254H11.7321C11.6146 16.4019 11.5048 16.4886 11.404 16.5845C11.2335 16.7487 11.1506 16.9129 11.156 17.0693V17.0916C11.1567 17.129 11.1629 17.1662 11.1743 17.2019C11.1775 17.2139 11.1818 17.2258 11.1856 17.2377C11.2147 17.3175 11.2599 17.3911 11.3184 17.4542C11.3589 17.4986 11.4039 17.5389 11.4529 17.5744L11.4594 17.5785C11.4613 17.5799 11.4631 17.5815 11.4647 17.5832C11.5449 17.5879 11.6288 17.5915 11.7149 17.5941H11.7186L11.7089 17.5894L11.7009 17.5853L11.6917 17.5811L11.6734 17.5682H11.6686L11.6288 17.5454C11.5321 17.4935 11.4475 17.4229 11.3803 17.3382C11.3426 17.289 11.3152 17.2332 11.2996 17.174C11.2996 17.1631 11.2953 17.1501 11.2937 17.1351C11.2921 17.1201 11.2883 17.1009 11.2856 17.0833C11.2716 16.9595 11.3453 16.8243 11.4922 16.6772C11.5728 16.5986 11.6604 16.527 11.7541 16.4632V16.513C11.7549 16.5187 11.756 16.5244 11.7574 16.5301C11.7638 16.5691 11.7713 16.6079 11.7799 16.6466C11.779 16.6504 11.779 16.6543 11.7799 16.658C11.7853 16.6798 11.7902 16.7015 11.795 16.7222C11.816 16.8067 11.8386 16.8859 11.8633 16.9621C11.8698 16.9828 11.8768 17.0009 11.8838 17.0232L11.9101 17.0963C11.9193 17.1206 11.9284 17.1444 11.9386 17.1688C11.9585 17.217 11.979 17.2651 12.001 17.3128C12.0107 17.333 12.0198 17.3511 12.0295 17.3729C12.0392 17.3946 12.0494 17.4117 12.0602 17.4319C12.0876 17.4837 12.1172 17.5402 12.1484 17.592C12.1661 17.6226 12.1855 17.6531 12.2022 17.6842L12.2221 17.7153H12.1995L12.0344 17.7226H12.2716L12.3904 17.7179L12.3974 17.72ZM12.1559 17.6034C12.1547 17.6022 12.1538 17.6008 12.1532 17.5993H12.0322C11.9623 17.5993 11.8886 17.5962 11.8144 17.5956L11.8214 17.5998C11.8961 17.5998 11.9704 17.6034 12.0408 17.6034H12.1559ZM12.1532 17.5993H12.0322C11.9623 17.5993 11.8886 17.5962 11.8144 17.5956H11.7837L11.7708 17.5982H11.8203C11.895 17.5982 11.9693 17.6019 12.0403 17.6019H12.1548C12.1546 17.6005 12.1546 17.5991 12.1548 17.5977L12.1532 17.5993Z"
          fill="#002FA7"/>
    <path d="M18.2528 16.7378L18.2759 16.6212C18.3266 16.3848 18.3495 16.1436 18.3443 15.9022C18.3403 15.7551 18.325 15.6084 18.2985 15.4635C18.2894 15.406 18.2759 15.3531 18.2668 15.3003L18.2437 15.1962L18.3539 15.2226C18.5018 15.2561 18.6459 15.3035 18.7842 15.364C19.0317 15.4743 19.178 15.6158 19.2194 15.7784C19.2242 15.8007 19.2285 15.823 19.2328 15.8494C19.2651 16.0654 19.1828 16.2762 18.9811 16.4803L18.972 16.4886L18.958 16.4933C18.83 16.542 18.702 16.5907 18.5643 16.6347C18.5002 16.6565 18.4357 16.6787 18.3674 16.7005L18.2528 16.7378ZM18.4223 15.3749L18.4357 15.4407C18.4624 15.5924 18.4779 15.7458 18.482 15.8996C18.4873 16.1138 18.4718 16.328 18.4357 16.5394L18.5185 16.513C18.6465 16.4689 18.7703 16.4244 18.895 16.3762C19.0564 16.2042 19.1247 16.0322 19.1016 15.8644C19.0968 15.8468 19.0968 15.8292 19.0925 15.8069C19.0602 15.6836 18.9365 15.5743 18.7294 15.4805C18.6301 15.4375 18.5274 15.4022 18.4223 15.3749Z"
          fill="#002FA7"/>
    <path d="M21.1068 17.9733C20.9003 17.8894 20.6528 17.7661 20.392 17.6376L20.2408 17.563L20.3048 17.4464L20.456 17.5216C20.7174 17.6495 20.96 17.7733 21.1617 17.8526L21.1068 17.9733Z"
          fill="#002FA7"/>
    <path d="M19.0376 16.4601L18.9504 16.3565C19.2891 16.0904 19.6779 15.8899 20.0956 15.766C20.1091 15.7623 20.1224 15.7578 20.1354 15.7525L20.1677 15.8805C20.1585 15.8846 20.1445 15.8846 20.1354 15.8893C19.735 16.0104 19.3624 16.2042 19.0376 16.4601Z"
          fill="#002FA7"/>
    <path d="M25.1791 16.0587C24.7757 16.0364 24.3185 15.9835 23.8086 15.9172L23.7683 15.9131C23.2304 15.8515 22.678 15.7851 22.1331 15.7499L22.1406 15.6183C22.6903 15.6494 23.2444 15.7157 23.7849 15.782L23.8253 15.7862C24.3336 15.8478 24.787 15.9027 25.1904 15.9229L25.1791 16.0587Z"
          fill="#002FA7"/>
    <path d="M18.5917 16.6145L18.4841 16.5368C18.7175 16.2457 18.9193 16.0188 19.1113 15.8116C19.6976 15.1987 20.2753 14.8196 20.9299 14.6165L20.9438 14.6118C21.5969 14.4197 22.2671 14.2867 22.9458 14.2145C23.6101 14.1373 24.2879 14.0871 24.936 14.043L25.0049 14.0384C25.6691 13.9923 26.2909 13.9482 26.8874 13.8731L26.9057 14.0057C26.3054 14.0803 25.6783 14.1249 25.014 14.1689L24.9451 14.1731C24.2948 14.2176 23.6214 14.2658 22.955 14.345C22.1761 14.4378 21.5258 14.5662 20.9761 14.7377L20.9627 14.7424C20.3371 14.9371 19.7809 15.3086 19.2054 15.9043C19.022 16.098 18.8257 16.3275 18.5917 16.6145Z"
          fill="#002FA7"/>
    <path d="M18.468 15.9395L18.3523 15.8696C18.476 15.6841 18.5863 15.5251 18.6912 15.3842C19.2431 14.6465 19.7863 14.1482 20.4183 13.813L20.4275 13.8089C20.4357 13.8052 20.4434 13.8007 20.4506 13.7954C20.9315 13.5395 21.5129 13.3142 22.2186 13.0966H22.2229C22.8232 12.9158 23.4229 12.7703 24.1426 12.5983L24.183 12.5895C24.7746 12.4486 25.3324 12.3175 25.8638 12.1626L25.9042 12.2859C25.3733 12.4413 24.8096 12.577 24.2185 12.7185L24.1781 12.7273C23.4611 12.9018 22.8609 13.0453 22.2611 13.2261H22.2552C21.5592 13.438 20.9863 13.6628 20.5098 13.9146C20.5006 13.9192 20.4963 13.9234 20.4915 13.9234L20.4829 13.9275C19.8735 14.2544 19.3372 14.7393 18.8015 15.4629C18.7019 15.5997 18.5917 15.7587 18.468 15.9395Z"
          fill="#002FA7"/>
    <path d="M18.0597 14.4709L17.9408 14.4046C18.1433 14.0534 18.3878 13.7262 18.6691 13.4297C18.6923 13.4074 18.7149 13.381 18.738 13.3592C19.0863 13.0258 19.4736 12.7325 19.8923 12.4853L19.9057 12.4771C20.3231 12.2206 20.7717 11.9917 21.2295 11.758L21.2983 11.7223C21.6694 11.5327 22.0239 11.3561 22.3461 11.1753L22.4166 11.2913C22.0868 11.4762 21.734 11.6539 21.3629 11.8425L21.2945 11.8782C20.8314 12.1108 20.3828 12.3408 19.9649 12.5972L19.9509 12.6055C19.5438 12.8432 19.1678 13.1273 18.831 13.4515L18.7627 13.5172C18.4962 13.8119 18.2607 14.1314 18.0597 14.4709Z"
          fill="#002FA7"/>
    <path d="M16.2971 13.0101L16.1691 12.9614C16.2196 12.8423 16.2793 12.7231 16.3519 12.5734C16.4757 12.331 16.6134 12.088 16.7419 11.8632L16.7871 11.7881C16.9022 11.5855 17.0254 11.3778 17.1308 11.1747L17.2529 11.2328C17.1453 11.4358 17.0232 11.6472 16.9092 11.8508L16.8635 11.9259C16.7349 12.1507 16.5978 12.389 16.474 12.6319C16.402 12.7765 16.3428 12.8956 16.2971 13.0101Z"
          fill="#002FA7"/>
    <path d="M12.9525 13.5571C12.8611 13.4535 12.7605 13.3587 12.6502 13.2525C12.4625 13.0717 12.2656 12.9034 12.0457 12.7148L11.9854 12.663C11.7929 12.4962 11.6089 12.3413 11.4357 12.1782L11.5331 12.088C11.7025 12.2471 11.8854 12.4056 12.0779 12.5687L12.1376 12.6174C12.3576 12.807 12.5545 12.9801 12.7471 13.1603C12.8546 13.2639 12.9574 13.3675 13.0536 13.4711L12.9525 13.5571Z"
          fill="#002FA7"/>
    <path d="M20.1763 15.8779C19.812 16.1151 19.4218 16.3133 19.0128 16.4689L18.9488 16.4912C18.8208 16.5394 18.6923 16.5881 18.5546 16.6321L18.405 16.6839L18.3582 16.6995L18.2437 16.7347L18.2663 16.6202C18.2686 16.6106 18.2704 16.6009 18.2716 16.5912C18.1307 16.6363 17.978 16.6813 17.8128 16.7305C17.5197 16.8139 17.2034 16.8932 16.8554 16.973C16.5074 17.0527 16.1454 17.1284 15.77 17.1931C15.6003 17.2242 15.4492 17.2501 15.3165 17.2708C15.1885 17.2884 15.0325 17.3154 14.8582 17.3413C14.4645 17.4034 14.1117 17.4516 13.7776 17.4869C13.4199 17.5257 13.0811 17.5578 12.7605 17.5754C12.6142 17.5832 12.4641 17.5873 12.3205 17.591H12.3044C12.3108 17.6024 12.3178 17.6127 12.3248 17.6231L12.3877 17.7189H12.3969C12.4824 17.7189 12.5674 17.7132 12.6513 17.7096L12.7788 17.7029C13.1015 17.6853 13.4431 17.6542 13.8008 17.6148C14.1353 17.5796 14.4876 17.5309 14.8862 17.4687C14.9599 17.4599 15.0304 17.4496 15.0976 17.4392L15.2132 17.4205L15.2536 17.4133L15.3434 17.3988C15.4763 17.3765 15.6317 17.3501 15.8011 17.319C16.1681 17.2547 16.5333 17.1813 16.8963 17.0989C17.0512 17.0643 17.1998 17.0284 17.3422 16.9911H17.3502C17.5283 16.9455 17.6983 16.8989 17.8629 16.8528C18.0409 16.8046 18.2066 16.7518 18.362 16.7031C18.3755 16.6984 18.3894 16.6943 18.4023 16.6891C18.4561 16.672 18.5072 16.6544 18.5583 16.6373C18.696 16.5933 18.824 16.5446 18.9521 16.4959L19.0166 16.4741C19.4255 16.3183 19.8156 16.1201 20.18 15.8831C20.6356 15.7598 21.2096 15.7157 21.9384 15.7458L21.9438 15.7422C21.2139 15.71 20.6346 15.7546 20.1763 15.8779ZM11.7353 17.5873L11.7057 17.592C11.6213 17.592 11.5395 17.5858 11.4594 17.5806C11.3668 17.576 11.2781 17.5697 11.1904 17.5609C11.0151 17.5459 10.8413 17.5221 10.6687 17.4905C10.5147 17.4631 10.3627 17.4262 10.2136 17.3801L10.1996 17.376H10.1857C10.1001 17.3853 10.0135 17.3962 9.92425 17.4112C9.4536 17.4869 8.93508 17.6386 8.3219 17.8873L8.17183 17.9489L8.16161 17.9536L8.17183 17.9577L8.31975 18.0095C9.07601 18.281 10.1485 18.4151 11.5078 18.3975H11.5336C11.9295 18.3924 12.356 18.3753 12.7955 18.3457L12.8735 18.3416C12.9004 18.3374 12.9326 18.3374 12.9649 18.3328L13.0015 18.3281C13.1849 18.3152 13.364 18.3017 13.5394 18.2841C13.6469 18.2758 13.7459 18.2623 13.8416 18.2535L14.0385 18.2312C14.1256 18.2224 14.2128 18.209 14.2956 18.2002L14.3182 18.196C14.5929 18.1649 14.8586 18.1295 15.1153 18.0898C15.2525 18.0727 15.3676 18.0546 15.4634 18.038C15.5591 18.0214 15.6785 18.0023 15.7931 17.9759C16.062 17.9277 16.331 17.8723 16.5951 17.8168C16.6865 17.7997 16.7779 17.7816 16.8742 17.7598L17.0619 17.7158C17.1491 17.6935 17.2362 17.677 17.3277 17.6542C17.4928 17.6184 17.6622 17.5744 17.836 17.5304L17.9435 17.5039C17.9839 17.4951 18.0215 17.4822 18.0624 17.4729L18.0769 17.4682C18.4916 17.3553 18.8929 17.2382 19.2683 17.117L19.2855 17.1113H19.2904C20.5749 16.6917 21.542 16.2306 22.1707 15.7328L22.2945 15.6349L22.3031 15.6272L22.1288 15.6183C21.2773 15.5665 20.6405 15.6095 20.1316 15.751L20.1182 15.7551L20.1047 15.7639C19.7469 15.9991 19.3626 16.1944 18.9591 16.3462L18.895 16.3684C18.7713 16.4166 18.639 16.4653 18.5062 16.5093L18.4443 16.5306L18.3157 16.5741L18.2797 16.5865C18.1388 16.6316 17.986 16.6767 17.8209 16.7259C17.5278 16.8093 17.2115 16.8885 16.8635 16.9683C16.5155 17.0481 16.1535 17.1237 15.778 17.1885C15.6084 17.2196 15.4573 17.2455 15.3246 17.2662C15.1966 17.2838 15.0406 17.3107 14.8663 17.3366C14.4726 17.3988 14.1197 17.447 13.7857 17.4822C13.428 17.521 13.0891 17.5532 12.7686 17.5708C12.6223 17.5785 12.4722 17.5827 12.3286 17.5863H12.2748C12.2377 17.5863 12.2011 17.5894 12.1672 17.5905H12.044C11.9741 17.5905 11.901 17.5873 11.8289 17.5863H11.7751V17.5956H11.8203C11.8945 17.5956 11.9687 17.5998 12.0397 17.5998H12.1543L12.1516 17.5951H12.1543C12.1721 17.6262 12.1914 17.6562 12.2081 17.6873L12.228 17.7189H12.3953C12.4808 17.7163 12.5658 17.7127 12.6497 17.7091L12.7772 17.7023C13.0999 17.6847 13.4409 17.6542 13.7992 17.6143C14.1332 17.5791 14.4876 17.5324 14.8862 17.4703C14.9599 17.4615 15.0304 17.4511 15.0971 17.4407L15.2127 17.4221L15.253 17.4148L15.3429 17.4003C15.4763 17.3781 15.6317 17.3516 15.8011 17.3206C16.1681 17.2565 16.5333 17.183 16.8963 17.1004C17.0512 17.0659 17.1998 17.03 17.3422 16.9927H17.3497C17.5283 16.9476 17.6983 16.901 17.8623 16.8549C18.0409 16.8062 18.206 16.7513 18.362 16.7046C18.3755 16.7 18.3889 16.6958 18.4018 16.6906C18.4556 16.6736 18.5094 16.6565 18.5583 16.6388C18.696 16.5948 18.824 16.5461 18.9521 16.4974L19.0166 16.4757C19.4256 16.3199 19.8157 16.1217 20.18 15.8846C20.6356 15.7613 21.2096 15.7173 21.9384 15.7473H21.9481C21.3343 16.1928 20.4318 16.6078 19.2587 16.9906H19.2544L19.0731 17.0491C18.7466 17.1527 18.4045 17.2506 18.0511 17.3439L18.0371 17.348C17.9968 17.3573 17.9597 17.3703 17.9161 17.3791L17.7881 17.4102C17.6235 17.4542 17.4584 17.4936 17.304 17.5293C17.2126 17.5511 17.126 17.5682 17.0388 17.591L16.8511 17.635C16.7548 17.6526 16.6628 17.6739 16.5714 17.6925C16.3057 17.7443 16.04 17.7987 15.7743 17.8479C15.6457 17.8697 15.5327 17.8868 15.4305 17.9049C15.3284 17.923 15.2202 17.9401 15.0874 17.9567C14.8324 17.9935 14.5635 18.0328 14.2945 18.0639L14.272 18.0681C14.1913 18.0815 14.1025 18.0903 14.0154 18.0992L13.8185 18.1209C13.7222 18.1344 13.6217 18.1432 13.5205 18.152C13.3468 18.1655 13.1682 18.1831 12.9891 18.196L12.9574 18.2007C12.9251 18.2048 12.8977 18.2048 12.8659 18.2095L12.7874 18.2136C12.3904 18.2411 12.0069 18.2582 11.6444 18.2654L11.5051 18.268H11.4733C10.2524 18.2794 9.26803 18.1743 8.54727 17.9489H8.53705C9.16906 17.7039 9.68866 17.5666 10.1814 17.5138H10.1765C10.0928 17.4888 10.0105 17.4594 9.93017 17.4257C10.0189 17.4112 10.1055 17.3993 10.1905 17.39L10.2034 17.5138C10.2438 17.5091 10.2809 17.5091 10.3244 17.505C10.4318 17.497 10.5396 17.4953 10.6472 17.4998C10.8351 17.5355 11.0249 17.5615 11.2157 17.5775C11.2964 17.5848 11.3771 17.591 11.4621 17.5956C11.547 17.6003 11.6272 17.6039 11.7122 17.6065H11.7127L11.7283 17.6034H11.759"
          fill="#002FA7"/>
    <path d="M11.7896 15.4852C11.4838 15.2294 11.1487 15.008 10.7908 14.8253L10.6832 14.7734C10.2453 14.577 9.78572 14.4289 9.31322 14.3321C8.8458 14.2285 8.35579 14.1554 7.85609 14.0809L7.77595 14.0674C7.35586 14.0047 6.96267 13.9472 6.58239 13.8768L6.61036 13.7488C6.9901 13.8193 7.38437 13.8768 7.7937 13.9384L7.87438 13.9519C8.37838 14.027 8.86839 14.0969 9.34065 14.2031C9.82289 14.3021 10.292 14.4531 10.7391 14.6533L10.8494 14.7051C11.2182 14.8918 11.5626 15.12 11.8757 15.3847L11.7896 15.4852Z"
          fill="#002FA7"/>
    <path d="M11.9176 17.0543C11.7342 16.9175 11.5653 16.7953 11.4002 16.6839C10.6536 16.1804 9.99148 15.881 9.30676 15.7484L9.26104 15.7396C8.73714 15.6427 8.13149 15.6075 7.3919 15.636H7.3876C6.72331 15.6577 6.0316 15.724 5.42218 15.7815H5.40819C4.77672 15.8411 4.18236 15.8986 3.62673 15.9214L3.62188 15.7893C4.1716 15.7675 4.76757 15.7116 5.3969 15.6484H5.41034C6.01815 15.5899 6.7104 15.5235 7.37845 15.5018H7.38329C8.12988 15.4749 8.75382 15.5101 9.28417 15.6121L9.33043 15.6204C10.0297 15.7577 10.7139 16.0618 11.4739 16.5777C11.639 16.6943 11.8128 16.8108 11.9978 16.9528L11.9176 17.0543Z"
          fill="#002FA7"/>
    <path d="M12.0828 17.6024H12.0424C11.9714 17.6024 11.8972 17.5993 11.8224 17.5987L11.816 17.5941C11.6584 17.4982 11.5148 17.4164 11.3787 17.3434C11.3179 17.3107 11.2577 17.2791 11.2001 17.2496L11.184 17.2418C10.4767 16.8792 9.8511 16.702 9.21801 16.6793H9.07171C8.53382 16.6793 7.91257 16.7549 7.17782 16.9041L7.10897 16.9175L7.05519 16.9295C6.43555 17.0569 5.8116 17.2237 5.25167 17.3739L5.17636 17.3936L5.10913 17.4107C4.45829 17.5873 3.84457 17.7505 3.27172 17.865L3.24106 17.7345C3.80476 17.62 4.41687 17.4584 5.05964 17.2827L5.06879 17.2802L5.1371 17.2625L5.20057 17.2455C5.76212 17.0957 6.39305 16.9289 7.01377 16.7948L7.07455 16.7813L7.13748 16.7689C7.86524 16.6186 8.48219 16.543 9.02007 16.5394H9.15508C9.80645 16.5529 10.446 16.7222 11.1517 17.0719L11.2593 17.1237L11.2899 17.1398C11.5223 17.2594 11.7767 17.4076 12.0769 17.5956L12.0828 17.6024Z"
          fill="#002FA7"/>
    <path d="M11.7487 17.5925H11.731L11.7159 17.5956H11.7127C11.6277 17.593 11.5444 17.5894 11.4621 17.5848C11.3798 17.5801 11.2958 17.5739 11.2162 17.5666L11.1888 17.5604C11.1767 17.5573 11.1645 17.5547 11.1522 17.5526C11.0036 17.5206 10.8525 17.5002 10.7004 17.4915H10.6488C10.5412 17.487 10.4334 17.4887 10.326 17.4967C10.2857 17.5008 10.2486 17.5008 10.205 17.5055L10.1921 17.3817V17.3718C10.2332 17.367 10.2745 17.3643 10.3158 17.3636C10.6526 17.3412 10.9908 17.3729 11.3168 17.4573C11.4187 17.4832 11.5221 17.5134 11.6272 17.548L11.667 17.562H11.6767L11.6901 17.5708L11.7278 17.5848L11.7369 17.5879C11.7409 17.5894 11.745 17.5905 11.7493 17.591L11.7487 17.5925Z"
          fill="#002FA7"/>
    <path d="M5.61044 19.2528L5.55934 19.1331C5.9536 18.9741 6.36616 18.7798 6.80131 18.5726L6.83358 18.5592C7.31767 18.3302 7.8179 18.0929 8.3219 17.8888L8.37246 18.008C7.8733 18.211 7.37361 18.4447 6.89275 18.6742L6.86101 18.6918C6.42102 18.8995 6.01116 19.0938 5.61044 19.2528Z"
          fill="#002FA7"/>
    <path d="M15.572 18.6788C15.508 18.6881 15.4392 18.7011 15.366 18.7099C15.2283 18.7317 15.0729 18.7539 14.9029 18.7804L14.8625 18.785L14.6517 18.8114C14.5785 18.8202 14.5011 18.8337 14.4188 18.842H14.4021C14.2789 18.8601 14.1461 18.8731 14.0127 18.8938H13.9992L13.8298 18.9109C12.804 19.0285 11.7726 19.0963 10.7397 19.114L10.5783 19.1181L10.6859 19.0021C10.931 18.7469 11.1893 18.5038 11.4599 18.2737L11.4782 18.2561H11.5008C11.9542 18.2515 12.4448 18.2297 12.9531 18.1898L12.9902 18.1857C13.1731 18.1727 13.3527 18.1546 13.5216 18.1416C13.6292 18.1323 13.7325 18.1194 13.833 18.1105L14.0165 18.0888C14.1036 18.0795 14.1854 18.0707 14.2633 18.0577L14.2913 18.0536C14.5662 18.0225 14.8292 17.9826 15.0836 17.9474C15.2167 17.9298 15.3312 17.9125 15.4273 17.8956C15.5279 17.878 15.6425 17.8603 15.7705 17.8381C16.0362 17.7899 16.3019 17.7345 16.5676 17.6827C16.6591 17.6645 16.751 17.6438 16.8468 17.6252L17.0533 17.5765C17.1356 17.5589 17.2179 17.5412 17.3008 17.519C17.4562 17.4837 17.6165 17.4444 17.7811 17.3998L17.9096 17.3693C18.3771 17.246 18.824 17.1175 19.2425 16.9813L19.2705 16.9766L19.2882 16.9813C19.6305 17.1163 19.9654 17.2678 20.2919 17.435L20.4382 17.506L20.2844 17.5578C19.2947 17.8693 18.2894 18.1327 17.2723 18.3473L16.9979 18.4048C16.8968 18.4271 16.8005 18.4436 16.7091 18.4623L16.622 18.4799L16.4757 18.5063C16.4251 18.5151 16.3681 18.5281 16.3197 18.5374L16.2331 18.5545C16.0631 18.5856 15.9103 18.612 15.77 18.6384C15.7056 18.6583 15.6392 18.6718 15.572 18.6788ZM13.9869 18.7674H14.0052C14.1337 18.7539 14.2617 18.7363 14.3854 18.7187L14.4021 18.7187C14.4796 18.7099 14.5581 18.6964 14.6307 18.6881C14.7033 18.6799 14.7776 18.67 14.8416 18.6612L14.8781 18.6571C15.0481 18.6308 15.2009 18.6087 15.3364 18.5908C15.4044 18.5767 15.4732 18.5664 15.5424 18.5597C15.607 18.5509 15.6753 18.5379 15.7441 18.5244C15.8813 18.5027 16.0367 18.4726 16.2067 18.4405L16.2933 18.4234C16.3439 18.4146 16.3944 18.4053 16.4493 18.3924L16.5913 18.3659L16.6784 18.3478C16.7699 18.3307 16.8662 18.309 16.9667 18.2908L17.2357 18.2333C18.2577 18.0126 19.2151 17.7671 20.0805 17.4962C19.8148 17.3636 19.5357 17.2372 19.2608 17.1299C18.8488 17.2625 18.404 17.3946 17.9414 17.5138L17.8338 17.5402C17.6595 17.5848 17.4906 17.6288 17.3255 17.664C17.2432 17.6816 17.1604 17.7023 17.0781 17.721L16.8672 17.7697C16.7709 17.792 16.6795 17.8085 16.5881 17.8272C16.3224 17.8847 16.0502 17.9375 15.7861 17.9857C15.6581 18.008 15.5446 18.0303 15.4429 18.0432C15.3413 18.0562 15.2321 18.0784 15.0949 18.095C14.8378 18.1351 14.5721 18.1705 14.2978 18.2012L14.2703 18.2059C14.1875 18.2142 14.1052 18.223 14.0181 18.2364L13.8352 18.2587C13.7341 18.2675 13.6286 18.2805 13.5189 18.2898C13.3452 18.3069 13.1661 18.3203 12.981 18.3333L12.9445 18.338C12.4399 18.3732 11.9596 18.3949 11.5105 18.4043C11.2953 18.5851 11.0802 18.7923 10.8785 18.9953C11.7805 18.9777 12.761 18.9067 13.7916 18.7923L13.9842 18.7658L13.9869 18.7674Z"
          fill="#002FA7"/>
    <path d="M10.1082 19.7687L10.0168 19.6714C10.1819 19.5304 10.3739 19.332 10.5756 19.1248L10.6902 19.0057L10.7908 19.0984L10.6767 19.2145C10.4702 19.4248 10.2782 19.6227 10.1082 19.7687Z"
          fill="#002FA7"/>
    <path d="M18.4051 16.5673L19.3059 16.9925L19.2455 17.1111L18.3447 16.6859L18.4051 16.5673Z" fill="#002FA7"/>
    <path d="M12.2151 17.7226L12.2102 17.7272C12.1651 17.7692 11.8579 18.0577 11.646 18.2618L11.6396 18.2685L11.5659 18.3395L11.4658 18.2727L11.475 18.2644L11.4841 18.2551C11.4841 18.2551 11.9343 17.7889 12.0424 17.7303L12.2081 17.7226H12.2151Z"
          fill="#002FA7"/>
    <path d="M12.2705 17.7215H12.2081L12.0424 17.7288H11.8741C11.8203 17.7288 11.7665 17.7257 11.717 17.7236H11.5395C11.532 17.7241 11.5244 17.7241 11.5169 17.7236H11.4803C11.1826 17.7088 10.8862 17.6742 10.5934 17.62C10.5396 17.6096 10.489 17.5982 10.4379 17.5868L10.375 17.5609C10.3142 17.5454 10.2545 17.5288 10.1986 17.5091L10.1851 17.506H10.1803C10.0965 17.4813 10.0142 17.4519 9.93393 17.418C10.0227 17.4034 10.1093 17.3915 10.1943 17.3827L10.2072 17.506C10.2475 17.5019 10.2846 17.5019 10.3282 17.4977C10.4356 17.4895 10.5433 17.4878 10.6509 17.4925C10.8389 17.5278 11.0287 17.5537 11.2195 17.5703C11.3002 17.5775 11.3808 17.5832 11.4658 17.5884C11.5508 17.5936 11.6309 17.5967 11.7159 17.5993H11.7202L11.7358 17.5962H11.7665V17.6013H11.8262C11.9004 17.6013 11.9747 17.6055 12.0457 17.6055H12.1602L12.1575 17.6008H12.1602C12.178 17.6319 12.1973 17.6619 12.214 17.693L12.2339 17.7246L12.2705 17.7215Z"
          fill="#002FA7"/>
    <path d="M18.4518 16.4394C18.447 16.4705 18.4422 16.5021 18.4362 16.5332C18.4292 16.572 18.4206 16.6129 18.4115 16.6528L18.405 16.6808V16.6896L18.3685 16.7015C18.1893 16.759 18.014 16.8098 17.8666 16.8528C17.7053 16.8984 17.5358 16.9434 17.3529 16.9885H17.3449C17.205 17.0237 17.0571 17.0584 16.9017 17.0921C16.5085 17.1833 16.1438 17.2527 15.8087 17.3133C15.6672 17.3392 15.5209 17.3651 15.3493 17.3931L15.2568 17.4091L15.2165 17.4159L15.1008 17.4345C15.0352 17.4444 14.9637 17.4542 14.8894 17.4641C14.5022 17.5247 14.1455 17.5723 13.8018 17.6096C13.449 17.6485 13.1026 17.6775 12.7766 17.6982L12.6562 17.7049C12.5722 17.7091 12.4873 17.7122 12.4017 17.7148H12.2323L12.2119 17.6832C12.193 17.6521 12.1742 17.6221 12.1581 17.5915C12.1263 17.5397 12.0968 17.4848 12.0693 17.4314C12.0586 17.4117 12.0489 17.3926 12.0392 17.3724C12.0295 17.3522 12.0198 17.3335 12.0102 17.3118C11.987 17.2636 11.9666 17.2159 11.9478 17.1683C11.9381 17.1439 11.9284 17.1196 11.9193 17.0952C11.9101 17.0709 11.901 17.0434 11.8918 17.0175L11.8725 16.9626C11.8483 16.8849 11.8251 16.8072 11.8047 16.7228C11.7993 16.702 11.7945 16.6803 11.7891 16.6585C11.7902 16.6548 11.7902 16.6509 11.7891 16.6471C11.7842 16.6249 11.7794 16.6031 11.7746 16.5798C11.7697 16.5565 11.767 16.543 11.7638 16.5238L11.7541 16.4658L11.7358 16.3493C11.7358 16.341 11.7358 16.3327 11.7331 16.3244C11.6981 16.0212 11.7084 15.7147 11.7638 15.4142C11.8441 14.9686 12.0208 14.5441 12.2823 14.1684C12.3227 14.1078 12.3678 14.0493 12.4136 13.9912C12.5726 13.794 12.7529 13.6136 12.9514 13.453C13.3245 13.1601 13.7577 12.9463 14.2225 12.8257C14.294 12.807 14.3661 12.791 14.4376 12.7775L14.6044 12.7501C15.1854 12.6683 15.7786 12.7341 16.3251 12.941C16.8716 13.1479 17.3526 13.4887 17.7203 13.9296C17.7397 13.9524 17.7601 13.9757 17.7773 13.999C17.7945 14.0223 17.8123 14.0436 17.8311 14.0653C17.8499 14.0871 17.8715 14.1171 17.8892 14.143C17.9462 14.2238 18 14.3069 18.0506 14.3922C18.2053 14.661 18.3201 14.9494 18.3916 15.249C18.4002 15.2759 18.4088 15.3008 18.4153 15.3288C18.4249 15.3645 18.433 15.4003 18.4389 15.4365V15.4433C18.4454 15.4821 18.4518 15.521 18.4567 15.5598C18.4615 15.5883 18.4647 15.6173 18.468 15.6463C18.4712 15.6753 18.4728 15.7038 18.4755 15.7328C18.4782 15.7618 18.4793 15.7888 18.4809 15.8183C18.4825 15.8478 18.4836 15.8701 18.4846 15.8955V15.9022C18.4905 16.0819 18.4796 16.2617 18.4518 16.4394Z"
          fill="#002FA7"/>
</svg>
