<svg width="30" height="30" viewBox="0 0 30 30" fill="none" xmlns="http://www.w3.org/2000/svg">
    <path fill-rule="evenodd" clip-rule="evenodd"
          d="M27 15.0002C27 21.6277 21.6277 27 15.0002 27C8.37271 27 3 21.6277 3 15.0002C3 8.37271 8.37271 3 15.0002 3C21.6277 3 27 8.37271 27 15.0002ZM3.75007 15.0002C3.75007 21.2033 8.79672 26.2504 14.9997 26.2504C21.2032 26.2504 26.2503 21.2033 26.2503 15.0002C26.2503 8.7967 21.2032 3.75007 15.0002 3.75007C8.79717 3.75007 3.75054 8.79715 3.75054 15.0002H3.75007ZM4.70258 15.0002C4.70258 9.3228 9.32148 4.70259 14.9997 4.70259H15.0002C20.6779 4.70259 25.2973 9.32234 25.2973 15.0002C25.2973 20.6781 20.6775 25.2979 14.9997 25.2979C9.32196 25.2979 4.70258 20.6772 4.70258 15.0002ZM16.9145 15.3323C17.0405 15.4513 17.1883 15.4 17.3246 15.2718C18.2514 14.3877 19.2333 13.0005 19.5608 12.2808C19.6307 12.1268 19.7721 12.0411 19.9237 12.1015C20.1019 12.1745 20.0995 12.4808 19.9377 12.814C19.5095 13.6956 18.9156 14.6668 17.7425 15.8814C17.7178 15.9047 17.6981 15.9329 17.6849 15.9642C17.6717 15.9956 17.6651 16.0294 17.6656 16.0634C17.6661 16.0974 17.6738 16.1309 17.688 16.1619C17.7022 16.1927 17.7226 16.2203 17.7481 16.2428C17.8517 16.3361 18.0191 16.3302 18.1763 16.1701C18.7855 15.5489 19.196 15.068 19.5486 14.5688C19.6387 14.4381 19.7474 14.3854 19.8546 14.4091C20.0086 14.4399 20.0333 14.5879 19.9862 14.766C19.9101 15.0543 19.0999 16.1133 18.7799 16.4725C17.9109 17.4426 17.0409 17.9744 15.3677 18.8439C14.7833 19.15 14.3462 19.4382 14.0817 19.8845C13.8415 20.2913 13.7692 20.4243 13.744 20.4756C13.6968 20.5712 13.6891 20.6815 13.7226 20.7828C13.756 20.8838 13.8278 20.968 13.9226 21.0168C13.9709 21.04 14.0235 21.053 14.077 21.0553C14.1306 21.0576 14.184 21.0487 14.2341 21.0295C14.2841 21.0104 14.3297 20.981 14.368 20.9436C14.4062 20.9059 14.4365 20.861 14.4567 20.8115C14.4563 20.8067 14.4554 20.7992 14.759 20.2866C14.9954 19.9064 15.3383 19.604 15.7451 19.4172C17.4183 18.654 18.1045 18.0503 19.0756 17.0798C19.5188 16.6362 20.1308 15.6864 20.2996 15.4057C20.7675 14.6182 20.5221 13.9432 20.0995 13.8285C20.0914 13.8265 20.0838 13.8226 20.0775 13.8171C20.0711 13.8119 20.0661 13.805 20.0628 13.7973C20.0595 13.7895 20.0581 13.7811 20.0587 13.7729C20.0592 13.7644 20.0617 13.7565 20.0659 13.7492C20.3929 13.1884 20.5417 12.8019 20.6033 12.5013C20.6863 12.0942 20.5707 11.5992 20.0114 11.4785C20.0044 11.4767 19.9978 11.4735 19.992 11.4692C19.9863 11.4651 19.9814 11.4596 19.9777 11.4534C19.9741 11.447 19.9717 11.4402 19.9708 11.4331C19.9698 11.4258 19.9703 11.4188 19.9722 11.4117C20.002 11.2979 20.029 11.1834 20.0534 11.0685L20.0659 11.0124C20.1835 10.4831 19.8486 10.004 19.4465 9.91754C19.3168 9.88858 19.1824 9.88767 19.0524 9.91481C18.9223 9.94194 18.7995 9.99645 18.6922 10.0749C18.6772 10.0852 18.659 10.0895 18.6409 10.0872C18.6229 10.0852 18.6063 10.0763 18.5943 10.0628C18.5415 10.0037 18.4774 9.95608 18.4057 9.92256C18.3341 9.88904 18.2563 9.87034 18.1772 9.86783C17.8265 9.86167 17.4813 9.96954 17.2294 10.5082C17.0489 10.8931 16.7797 11.4108 15.9928 12.2835C15.2623 13.0938 14.2454 13.8835 13.6181 14.2953C13.5075 14.3681 13.3536 14.351 13.3732 14.203C13.3825 14.127 13.4151 13.912 13.4562 13.6395C13.543 13.0669 13.668 12.2416 13.6964 11.9266C13.7664 11.172 13.3606 10.8245 12.9053 10.7634C12.5303 10.7125 11.9617 10.8201 11.65 11.674C11.6047 11.7948 11.558 11.915 11.5101 12.0349C11.3086 12.5433 11.0185 13.2753 10.7638 14.3197C10.5371 15.2506 10.4998 16.3361 10.7073 17.5831C10.7205 17.6583 10.7057 17.7361 10.6658 17.8013C10.6094 17.8946 10.5469 17.9945 10.4811 18.0989C10.26 18.4522 10.0076 18.8556 9.85046 19.2179C9.80996 19.3092 9.80467 19.412 9.83559 19.5066C9.86653 19.6015 9.93149 19.6813 10.0179 19.731C10.065 19.7568 10.1169 19.7725 10.1703 19.7776C10.2238 19.7826 10.2777 19.7764 10.3287 19.7598C10.3798 19.7434 10.4269 19.7164 10.4672 19.6811C10.5075 19.6455 10.5402 19.6024 10.5632 19.5538C10.6565 19.3589 10.8216 19.0332 10.9382 18.8029L11.0292 18.6223L11.0511 18.5771C11.2078 18.256 11.3123 18.0417 11.3562 17.9044C11.3977 17.7728 11.4224 17.6214 11.3469 17.2761C11.2195 16.6948 11.1747 15.6025 11.4122 14.6406C11.6705 13.6438 11.9852 12.6625 12.3549 11.7013C12.45 11.4657 12.5853 11.3921 12.7225 11.4042C12.8587 11.4169 13.1157 11.4822 13.0415 11.9622C12.9293 12.681 12.8119 13.3991 12.6893 14.1163L12.6599 14.289C12.6301 14.4693 12.5951 14.8919 12.9291 15.0846C13.1894 15.2353 13.4758 15.1514 13.792 14.94C14.5048 14.4652 15.7325 13.4972 16.5041 12.6311C17.3134 11.7214 17.5713 11.1805 17.7789 10.6906C17.8741 10.4671 18.118 10.469 18.2043 10.4947C18.2901 10.5194 18.3946 10.6354 18.3209 10.8817C18.1413 11.4794 17.402 12.8479 15.9783 14.1321C15.8174 14.2782 15.8403 14.4493 15.9224 14.5398C16.0045 14.6299 16.1495 14.6835 16.3151 14.5398C17.5946 13.4484 18.3256 12.1446 18.6535 11.4473C18.7628 11.2151 18.8565 10.9759 18.9338 10.7312C19.0038 10.5287 19.1596 10.456 19.2688 10.4792C19.4246 10.5118 19.5277 10.6715 19.4777 10.9346C19.398 11.2705 19.2809 11.5966 19.1288 11.9066C18.7188 12.777 17.8526 13.9428 16.9187 14.9423C16.8912 14.9667 16.869 14.9966 16.8536 15.0299C16.8383 15.0634 16.8301 15.0997 16.8297 15.1364C16.8293 15.1731 16.8365 15.2096 16.8511 15.2433C16.8656 15.2771 16.8871 15.3074 16.9141 15.3323H16.9145ZM11.129 10.9967C11.1771 10.9547 11.1603 10.9009 11.1458 10.8566L11.1449 10.853C11.0763 10.6327 10.684 9.71344 10.5809 9.52872C10.5291 9.43522 10.4634 9.42268 10.3934 9.44982C10.3006 9.48517 10.1863 9.57205 10.0109 9.7237C9.83598 9.87558 9.7371 9.98025 9.68999 10.0669C9.6536 10.1337 9.6578 10.2003 9.74316 10.2628C9.91343 10.3898 10.774 10.8981 10.983 10.9985L10.9868 10.9998C11.0287 11.019 11.0801 11.0427 11.1281 10.9985L11.129 10.9967ZM18.2239 19.1372C18.1614 19.1411 18.1418 19.1942 18.1264 19.2362L18.1245 19.241C18.0457 19.4578 17.798 20.427 17.7681 20.6366C17.7532 20.7415 17.7971 20.7914 17.8694 20.8129C17.9641 20.8407 18.1068 20.8428 18.3396 20.8268C18.5719 20.8115 18.7123 20.791 18.8028 20.7499C18.8718 20.7196 18.9087 20.6635 18.8793 20.5609C18.8214 20.3584 18.4469 19.4307 18.3396 19.2268L18.3386 19.225C18.3176 19.184 18.2906 19.1322 18.2262 19.1372H18.2244H18.2239ZM18.7837 18.6882C18.7543 18.7454 18.7906 18.7899 18.82 18.8257L18.8214 18.8275C18.9651 19.0077 19.6653 19.7217 19.828 19.8567C19.9097 19.9242 19.9754 19.9126 20.031 19.8622C20.1047 19.7956 20.1802 19.6747 20.2875 19.4676C20.3948 19.2608 20.4508 19.1304 20.4629 19.0318C20.4722 18.9573 20.4443 18.8966 20.3402 18.8686C20.1364 18.8127 19.1493 18.6503 18.9189 18.6364H18.9152C18.8695 18.633 18.8126 18.6293 18.7832 18.6866L18.7837 18.6882ZM10.7894 11.5969C10.7787 11.5335 10.7232 11.5205 10.6789 11.5098L10.6751 11.5088C10.4513 11.4532 9.46049 11.3139 9.24964 11.3063C9.1433 11.3027 9.09804 11.3519 9.08452 11.4286C9.0668 11.5259 9.08078 11.6678 9.12184 11.8972C9.16336 12.1259 9.19834 12.2644 9.24872 12.3499C9.28744 12.4146 9.34667 12.4454 9.44462 12.4058C9.64054 12.3255 10.5217 11.8543 10.7125 11.7234L10.7162 11.7205C10.7549 11.6949 10.8011 11.6641 10.7894 11.6012V11.5964V11.5969ZM14.9997 24.4297C15.0834 24.4315 15.1651 24.4037 15.2305 24.3512C15.2959 24.299 15.3408 24.2254 15.3574 24.1433C15.3741 24.0612 15.3614 23.9759 15.3216 23.902C15.2818 23.8283 15.2174 23.7711 15.1396 23.7399C15.0913 23.7216 15.0395 23.7141 14.9879 23.7177C14.9363 23.7214 14.8862 23.7362 14.8409 23.7613C14.7956 23.7864 14.7564 23.8208 14.7258 23.8625C14.6952 23.9043 14.674 23.9522 14.6637 24.0028C14.6534 24.0534 14.6543 24.1059 14.6663 24.156C14.6782 24.2064 14.7009 24.2536 14.7329 24.2942C14.7649 24.3348 14.8053 24.3681 14.8513 24.3916C14.8974 24.4151 14.948 24.4283 14.9997 24.4302V24.4297ZM14.9997 6.28436C15.0466 6.28436 15.093 6.27515 15.1363 6.2572C15.1796 6.23928 15.2189 6.21298 15.252 6.17985C15.2852 6.14671 15.3115 6.10738 15.3294 6.06409C15.3473 6.02079 15.3565 5.97438 15.3565 5.92752C15.3565 5.88065 15.3473 5.83427 15.3294 5.79096C15.3115 5.74768 15.2852 5.70834 15.252 5.67521C15.2189 5.64207 15.1796 5.61578 15.1363 5.59785C15.093 5.57991 15.0466 5.57067 14.9997 5.57067C14.9051 5.57067 14.8143 5.60827 14.7474 5.67521C14.6805 5.74211 14.6429 5.83288 14.6429 5.92752C14.6429 6.02215 14.6805 6.11294 14.7474 6.17985C14.8143 6.24678 14.9051 6.28436 14.9997 6.28436ZM17.3479 24.1209C17.4425 24.1209 17.5333 24.0833 17.6002 24.0165C17.6671 23.9497 17.7047 23.8589 17.7047 23.7643C17.7047 23.6696 17.6671 23.5789 17.6002 23.5118C17.5333 23.445 17.4425 23.4074 17.3479 23.4074C17.2532 23.4074 17.1625 23.445 17.0956 23.5118C17.0286 23.5789 16.991 23.6696 16.991 23.7643C16.991 23.8589 17.0286 23.9497 17.0956 24.0165C17.1625 24.0833 17.2532 24.1209 17.3479 24.1209ZM12.6516 6.59364C12.7462 6.59364 12.837 6.55603 12.9039 6.48912C12.9708 6.42219 13.0084 6.33143 13.0084 6.23679C13.0084 6.14215 12.9708 6.05139 12.9039 5.98446C12.837 5.91755 12.7462 5.87994 12.6516 5.87994C12.5569 5.87994 12.4661 5.91755 12.3992 5.98446C12.3323 6.05139 12.2947 6.14215 12.2947 6.23679C12.2947 6.33143 12.3323 6.42219 12.3992 6.48912C12.4661 6.55603 12.5569 6.59364 12.6516 6.59364ZM19.5365 23.2147C19.6202 23.2163 19.7019 23.1884 19.7673 23.1362C19.8326 23.0838 19.8776 23.0101 19.8942 22.928C19.9109 22.8459 19.8982 22.7606 19.8584 22.687C19.8186 22.6133 19.7542 22.5558 19.6764 22.5248C19.628 22.5061 19.5762 22.4984 19.5245 22.502C19.4728 22.5057 19.4224 22.5203 19.377 22.5453C19.3316 22.5702 19.2922 22.6049 19.2614 22.6466C19.2307 22.6883 19.2095 22.7362 19.1992 22.7871C19.1889 22.8379 19.1898 22.8904 19.2018 22.9408C19.2138 22.9912 19.2366 23.0384 19.2687 23.079C19.3009 23.1198 19.3414 23.1529 19.3877 23.1764C19.4339 23.1998 19.4847 23.2128 19.5365 23.2147ZM10.4634 7.4995C10.5113 7.50297 10.5594 7.4967 10.6049 7.48112C10.6503 7.46553 10.6921 7.44092 10.7278 7.40876C10.7635 7.37663 10.7924 7.33761 10.8126 7.29403C10.8329 7.25048 10.8441 7.20327 10.8457 7.15525C10.8473 7.10724 10.8391 7.0594 10.8218 7.01461C10.8044 6.96982 10.7782 6.92898 10.7447 6.89457C10.7111 6.86016 10.671 6.83288 10.6267 6.81434C10.5824 6.79582 10.5347 6.78643 10.4867 6.78675C10.3945 6.78736 10.3061 6.82364 10.24 6.88798C10.174 6.95233 10.1354 7.03974 10.1324 7.13192C10.1294 7.22407 10.1622 7.31383 10.2239 7.38236C10.2856 7.45088 10.3714 7.49287 10.4634 7.4995ZM21.4154 21.7727C21.4627 21.775 21.5099 21.7679 21.5544 21.7518C21.5989 21.7356 21.6397 21.7107 21.6745 21.6788C21.7093 21.6466 21.7374 21.6079 21.7571 21.565C21.7767 21.5219 21.7877 21.4754 21.7892 21.4282C21.7908 21.3807 21.7829 21.3335 21.7661 21.2893C21.7492 21.2453 21.7238 21.2047 21.6911 21.1705C21.6585 21.1363 21.6194 21.1087 21.5761 21.0897C21.5327 21.0706 21.486 21.0603 21.4387 21.0596C21.3451 21.058 21.2545 21.0932 21.1866 21.1579C21.1188 21.2225 21.079 21.3112 21.0759 21.4047C21.0729 21.4984 21.1067 21.5894 21.1703 21.6583C21.2338 21.7271 21.3218 21.7684 21.4154 21.7727ZM8.58399 8.94082C8.63128 8.9431 8.67852 8.93603 8.72301 8.91984C8.76749 8.90365 8.80832 8.87879 8.84309 8.84687C8.87788 8.81471 8.90595 8.77594 8.92565 8.73307C8.94535 8.68993 8.95629 8.6434 8.95782 8.59611C8.95937 8.54881 8.9515 8.50167 8.93466 8.45745C8.91781 8.41321 8.89234 8.37278 8.85971 8.33848C8.82711 8.30421 8.78798 8.27675 8.74467 8.25771C8.70132 8.23869 8.65465 8.22847 8.60732 8.22765C8.51366 8.22603 8.42312 8.26134 8.35522 8.3259C8.28735 8.39048 8.24758 8.47914 8.24453 8.57278C8.24147 8.66641 8.27535 8.75747 8.33887 8.82634C8.40237 8.89521 8.49042 8.93626 8.58399 8.94082ZM23.7636 17.7048C23.8582 17.7048 23.949 17.6672 24.0159 17.6002C24.0828 17.5334 24.1204 17.4426 24.1204 17.348C24.1204 17.2533 24.0828 17.1626 24.0159 17.0955C23.949 17.0287 23.8582 16.9911 23.7636 16.9911C23.6689 16.9911 23.5782 17.0287 23.5113 17.0955C23.4443 17.1626 23.4067 17.2533 23.4067 17.348C23.4067 17.4426 23.4443 17.5334 23.5113 17.6002C23.5782 17.6672 23.6689 17.7048 23.7636 17.7048ZM22.8573 19.8934C22.9052 19.8952 22.9529 19.8873 22.9977 19.8701C23.0425 19.853 23.0834 19.827 23.1179 19.7937C23.1524 19.7605 23.1798 19.7205 23.1986 19.6763C23.2173 19.6323 23.227 19.5849 23.227 19.5367C23.227 19.4889 23.2173 19.4414 23.1986 19.3972C23.1798 19.3532 23.1524 19.3133 23.1179 19.28C23.0834 19.2467 23.0425 19.2207 22.9977 19.2036C22.9529 19.1865 22.9052 19.1785 22.8573 19.1803C22.7626 19.1803 22.6718 19.2177 22.6049 19.2848C22.538 19.3516 22.5004 19.4423 22.5004 19.537C22.5004 19.6316 22.538 19.7224 22.6049 19.7894C22.6718 19.8562 22.7626 19.8939 22.8573 19.8939V19.8934ZM7.14218 10.8208C7.23682 10.8208 7.32759 10.7832 7.39451 10.7162C7.46142 10.6493 7.49902 10.5586 7.49902 10.4639C7.49902 10.3693 7.46142 10.2785 7.39451 10.2115C7.32759 10.1447 7.23682 10.107 7.14218 10.107C7.04754 10.107 6.95677 10.1447 6.88985 10.2115C6.82294 10.2785 6.78534 10.3693 6.78534 10.4639C6.78534 10.5586 6.82294 10.6493 6.88985 10.7162C6.95677 10.7832 7.04754 10.8208 7.14218 10.8208ZM6.23584 13.0089C6.33048 13.0089 6.42125 12.9713 6.48817 12.9045C6.55508 12.8374 6.59268 12.7467 6.59268 12.652C6.59268 12.5574 6.55508 12.4666 6.48817 12.3998C6.42125 12.3328 6.33048 12.2951 6.23584 12.2951C6.14113 12.2951 6.05032 12.3328 5.98336 12.3998C5.91639 12.4669 5.87877 12.5576 5.87877 12.6523C5.87877 12.7469 5.91639 12.8379 5.98336 12.9047C6.05032 12.9718 6.14113 13.0094 6.23584 13.0094V13.0089ZM24.0724 15.3571C24.167 15.3571 24.2578 15.3195 24.3247 15.2527C24.3916 15.1856 24.4292 15.0949 24.4292 15.0002C24.4292 14.9056 24.3916 14.8148 24.3247 14.748C24.2578 14.681 24.167 14.6433 24.0724 14.6433C23.9777 14.6433 23.887 14.681 23.8201 14.748C23.7531 14.8148 23.7155 14.9056 23.7155 15.0002C23.7155 15.0949 23.7531 15.1856 23.8201 15.2527C23.887 15.3195 23.9777 15.3571 24.0724 15.3571ZM5.92704 15.3571C5.97544 15.3596 6.02383 15.3521 6.06929 15.3355C6.11473 15.3186 6.15629 15.2926 6.1914 15.2593C6.22654 15.226 6.25451 15.1856 6.27362 15.1412C6.29275 15.0967 6.3026 15.0488 6.3026 15.0002C6.3026 14.9519 6.29275 14.9038 6.27362 14.8593C6.25451 14.8148 6.22654 14.7747 6.1914 14.7412C6.15629 14.7079 6.11473 14.6819 6.06929 14.6652C6.02383 14.6484 5.97544 14.6408 5.92704 14.6433C5.83557 14.6481 5.74936 14.6878 5.68627 14.7542C5.62316 14.8205 5.58798 14.9086 5.58798 15.0002C5.58798 15.0919 5.62316 15.1799 5.68627 15.2463C5.74936 15.3127 5.83557 15.3523 5.92704 15.3571ZM23.7636 13.0089C23.8582 13.0089 23.949 12.9713 24.0159 12.9045C24.0828 12.8374 24.1204 12.7467 24.1204 12.652C24.1204 12.5574 24.0828 12.4666 24.0159 12.3998C23.949 12.3328 23.8582 12.2951 23.7636 12.2951C23.6689 12.2951 23.5781 12.3328 23.5111 12.3998C23.4441 12.4669 23.4065 12.5576 23.4065 12.6523C23.4065 12.7469 23.4441 12.8379 23.5111 12.9047C23.5781 12.9718 23.6689 13.0094 23.7636 13.0094V13.0089ZM6.23584 17.7058C6.33048 17.7058 6.42125 17.6681 6.48817 17.6013C6.55508 17.5343 6.59268 17.4435 6.59268 17.3489C6.59268 17.2542 6.55508 17.1635 6.48817 17.0967C6.42125 17.0296 6.33048 16.992 6.23584 16.992C6.1412 16.992 6.05043 17.0296 5.98352 17.0967C5.9166 17.1635 5.879 17.2542 5.879 17.3489C5.879 17.4435 5.9166 17.5343 5.98352 17.6013C6.05043 17.6681 6.1412 17.7058 6.23584 17.7058ZM22.8573 10.8208C22.9519 10.8208 23.0427 10.7832 23.1096 10.7162C23.1765 10.6493 23.2141 10.5586 23.2141 10.4639C23.2141 10.3693 23.1765 10.2785 23.1096 10.2115C23.0427 10.1447 22.9519 10.107 22.8573 10.107C22.7626 10.107 22.6718 10.1447 22.6049 10.2115C22.538 10.2785 22.5004 10.3693 22.5004 10.4639C22.5004 10.5586 22.538 10.6493 22.6049 10.7162C22.6718 10.7832 22.7626 10.8208 22.8573 10.8208ZM7.14218 19.8943C7.23682 19.8943 7.32759 19.8567 7.39451 19.7899C7.46142 19.7228 7.49902 19.6321 7.49902 19.5374C7.49902 19.4428 7.46142 19.352 7.39451 19.2852C7.32759 19.2182 7.23682 19.1808 7.14218 19.1808C7.04754 19.1808 6.95677 19.2182 6.88985 19.2852C6.82294 19.352 6.78534 19.4428 6.78534 19.5374C6.78534 19.6321 6.82294 19.7228 6.88985 19.7899C6.95677 19.8567 7.04754 19.8943 7.14218 19.8943ZM21.4154 8.94173C21.4627 8.94401 21.5099 8.93694 21.5544 8.92075C21.5989 8.90456 21.6397 8.8797 21.6745 8.84778C21.7093 8.81562 21.7374 8.77686 21.7571 8.73398C21.7767 8.69086 21.7877 8.64434 21.7892 8.59704C21.7908 8.54975 21.7829 8.50261 21.7661 8.45839C21.7492 8.41415 21.7238 8.37372 21.6911 8.33942C21.6585 8.30514 21.6194 8.27769 21.5761 8.25865C21.5327 8.23963 21.486 8.22941 21.4387 8.22859C21.3451 8.22697 21.2545 8.26227 21.1866 8.32683C21.1188 8.39141 21.079 8.48008 21.0759 8.57371C21.0729 8.66735 21.1067 8.75839 21.1703 8.82726C21.2338 8.89613 21.3218 8.9374 21.4154 8.94173ZM8.58399 21.7727C8.63128 21.775 8.67852 21.7679 8.72301 21.7518C8.76749 21.7356 8.80832 21.7107 8.84309 21.6788C8.87788 21.6466 8.90595 21.6079 8.92565 21.565C8.94535 21.5219 8.95629 21.4754 8.95782 21.4282C8.95937 21.3807 8.9515 21.3335 8.93466 21.2893C8.91781 21.2453 8.89234 21.2047 8.85971 21.1705C8.82711 21.1363 8.78798 21.1087 8.74467 21.0897C8.70132 21.0706 8.65465 21.0603 8.60732 21.0596C8.51366 21.058 8.42312 21.0932 8.35522 21.1579C8.28735 21.2225 8.24758 21.3112 8.24453 21.4047C8.24147 21.4984 8.27535 21.5894 8.33887 21.6583C8.40237 21.7271 8.49042 21.7684 8.58399 21.7727ZM19.5365 7.4995C19.5838 7.50178 19.631 7.49462 19.6755 7.47848C19.72 7.46231 19.7608 7.43748 19.7956 7.40539C19.8304 7.3733 19.8585 7.33463 19.8782 7.29159C19.8979 7.24856 19.9088 7.20204 19.9103 7.15474C19.9119 7.10745 19.904 7.06031 19.8872 7.01607C19.8703 6.97185 19.8448 6.93142 19.8122 6.89712C19.7796 6.86285 19.7405 6.83537 19.6972 6.81635C19.6538 6.79733 19.6072 6.78709 19.5598 6.78629C19.4662 6.78467 19.3756 6.81995 19.3077 6.88453C19.2399 6.94909 19.2001 7.03778 19.197 7.13141C19.194 7.22505 19.2279 7.31613 19.2914 7.385C19.3549 7.45387 19.4429 7.49499 19.5365 7.4995ZM10.4634 23.2147C10.5581 23.2179 10.6503 23.183 10.7194 23.1182C10.7886 23.0534 10.8293 22.9638 10.8324 22.8689C10.8354 22.7743 10.8008 22.6822 10.7359 22.6129C10.6711 22.5438 10.5815 22.5032 10.4867 22.5C10.3919 22.497 10.2998 22.5317 10.2306 22.5964C10.1614 22.6612 10.1208 22.7508 10.1177 22.8457C10.1146 22.9406 10.1493 23.0325 10.2141 23.1018C10.279 23.1709 10.3686 23.2115 10.4634 23.2147ZM17.3483 6.59364C17.443 6.59364 17.5337 6.55603 17.6007 6.48912C17.6676 6.42219 17.7052 6.33143 17.7052 6.23679C17.7052 6.14215 17.6676 6.05139 17.6007 5.98446C17.5337 5.91755 17.443 5.87994 17.3483 5.87994C17.2537 5.87994 17.1629 5.91755 17.096 5.98446C17.0291 6.05139 16.9915 6.14215 16.9915 6.23679C16.9915 6.33143 17.0291 6.42219 17.096 6.48912C17.1629 6.55603 17.2537 6.59364 17.3483 6.59364ZM12.6511 24.1209C12.7457 24.1209 12.8365 24.0833 12.9034 24.0165C12.9703 23.9497 13.0079 23.8589 13.0079 23.7643C13.0079 23.6696 12.9703 23.5789 12.9034 23.5118C12.8365 23.445 12.7457 23.4074 12.6511 23.4074C12.5564 23.4074 12.4657 23.445 12.3987 23.5118C12.3318 23.5789 12.2942 23.6696 12.2942 23.7643C12.2942 23.8589 12.3318 23.9497 12.3987 24.0165C12.4657 24.0833 12.5564 24.1209 12.6511 24.1209ZM14.0738 12.8885C14.1327 12.9289 14.2035 12.9487 14.2749 12.9444C14.3462 12.9403 14.4142 12.9122 14.4679 12.8653C15.4461 12.0023 15.8935 11.2657 15.9732 11.1266C16.0362 11.0172 16.2111 10.7661 16.4728 10.8003C16.5548 10.8076 16.6364 10.783 16.7008 10.7317C16.7652 10.6804 16.8073 10.6062 16.8184 10.5246C16.8295 10.4432 16.8088 10.3604 16.7605 10.2938C16.7122 10.227 16.6401 10.1816 16.5591 10.1668C16.1113 10.1061 15.684 10.3454 15.4181 10.8081C15.3472 10.9317 14.9475 11.5889 14.0439 12.3852C14.0074 12.4174 13.9787 12.4573 13.96 12.5022C13.9412 12.5471 13.933 12.5957 13.9359 12.6443C13.9388 12.6926 13.9527 12.7401 13.9766 12.7823C14.0005 12.8247 14.0337 12.8609 14.0738 12.8885ZM8.6871 18.3094C8.74453 18.3495 8.81357 18.3696 8.88358 18.3669C8.95363 18.3639 9.02077 18.3381 9.07472 18.2934C9.40825 18.0323 9.76042 17.7968 10.1289 17.5876C10.2008 17.5475 10.2545 17.4811 10.2788 17.4025C10.3031 17.3236 10.2961 17.2385 10.2593 17.1648C10.2225 17.0912 10.1587 17.0344 10.0812 17.0066C10.0036 16.9785 9.91835 16.9815 9.84298 17.0148C9.43023 17.2458 9.03641 17.509 8.66516 17.8018C8.62759 17.8335 8.59777 17.8732 8.57802 17.9181C8.55825 17.963 8.54907 18.012 8.55119 18.0611C8.55331 18.1101 8.56667 18.158 8.59022 18.2011C8.61379 18.244 8.64692 18.2811 8.6871 18.3094Z"
          fill="white"/>
</svg>
