<svg width="30" height="30" viewBox="0 0 30 30" fill="none" xmlns="http://www.w3.org/2000/svg">
    <path d="M24.8842 19.7944C24.8836 19.7987 24.8819 19.8028 24.8793 19.8063C24.8767 19.8098 24.8732 19.8126 24.8693 19.8144C24.8653 19.8155 24.8612 19.8156 24.8572 19.8145C24.8533 19.8135 24.8497 19.8114 24.8468 19.8085C24.8416 19.8026 24.8377 19.7957 24.8354 19.7882C24.8331 19.7807 24.8324 19.7728 24.8334 19.765C24.8351 19.7415 24.8445 19.7191 24.8602 19.7015C24.87 19.6902 24.8827 19.6819 24.8969 19.6772C24.9112 19.6727 24.9265 19.6721 24.9412 19.6754C24.9558 19.6787 24.9693 19.6858 24.9804 19.696C24.9933 19.7078 25.0037 19.7221 25.0106 19.7382C25.0157 19.7483 25.0194 19.759 25.0217 19.7701C25.0271 19.7946 25.0267 19.82 25.0205 19.8443C25.0109 19.8812 24.9932 19.9154 24.9687 19.9446C24.9589 19.9568 24.9481 19.9682 24.9365 19.9788C24.9283 19.9867 24.9206 19.9945 24.9128 20.0021C24.897 20.0172 24.8802 20.0326 24.8619 20.0484C24.6739 20.2087 24.4478 20.318 24.2054 20.3658C24.188 20.3695 24.162 20.3752 24.1275 20.3829C24.0927 20.3888 24.0492 20.3939 23.9986 20.401C23.9405 20.4101 23.8819 20.416 23.8231 20.4187C23.7573 20.4217 23.6839 20.4292 23.6049 20.4261C23.2006 20.4206 22.7989 20.3602 22.4109 20.2466C22.181 20.1825 21.9395 20.1018 21.6919 20.0071C21.4443 19.9124 21.1916 19.8057 20.9323 19.695C20.4147 19.4737 19.8763 19.2321 19.3325 19.0246C18.8099 18.8169 18.2687 18.6593 17.7163 18.5538C17.2407 18.4651 16.7553 18.4407 16.2731 18.4813C15.9312 18.5109 15.5942 18.5817 15.2692 18.6921C15.2157 18.7107 15.163 18.729 15.1111 18.7471C15.0722 18.7621 15.0337 18.777 14.9952 18.7916C14.9319 18.8148 14.8964 18.8239 14.893 18.8166C14.8896 18.8094 14.9187 18.7859 14.9766 18.7479C15.0058 18.7292 15.042 18.706 15.0856 18.6811C15.1358 18.6554 15.187 18.6294 15.2393 18.6031C15.5617 18.4529 15.9043 18.3503 16.2562 18.2986C16.7529 18.2249 17.2577 18.2228 17.755 18.2924C18.3278 18.3746 18.8909 18.5137 19.436 18.7078C19.9965 18.8989 20.5465 19.1246 21.0669 19.3287C21.3271 19.4305 21.5812 19.5292 21.8218 19.6138C22.0625 19.6983 22.2955 19.7689 22.5134 19.8236C22.8703 19.9186 23.2382 19.9656 23.6075 19.9632C23.678 19.9648 23.7411 19.9565 23.7984 19.9529C23.849 19.9498 23.8995 19.9438 23.9494 19.9348L24.0592 19.9179C24.089 19.9112 24.1108 19.906 24.125 19.9026C24.3579 19.8518 24.5658 19.7968 24.7233 19.7518C24.7433 19.747 24.7631 19.7427 24.7814 19.7391C24.7901 19.7372 24.7989 19.7359 24.8077 19.735C24.8117 19.7357 24.8156 19.7365 24.8194 19.7377C24.8203 19.7381 24.8212 19.7385 24.8221 19.739L24.8292 19.7462L24.8401 19.7567C24.8506 19.767 24.8627 19.7755 24.8759 19.7818C24.8799 19.7839 24.8844 19.785 24.8889 19.7851C24.8873 19.7853 24.8857 19.7857 24.8842 19.7863V19.7863L24.9015 19.7797H24.902L24.9034 19.7793L24.9054 19.7784L24.9088 19.7756C24.9076 19.7799 24.9074 19.7845 24.9084 19.789C24.9093 19.7953 24.9112 19.8015 24.9139 19.8073C24.9076 19.7981 24.8992 19.7905 24.8894 19.7852C24.8827 19.7829 24.8816 19.7845 24.8827 19.7837C24.8852 19.7823 24.8859 19.7799 24.8882 19.7754C24.8905 19.7709 24.8893 19.7742 24.8886 19.7763L24.887 19.7822L24.8842 19.7944Z"
          fill="url(#paint0_linear_4836_27799)"/>
    <path d="M14.9273 18.7362C15.5334 18.4621 16.0727 18.1272 16.7238 17.9581C17.3404 17.7979 17.9799 17.7437 18.6147 17.798C19.8822 17.9075 21.0523 18.4705 22.2518 18.8764C23.3392 19.2448 24.5316 19.4947 25.6524 19.1835C26.0663 19.0685 26.6389 18.853 26.8952 18.4682C27.1186 18.1329 26.9564 17.6306 26.6782 17.377C26.394 17.1173 25.863 17.1209 25.7202 17.5441C25.6006 17.8989 25.9608 18.267 26.2891 18.1073C26.3094 18.0967 26.325 18.0788 26.3326 18.0573C26.3403 18.0358 26.3396 18.0121 26.3305 17.9911C26.3215 17.9701 26.3049 17.9532 26.284 17.944C26.2631 17.9347 26.2395 17.9336 26.2178 17.941C25.9705 18.0318 25.8126 17.6432 25.9949 17.489C26.0571 17.4399 26.133 17.411 26.2121 17.4062C26.2913 17.4014 26.3701 17.421 26.4378 17.4622C26.6608 17.5864 26.8433 17.911 26.7961 18.1789C26.7124 18.6524 25.9099 18.8991 25.5254 18.9963C24.6276 19.2236 23.6656 19.0881 22.7812 18.8286C21.0459 18.3195 19.4163 17.4368 17.5708 17.6429C16.678 17.7426 15.5733 18.0402 14.9011 18.6909C14.881 18.7105 14.8999 18.7484 14.9273 18.736V18.7362Z"
          fill="url(#paint1_linear_4836_27799)"/>
    <path d="M8.61606 9.54358C8.79005 9.29469 8.88338 8.99835 8.88341 8.69466C8.87858 8.51608 8.8174 8.3436 8.70863 8.20189C8.65481 8.13578 8.5863 8.08314 8.50855 8.04818C8.43081 8.01321 8.34597 7.99688 8.2608 8.00049C7.56313 8.00049 7.20935 8.65168 7.20935 9.93602C7.20954 10.1206 7.21963 10.3051 7.23956 10.4887L6.20889 11.3541C5.96084 11.1395 5.635 11.0309 5.23931 11.0309C4.94716 11.03 4.65883 11.0972 4.39713 11.2271C4.14011 11.3527 3.91209 11.5305 3.7276 11.7491C3.52145 12.007 3.35351 12.2932 3.22897 12.5989C3.07183 12.9795 2.99413 13.3881 3.00065 13.7998C2.99125 14.2272 3.08454 14.6505 3.27268 15.0344C3.12682 15.4866 3.05484 15.9594 3.05953 16.4345C3.05626 16.9454 3.21027 17.4449 3.50067 17.8653C3.79885 18.3007 4.18551 18.5216 4.64992 18.5216C4.66453 18.5219 4.67906 18.5191 4.69256 18.5136C4.70607 18.508 4.71827 18.4996 4.72839 18.4891C4.7423 18.4722 4.75257 18.4527 4.75855 18.4316C4.76453 18.4106 4.76609 18.3886 4.76314 18.3669C4.75646 18.2337 4.68167 18.2193 4.64992 18.2193C4.29466 18.2193 4.01153 18.0516 3.78434 17.7065C3.55342 17.3553 3.43261 16.9431 3.43738 16.5228C3.43375 16.1652 3.47256 15.8084 3.55301 15.46C3.93259 15.8997 4.47366 16.1225 5.16345 16.1225C5.63102 16.1319 6.09488 16.0377 6.52183 15.8469C6.89482 15.6778 7.21521 15.4111 7.44917 15.075C7.67438 14.7436 7.84253 14.3769 7.94666 13.99C8.05523 13.5891 8.10981 13.1755 8.10894 12.7601C8.10894 12.3442 8.02265 11.5554 7.85241 10.4153C8.1393 10.1547 8.39551 9.86227 8.61606 9.54358V9.54358ZM8.51406 8.7325C8.51406 9.06578 8.2739 9.48054 7.79967 9.96656C7.78163 9.78208 7.77254 9.62787 7.77254 9.50695C7.77254 8.74694 7.9369 8.36158 8.26107 8.36158C8.36968 8.36158 8.51406 8.40002 8.51406 8.7325ZM5.91473 11.6079C4.69256 12.6523 3.86575 13.6452 3.45382 14.5629C3.38575 14.3259 3.35199 14.0803 3.35356 13.8336C3.35326 13.546 3.39766 13.26 3.48517 12.986C3.68148 12.3431 4.00852 11.88 4.45735 11.6097C4.70403 11.4637 4.98615 11.3883 5.2728 11.3919C5.54189 11.3919 5.75244 11.4627 5.91473 11.6079ZM4.60066 13.4134C5.06313 12.8705 5.56792 12.3651 6.1103 11.902C6.1471 12.0176 6.16581 12.1382 6.16578 12.2596C6.16325 12.6401 6.01242 13.0046 5.74535 13.2756C5.55747 13.4843 5.35047 13.5902 5.13043 13.5902H5.05062L5.06459 13.6688C5.07255 13.7339 5.102 13.7946 5.14828 13.8412C5.19708 13.8826 5.25984 13.9039 5.32379 13.9007C5.59625 13.9044 5.86176 13.8147 6.07628 13.6467C6.27686 13.4967 6.4326 13.2947 6.52664 13.0626C6.61407 12.8259 6.65702 12.5752 6.65331 12.3229C6.65516 12.0711 6.58107 11.8245 6.44069 11.6154L7.28093 10.9188C7.37337 11.8921 7.42023 12.4846 7.42023 12.6807C7.42023 13.512 7.24497 14.2285 6.89928 14.81C6.72571 15.1019 6.47703 15.342 6.17914 15.5052C5.84909 15.6816 5.47917 15.77 5.10503 15.7618C4.45094 15.7618 3.98212 15.5275 3.67192 15.0455C3.87778 14.4487 4.1927 13.8952 4.60066 13.4134V13.4134Z"
          fill="url(#paint2_linear_4836_27799)"/>
    <path d="M9.86036 10.7186C9.95268 10.7127 10.0412 10.6799 10.115 10.624C10.2006 10.5771 10.2721 10.5081 10.322 10.4241C10.3718 10.3402 10.3983 10.2444 10.3986 10.1468C10.3986 9.86156 10.2354 9.81925 10.1379 9.81925C10.0739 9.81828 10.0111 9.83749 9.95858 9.87415C9.90603 9.91081 9.86634 9.96306 9.84512 10.0235C9.79688 10.1333 9.76028 10.2477 9.73591 10.3651C9.71586 10.4615 9.69179 10.4758 9.69193 10.4759H9.59949L9.63625 10.5871C9.65436 10.6468 9.70784 10.7186 9.86036 10.7186Z"
          fill="url(#paint3_linear_4836_27799)"/>
    <path d="M12.9748 8.0007C12.7658 8.0007 12.5709 8.09562 12.3957 8.28285C12.2153 8.48207 12.0691 8.70978 11.963 8.95677C11.6665 9.59332 11.3823 10.7458 11.1178 12.3814L11.0366 12.5462H10.8958C10.8702 12.5462 10.7868 12.5568 10.7868 12.6933C10.7868 12.824 10.8631 12.8388 10.8919 12.8399L10.8356 12.9542C10.6369 13.3539 10.4107 13.7394 10.1585 14.1077C9.83139 14.5875 9.66783 14.6592 9.59945 14.6592C9.56804 14.6592 9.47245 14.6592 9.47245 14.3684C9.47671 14.0965 9.50738 13.8256 9.56402 13.5596C9.59918 13.3669 9.62933 13.2135 9.65626 13.0904C9.68393 12.9629 9.7231 12.7963 9.77357 12.5957C9.82336 12.3967 9.86046 12.2415 9.88352 12.1345C9.90614 12.0318 9.91795 11.927 9.91874 11.8218C9.92043 11.7324 9.90802 11.6434 9.88198 11.5579C9.81421 11.3381 9.69089 11.292 9.59939 11.292C9.52526 11.292 9.42754 11.3316 9.38289 11.5193C9.36504 11.5913 9.3478 11.6673 9.33182 11.7452C9.31605 11.8215 9.30088 11.8867 9.28671 11.9383C9.273 11.9873 9.25529 12.0577 9.23143 12.1589C9.00117 13.0689 8.8844 13.7371 8.8844 14.1452C8.8844 14.8683 9.25937 15.02 9.57392 15.02C9.72324 15.02 9.889 14.9239 10.0806 14.7259C10.264 14.5359 10.4276 14.3279 10.569 14.1049C10.6889 13.9167 10.8151 13.7005 10.9448 13.4632C10.9273 13.5737 10.9087 13.6914 10.8887 13.8186L10.7327 14.8075C10.5215 14.9945 10.3322 15.205 10.1686 15.4348C9.69503 16.0717 9.36591 16.6932 9.19039 17.2821C9.13337 17.4571 9.10122 17.6392 9.09488 17.8231C9.09488 18.1753 9.27534 18.3614 9.61623 18.3614C10.1087 18.3614 10.5123 17.8088 10.8502 16.6727C11.0615 15.9833 11.3198 14.6923 11.6181 12.8348C11.8305 12.8135 12.0387 12.762 12.2365 12.682L12.2772 12.6658L12.2877 12.3355L12.1899 12.3798C12.0236 12.4561 11.8467 12.5065 11.6652 12.5294C11.7421 12.0397 11.8056 11.6567 11.854 11.389L12.0039 11.3564L12.0093 11.355C12.4625 11.2155 12.8552 10.8393 13.1769 10.2364C13.4389 9.74017 13.5717 9.27086 13.5717 8.84153C13.5719 8.14669 13.2472 8.0007 12.9748 8.0007ZM13.2111 8.80831C13.2111 9.16031 13.0861 9.58042 12.8392 10.0575C12.573 10.5805 12.2654 10.9041 11.9235 11.0213C12.0845 10.159 12.2523 9.48637 12.4227 9.02067C12.5907 8.56105 12.7878 8.32797 13.0083 8.32797C13.1429 8.32797 13.2111 8.4896 13.2111 8.80831ZM10.6466 15.3067C10.4967 16.1443 10.3386 16.8043 10.176 17.2713C10.0079 17.7552 9.80839 18.0006 9.58268 18.0006C9.5534 18.0006 9.46443 18.0006 9.46443 17.7519C9.46443 17.5522 9.60954 17.1441 9.89569 16.539C10.0941 16.0988 10.3463 15.6848 10.6466 15.3067V15.3067Z"
          fill="url(#paint4_linear_4836_27799)"/>
    <path d="M17.9789 11.9649C17.9879 11.7888 17.9288 11.6159 17.8141 11.482C17.7552 11.4208 17.684 11.373 17.6051 11.3417C17.5262 11.3104 17.4415 11.2963 17.3567 11.3005C16.8822 11.3005 16.4314 11.7467 15.9826 12.6626C16.0532 12.2558 16.1332 11.8113 16.2209 11.3369C16.4549 11.2165 16.6941 10.9594 16.9502 10.5529C17.3125 9.98107 17.5395 9.41744 17.6249 8.87721C17.6409 8.77649 17.6496 8.67472 17.6508 8.57274C17.6508 8.10009 17.4085 8.00082 17.2052 8.00082C16.9026 8.00082 16.6357 8.25777 16.412 8.76385C16.2972 9.0171 16.1966 9.27655 16.1106 9.54097C16.0228 9.80908 15.9328 10.1497 15.8352 10.5825C15.7335 11.0351 15.6509 11.4098 15.5827 11.7279C15.5394 11.9295 15.4906 12.1624 15.4357 12.4298L15.3515 12.6111C15.2079 12.9312 14.9551 13.3524 14.601 13.8618C14.45 14.0725 14.2715 14.2621 14.0702 14.4256C13.8841 14.575 13.7072 14.6508 13.544 14.6508C13.1302 14.6508 12.9291 14.3505 12.9291 13.7327C12.9383 13.2476 13.0583 12.7711 13.2799 12.3394C13.5051 11.8782 13.7525 11.6447 14.0152 11.6447C14.0853 11.6447 14.1502 11.6652 14.1502 11.8136C14.1481 11.9687 14.1116 12.1213 14.0432 12.2605C13.9668 12.4215 13.9271 12.4556 13.9168 12.4622H13.8275L13.8597 12.5517C13.8679 12.5895 13.8885 12.6234 13.9182 12.6482C13.9479 12.673 13.985 12.6871 14.0236 12.6884C14.0872 12.6876 14.1498 12.6738 14.2079 12.6481C14.2659 12.6223 14.3181 12.5849 14.3613 12.5384C14.4538 12.448 14.5195 12.3338 14.5512 12.2085C14.5814 12.0833 14.5963 11.9549 14.5954 11.8262C14.5949 11.7508 14.5785 11.6764 14.5473 11.6078C14.5161 11.5392 14.4708 11.478 14.4143 11.4281C14.3011 11.3282 14.1534 11.2764 14.0026 11.2837C13.8307 11.2857 13.6613 11.3253 13.5063 11.3996C13.0947 11.597 12.7665 11.9824 12.5312 12.545C12.3708 12.9225 12.29 13.2469 12.29 13.5097C12.2851 13.7305 12.3115 13.9509 12.3686 14.1642C12.5343 14.7266 12.9301 15.0118 13.5439 15.0118C13.766 15.0118 14.0007 14.9149 14.2418 14.7236C14.4709 14.5432 14.6757 14.3339 14.8513 14.1011C14.9644 13.9504 15.082 13.7747 15.2026 13.5776C15.1572 13.7988 15.1208 13.9723 15.0943 14.0931C15.0582 14.2358 15.0352 14.3814 15.0254 14.5282C15.025 14.6105 15.0409 14.6921 15.0722 14.7681C15.1489 14.9553 15.2718 14.995 15.3614 14.995C15.4557 14.995 15.5255 14.9223 15.5686 14.7792C15.7085 14.3205 15.9202 13.7447 16.1981 13.067C16.3358 12.7007 16.5169 12.3523 16.7375 12.0291C16.9196 11.774 17.0826 11.6447 17.2217 11.6447C17.2685 11.6447 17.3653 11.6447 17.3653 11.8472C17.3653 12.0199 17.2825 12.4177 17.1193 13.0294C16.9531 13.6511 16.8688 14.1288 16.8688 14.4483C16.8688 15.1368 17.1706 15.2812 17.4236 15.2812C17.5024 15.2822 17.5792 15.2565 17.6414 15.208C17.6704 15.1895 17.6948 15.1644 17.7124 15.1348C17.73 15.1052 17.7405 15.0718 17.743 15.0375V14.9706H17.6762C17.5902 14.9706 17.5409 14.7956 17.5409 14.4904C17.5409 14.2489 17.614 13.8136 17.758 13.1966C17.9068 12.5598 17.9789 12.1568 17.9789 11.9649ZM16.3136 10.8655C16.7373 8.71933 17.0615 8.34634 17.2261 8.32876C17.2907 8.36171 17.3234 8.44908 17.3234 8.58945C17.3234 8.94767 17.1644 9.44445 16.8509 10.0658C16.6663 10.4263 16.4862 10.6943 16.3136 10.8654V10.8655Z"
          fill="url(#paint5_linear_4836_27799)"/>
    <path d="M22.5243 12.3358L22.2198 12.9539C22.0212 13.3537 21.7949 13.7391 21.5427 14.1075C21.2157 14.5873 21.052 14.6589 20.9836 14.6589C20.8788 14.6589 20.8566 14.4756 20.8566 14.3218C20.8566 14.2616 20.8633 14.1619 20.8773 14.0254C20.8914 13.8889 20.9909 13.3667 21.1754 12.4731C21.1916 12.386 21.2004 12.2976 21.2016 12.209C21.2016 11.8615 21.0508 11.7885 20.9242 11.7885C20.7763 11.7885 20.6924 11.9824 20.6422 12.1284C20.5767 12.3197 20.3548 12.7608 19.9817 13.4401C19.8243 13.7395 19.6365 14.022 19.4214 14.283C19.1839 14.5659 19.0343 14.6253 18.9506 14.6253C18.8283 14.6253 18.8027 14.3962 18.8027 14.2042C18.8027 13.6889 18.9364 13.1347 19.2009 12.5566C19.4739 11.9515 19.7762 11.6447 20.0995 11.6447C20.1664 11.6397 20.2332 11.6567 20.2895 11.6933C20.3442 11.7367 20.3442 11.7691 20.3442 11.7798C20.3431 11.799 20.346 11.8183 20.3528 11.8364C20.3595 11.8544 20.3699 11.8709 20.3834 11.8847C20.3968 11.8986 20.413 11.9094 20.4308 11.9167C20.4487 11.9239 20.4679 11.9274 20.4872 11.9268C20.507 11.929 20.5271 11.9271 20.5461 11.9211C20.5652 11.9151 20.5828 11.9052 20.5978 11.8921C20.6114 11.8786 20.6219 11.8624 20.6289 11.8446C20.6358 11.8268 20.6388 11.8077 20.6379 11.7887C20.6373 11.7228 20.6232 11.6578 20.5967 11.5976C20.5702 11.5374 20.5316 11.4832 20.4835 11.4383C20.4286 11.386 20.3637 11.3454 20.2926 11.3189C20.2216 11.2924 20.146 11.2805 20.0702 11.2841C19.9034 11.2849 19.7384 11.3183 19.5844 11.3824C19.1385 11.5793 18.7675 12.0014 18.4816 12.6372C18.2768 13.1037 18.1729 13.5404 18.1729 13.9352C18.1729 14.6442 18.419 15.0036 18.9045 15.0036C19.2989 15.0036 19.7574 14.5276 20.3039 13.5501C20.2818 13.714 20.27 13.8792 20.2687 14.0447C20.2687 14.6923 20.5007 15.0206 20.9584 15.0206C21.1077 15.0206 21.2735 14.9245 21.4651 14.7265C21.6484 14.5366 21.8119 14.3286 21.953 14.1056C22.0963 13.8811 22.2487 13.6176 22.406 13.3224C22.5664 13.0216 22.67 12.8198 22.7234 12.7045C22.7758 12.5909 22.8195 12.4998 22.853 12.4329L22.9016 12.3361L22.5243 12.3358Z"
          fill="url(#paint6_linear_4836_27799)"/>
    <path d="M24.4603 12.3358L24.1555 12.9539C23.9569 13.3537 23.7306 13.7391 23.4784 14.1075C23.1513 14.5873 22.9877 14.6589 22.9193 14.6589C22.8879 14.6589 22.7923 14.6589 22.7923 14.3682C22.7966 14.0962 22.8273 13.8253 22.884 13.5594C22.9191 13.3666 22.9492 13.2132 22.9761 13.0901C23.0039 12.9626 23.043 12.796 23.0934 12.5955C23.1432 12.3964 23.1803 12.2412 23.2034 12.1342C23.226 12.0315 23.2378 11.9267 23.2386 11.8215C23.2403 11.7322 23.2279 11.6431 23.2019 11.5577C23.1341 11.3379 23.0108 11.2917 22.9193 11.2917C22.8451 11.2917 22.7475 11.3313 22.7028 11.519C22.6849 11.5911 22.6677 11.6671 22.6517 11.7449C22.6357 11.8227 22.6206 11.8873 22.6066 11.9381C22.5927 11.9879 22.5746 12.0603 22.5513 12.1587C22.3211 13.0687 22.2043 13.7369 22.2043 14.145C22.2043 14.8681 22.5793 15.0198 22.8938 15.0198C23.0431 15.0198 23.2089 14.9237 23.4005 14.7257C23.5839 14.5357 23.7475 14.3277 23.889 14.1047C24.0324 13.8793 24.1847 13.6158 24.3416 13.3216C24.502 13.0208 24.6056 12.819 24.659 12.7037C24.7114 12.5901 24.7551 12.499 24.7886 12.4321L24.8372 12.3353L24.4603 12.3358Z"
          fill="url(#paint7_linear_4836_27799)"/>
    <path d="M23.1803 10.7186C23.2726 10.7127 23.3612 10.6799 23.435 10.624C23.5206 10.5771 23.592 10.5081 23.6419 10.4241C23.6918 10.3402 23.7182 10.2444 23.7186 10.1468C23.7186 9.86156 23.5554 9.81925 23.4579 9.81925C23.3938 9.81828 23.3311 9.83748 23.2785 9.87414C23.226 9.9108 23.1863 9.96306 23.1651 10.0235C23.1169 10.1332 23.0802 10.2477 23.0558 10.3651C23.0358 10.4615 23.0118 10.4758 23.0119 10.4759H22.9196L22.9564 10.5871C22.9743 10.6468 23.0278 10.7186 23.1803 10.7186Z"
          fill="url(#paint8_linear_4836_27799)"/>
    <path d="M26.9757 11.9315C26.985 11.7527 26.9283 11.5766 26.8163 11.4369C26.7578 11.3734 26.6859 11.3237 26.6059 11.2914C26.5258 11.259 26.4396 11.2448 26.3534 11.2497C25.9064 11.2497 25.4597 11.7162 24.9921 12.6735L25.0552 12.3573C25.0777 12.2545 25.0895 12.1497 25.0904 12.0445C25.0911 11.9498 25.0756 11.8556 25.0446 11.7661C24.9691 11.548 24.845 11.5022 24.7542 11.5022C24.6854 11.5022 24.5656 11.5327 24.5369 11.734C24.219 13.5061 24.0645 14.4324 24.0645 14.5657C24.0645 14.92 24.2291 14.9946 24.3671 14.9946C24.4418 14.9946 24.5393 14.9531 24.5799 14.7558C24.6042 14.6361 24.7024 14.3347 24.8717 13.8601C25.06 13.3433 25.2866 12.8413 25.5496 12.3583C25.8853 11.7334 26.0987 11.6022 26.2186 11.6022C26.2897 11.6022 26.3623 11.6258 26.3623 11.8006C26.3623 11.9711 26.2766 12.376 26.1079 13.0037C25.9361 13.6431 25.849 14.129 25.849 14.448C25.849 15.1365 26.1508 15.2808 26.4038 15.2808C26.4826 15.2819 26.5594 15.2561 26.6216 15.2078C26.6506 15.1892 26.6749 15.1641 26.6926 15.1345C26.7102 15.1049 26.7207 15.0715 26.7232 15.0371V14.9703H26.6564C26.5704 14.9703 26.5211 14.7953 26.5211 14.4901C26.5211 14.2494 26.5969 13.8098 26.7465 13.184C26.9006 12.5393 26.9757 12.1294 26.9757 11.9315Z"
          fill="url(#paint9_linear_4836_27799)"/>
    <path d="M11.311 21.6855C11.3128 21.6822 11.3137 21.6785 11.3135 21.6747C11.3132 21.671 11.3119 21.6673 11.3097 21.6643C11.3075 21.6612 11.3044 21.6589 11.3009 21.6575C11.2974 21.6562 11.2936 21.6558 11.2899 21.6566C11.2832 21.6578 11.277 21.6606 11.2715 21.6646C11.2661 21.6686 11.2616 21.6738 11.2585 21.6797C11.2481 21.6971 11.2441 21.7176 11.2472 21.7376C11.2492 21.7507 11.2545 21.763 11.2627 21.7733C11.2712 21.7838 11.2822 21.7921 11.2947 21.7973C11.3072 21.8025 11.3208 21.8045 11.3343 21.8032C11.3495 21.8019 11.3643 21.7973 11.3776 21.7898C11.3862 21.7854 11.3943 21.7798 11.4015 21.7733C11.4175 21.7592 11.4297 21.7413 11.4371 21.7214C11.4481 21.6905 11.4518 21.6575 11.4478 21.625C11.4465 21.6114 11.4441 21.598 11.4406 21.5849C11.4384 21.5751 11.4365 21.5658 11.4345 21.5565C11.43 21.5379 11.425 21.5186 11.4191 21.4982C11.3558 21.2874 11.241 21.0958 11.0849 20.9406C11.0737 20.929 11.0571 20.9117 11.0352 20.8886C11.0121 20.8666 10.9821 20.8408 10.9479 20.8098C10.9089 20.7736 10.8681 20.7394 10.8256 20.7073C10.7779 20.6714 10.7269 20.6285 10.6663 20.5899C10.3619 20.3859 10.0328 20.2214 9.68693 20.1003C9.48387 20.0265 9.2639 19.9582 9.03263 19.8965C8.80137 19.8348 8.56021 19.7788 8.3123 19.7222C7.81715 19.6094 7.29634 19.4998 6.78876 19.3641C6.29548 19.2388 5.81436 19.0699 5.3511 18.8592C4.95259 18.6761 4.57867 18.4437 4.23815 18.1673C3.99838 17.9718 3.78173 17.7495 3.59241 17.5048C3.56153 17.4643 3.53121 17.4245 3.50144 17.3854C3.47979 17.3549 3.45833 17.3249 3.43688 17.2949C3.40098 17.2462 3.37886 17.2217 3.37271 17.225C3.36656 17.2283 3.37685 17.2595 3.40145 17.3156C3.41402 17.3436 3.42959 17.3783 3.44991 17.4181C3.47477 17.4617 3.5002 17.506 3.52617 17.5511C3.69432 17.8228 3.89938 18.0698 4.13549 18.2851C4.47093 18.5924 4.84619 18.8532 5.25118 19.0605C5.7184 19.2978 6.20681 19.4908 6.71002 19.637C7.22228 19.7928 7.74363 19.9193 8.23236 20.0454C8.47659 20.1086 8.71468 20.1709 8.93592 20.2361C9.15716 20.3013 9.3657 20.3721 9.55525 20.4463C9.86857 20.5641 10.166 20.7206 10.4405 20.9122C10.494 20.9474 10.5369 20.9857 10.5778 21.0176C10.6141 21.0457 10.6488 21.0758 10.6817 21.1077C10.711 21.1345 10.7359 21.1578 10.7552 21.1759C10.7741 21.196 10.7878 21.2107 10.7968 21.2204C10.9457 21.3753 11.0739 21.5204 11.1693 21.6326C11.1821 21.6465 11.1945 21.6594 11.2065 21.6713C11.212 21.677 11.2179 21.6825 11.224 21.6876C11.2273 21.6892 11.2307 21.6906 11.2341 21.6918C11.235 21.692 11.2359 21.6922 11.2367 21.6923L11.2456 21.6909L11.2589 21.6892C11.2719 21.6875 11.2851 21.6878 11.2979 21.6903C11.302 21.6909 11.3059 21.6924 11.3093 21.6947C11.3082 21.6937 11.3072 21.6926 11.3064 21.6914V21.6914C11.3064 21.6914 11.3245 21.7172 11.316 21.7047L11.3168 21.7058C11.3172 21.7063 11.3176 21.7068 11.3179 21.7074C11.3189 21.7107 11.3191 21.7111 11.3191 21.7111C11.3203 21.7074 11.3225 21.7041 11.3254 21.7014C11.3294 21.6975 11.3339 21.6942 11.3388 21.6916C11.3294 21.6947 11.3194 21.6956 11.3097 21.6942C11.3035 21.6924 11.3035 21.6907 11.3038 21.6918C11.305 21.694 11.3043 21.6961 11.3038 21.7004C11.3034 21.7047 11.3038 21.7017 11.3046 21.7L11.3063 21.6951L11.311 21.6855Z"
          fill="url(#paint10_linear_4836_27799)"/>
    <path d="M3.63605 17.8249C4.0667 18.2448 4.42235 18.6935 4.92265 19.0422C5.39638 19.3725 5.92093 19.6232 6.47554 19.7842C7.58174 20.104 8.74221 20.0209 9.88022 20.0759C10.9121 20.1256 11.997 20.3062 12.8523 20.923C13.1681 21.1508 13.5879 21.5122 13.689 21.9101C13.777 22.2569 13.4884 22.6157 13.1763 22.7335C12.8573 22.8543 12.4089 22.68 12.4155 22.2873C12.4211 21.9581 12.8372 21.7732 13.067 22.0099C13.0809 22.0248 13.0885 22.0445 13.0882 22.0648C13.088 22.0852 13.0799 22.1047 13.0657 22.1192C13.0514 22.1338 13.0321 22.1423 13.0118 22.143C12.9915 22.1437 12.9716 22.1365 12.9565 22.123C12.7742 21.9688 12.5237 22.2359 12.6314 22.4211C12.6697 22.4816 12.7249 22.5294 12.7902 22.5587C12.8555 22.588 12.928 22.5974 12.9986 22.5858C13.2248 22.5561 13.4771 22.3493 13.518 22.1147C13.5898 21.7003 12.9847 21.239 12.6884 21.0351C11.9965 20.5592 11.1413 20.3592 10.3142 20.2859C8.69141 20.1423 7.04575 20.3386 5.54493 19.5738C4.81905 19.2038 3.97332 18.6033 3.59989 17.8535C3.58866 17.8308 3.61627 17.806 3.63572 17.825L3.63605 17.8249Z"
          fill="url(#paint11_linear_4836_27799)"/>
    <path d="M3.55495 17.4261C4.17195 18.1351 5.01019 18.6213 5.96787 18.6382C6.44096 18.6467 6.90128 18.5288 7.36368 18.4443C7.73591 18.376 8.15727 18.2932 8.5281 18.3937C8.78001 18.462 9.01496 18.6706 8.9927 18.9541C8.96917 19.2528 8.6585 19.3837 8.39509 19.3927C8.1576 19.4004 7.8734 19.2649 7.87481 18.9906C7.87373 18.9391 7.88657 18.8883 7.91198 18.8436C7.93739 18.7988 7.97441 18.7618 8.01914 18.7363C8.06388 18.7109 8.11465 18.698 8.16611 18.699C8.21756 18.7 8.26779 18.7149 8.31147 18.7421C8.32735 18.7519 8.33886 18.7674 8.34358 18.7855C8.3483 18.8035 8.34587 18.8227 8.3368 18.839C8.32774 18.8553 8.31273 18.8675 8.29491 18.873C8.27709 18.8785 8.25783 18.8769 8.24115 18.8685C8.17877 18.9216 8.11612 18.9746 8.0532 19.0274C8.06515 19.0738 8.09217 19.1151 8.13004 19.1445C8.1679 19.174 8.21448 19.1901 8.26247 19.1903C8.34727 19.2122 8.43638 19.211 8.52054 19.1868C8.75522 19.1256 8.89358 18.882 8.70101 18.6887C8.46807 18.4551 7.99605 18.5282 7.69775 18.5645C7.15113 18.6317 6.6136 18.7907 6.06017 18.7898C5.06894 18.7881 4.05832 18.2989 3.5101 17.4618C3.49259 17.4351 3.53356 17.4017 3.55508 17.4264L3.55495 17.4261Z"
          fill="url(#paint12_linear_4836_27799)"/>
    <path d="M10.7073 20.2948C11.0883 20.1868 11.4797 20.3591 11.7978 20.5597C12.06 20.7251 12.4534 20.9704 12.4075 21.3351C12.3748 21.5964 12.0795 21.7519 11.8589 21.5878C11.6717 21.4483 11.691 21.1112 11.9278 21.0412C11.9376 21.0386 11.948 21.0389 11.9576 21.0422C11.9672 21.0454 11.9757 21.0514 11.982 21.0593C11.9883 21.0673 11.9921 21.0769 11.993 21.087C11.9939 21.0972 11.9919 21.1073 11.9871 21.1163C11.9713 21.1405 11.9561 21.1652 11.9413 21.1898C11.8737 21.2856 11.9169 21.3831 12.0709 21.4825C12.1261 21.3866 12.1812 21.2908 12.2361 21.195C12.2181 21.1265 12.1813 21.0643 12.13 21.0154C12.0036 20.8753 11.857 20.7549 11.6952 20.6578C11.4068 20.4596 11.0654 20.3529 10.7154 20.3516C10.7086 20.3515 10.702 20.3489 10.6968 20.3444C10.6917 20.3398 10.6883 20.3336 10.6873 20.3268C10.6863 20.32 10.6878 20.3131 10.6915 20.3072C10.6951 20.3014 10.7007 20.2971 10.7073 20.295V20.2948Z"
          fill="url(#paint13_linear_4836_27799)"/>
    <path d="M3.84276 18.2788C4.50735 19.0481 5.29178 19.769 6.29364 20.0484C7.21463 20.3051 8.26121 20.1327 9.10385 20.6557C9.3158 20.7872 9.66725 21.0349 9.6091 21.3359C9.5585 21.5992 9.23573 21.7192 9.00165 21.654C8.42443 21.4936 8.86336 20.7537 9.18479 21.0776C9.22757 21.1208 9.17042 21.2064 9.11742 21.168C9.01609 21.0944 8.84966 21.2173 8.87626 21.3324C8.90106 21.4405 9.04771 21.5077 9.15552 21.5008C9.28653 21.4924 9.4448 21.3544 9.43852 21.2122C9.43491 21.1329 9.32783 21.0417 9.27877 20.9935C9.02993 20.749 8.69566 20.6058 8.36307 20.5162C7.75443 20.3521 7.11477 20.3688 6.49971 20.2355C5.38195 19.994 4.46317 19.2179 3.82612 18.2916C3.81944 18.2817 3.83461 18.2694 3.8425 18.2782L3.84276 18.2788Z"
          fill="url(#paint14_linear_4836_27799)"/>
    <path d="M3.76795 17.7536C3.99941 17.9407 4.27807 18.0009 4.46917 17.71C4.50814 17.6351 4.55579 17.5649 4.61113 17.5011C4.76794 17.346 4.99807 17.2562 5.20681 17.1989C5.65253 17.0801 6.12517 17.1134 6.54982 17.2935C6.56858 17.3045 6.58233 17.3223 6.58815 17.3432C6.59397 17.3642 6.59139 17.3865 6.58097 17.4056C6.37269 17.8582 5.93857 18.0909 5.47403 18.2036C5.06083 18.3035 4.5616 18.4074 4.22072 18.0934C4.20988 18.0821 4.2021 18.0683 4.19812 18.0532C4.19414 18.038 4.19409 18.0222 4.19798 18.007C4.20186 17.9919 4.20955 17.978 4.22032 17.9666C4.23108 17.9553 4.24457 17.9469 4.25949 17.9423C4.77335 17.7324 5.31482 17.5212 5.86257 17.4259C5.8786 17.4218 5.8956 17.4242 5.90992 17.4324C5.92425 17.4407 5.93477 17.4543 5.93924 17.4702C5.9437 17.4861 5.94177 17.5032 5.93384 17.5177C5.92591 17.5322 5.91261 17.543 5.89679 17.5479C5.36261 17.7196 4.84012 17.8661 4.329 18.1062C4.33482 18.0588 4.34103 18.0116 4.34685 17.9643C4.65498 18.2274 5.15995 18.1038 5.51608 18.0096C5.90802 17.9058 6.2584 17.7052 6.43786 17.326C6.44809 17.3633 6.45872 17.4007 6.46934 17.4382C5.87688 17.1893 4.94025 17.1921 4.58633 17.8183C4.40079 18.1469 3.92602 18.0797 3.70846 17.8141C3.70115 17.8061 3.69719 17.7956 3.6974 17.7847C3.6976 17.7738 3.70196 17.7635 3.70957 17.7557C3.71719 17.748 3.72748 17.7434 3.73833 17.743C3.74919 17.7426 3.75978 17.7464 3.76795 17.7536V17.7536Z"
          fill="url(#paint15_linear_4836_27799)"/>
    <path d="M5.15482 18.5782C5.44532 18.5786 5.73438 18.5374 6.01324 18.456C6.2806 18.3744 6.38534 18.1659 6.59689 18.0102C6.74736 17.9018 6.92104 17.8301 7.10412 17.8006C7.28719 17.7711 7.47461 17.7848 7.65148 17.8405C7.66126 17.843 7.67033 17.8478 7.678 17.8544C7.68567 17.861 7.69175 17.8692 7.69577 17.8785C7.69979 17.8878 7.70166 17.8979 7.70122 17.908C7.70079 17.9181 7.69806 17.928 7.69326 17.9369C7.35759 18.4042 6.74193 18.4841 6.20942 18.4115C6.13402 18.4013 6.15334 18.2868 6.22399 18.2824C6.72743 18.2516 7.24456 18.3197 7.58872 17.8586C7.59922 17.8955 7.60931 17.9321 7.61974 17.9691C7.38917 17.8883 7.13808 17.8877 6.90716 17.9675C6.7709 18.0138 6.64509 18.0865 6.53687 18.1814C6.45973 18.2506 6.40673 18.3469 6.32532 18.41C6.03436 18.6348 5.49978 18.6385 5.15562 18.6128C5.13403 18.6112 5.13229 18.5784 5.15488 18.5781L5.15482 18.5782Z"
          fill="url(#paint16_linear_4836_27799)"/>
    <path d="M18.0797 18.4385C18.0791 18.4343 18.0774 18.4305 18.0747 18.4273C18.0719 18.4241 18.0684 18.4218 18.0644 18.4207C18.0603 18.4195 18.0561 18.4195 18.0521 18.4207C18.0481 18.4219 18.0445 18.4242 18.0418 18.4274C18.0369 18.4329 18.0332 18.4395 18.0312 18.4467C18.0291 18.4539 18.0287 18.4614 18.0299 18.4687C18.0326 18.4909 18.0429 18.5115 18.0591 18.5268C18.0695 18.5369 18.0825 18.5441 18.0966 18.5476C18.1111 18.5511 18.1262 18.5509 18.1406 18.547C18.1551 18.5432 18.1683 18.5358 18.1792 18.5256C18.1916 18.5141 18.2014 18.5001 18.2079 18.4846C18.2125 18.4749 18.2158 18.4646 18.2177 18.454C18.2221 18.4309 18.2208 18.4071 18.2138 18.3847C18.2027 18.3503 18.1837 18.319 18.1583 18.2933C18.148 18.2823 18.1369 18.2722 18.1249 18.263C18.1164 18.2563 18.1084 18.2491 18.1004 18.2424C18.0841 18.229 18.0667 18.2157 18.0479 18.2018C17.8508 18.0603 17.6216 17.9701 17.381 17.9395C17.3634 17.9369 17.3372 17.9329 17.3025 17.9275C17.2676 17.9239 17.224 17.9214 17.1732 17.9174C17.1148 17.912 17.0561 17.9096 16.9974 17.9102C16.9316 17.9109 16.8582 17.9077 16.7793 17.9148C16.3762 17.9414 15.9781 18.0191 15.5945 18.1461C15.3673 18.2182 15.1294 18.3065 14.886 18.4083C14.6427 18.51 14.3942 18.6233 14.1396 18.7407C13.6313 18.9753 13.1026 19.23 12.5679 19.4529C12.0528 19.6754 11.5189 19.8515 10.9725 19.9791C10.5013 20.0874 10.0183 20.1359 9.53499 20.1235C9.19401 20.1142 8.85522 20.0658 8.52524 19.9793C8.47097 19.9648 8.4177 19.9504 8.36543 19.9363C8.32599 19.9243 8.28709 19.9124 8.24819 19.9007C8.18409 19.8824 8.14826 19.8757 8.14512 19.8828C8.14198 19.8898 8.17186 19.9102 8.23121 19.9426C8.26102 19.9586 8.29805 19.9784 8.34243 19.9995C8.39346 20.0208 8.44546 20.0424 8.49844 20.0643C8.82811 20.1885 9.17343 20.2663 9.5245 20.2955C10.0242 20.3382 10.5274 20.3135 11.0205 20.222C11.5883 20.1149 12.1447 19.9549 12.6827 19.7441C13.2348 19.5356 13.7754 19.2952 14.2868 19.0766C14.5428 18.9675 14.7926 18.8618 15.0297 18.7697C15.2668 18.6777 15.4966 18.5995 15.7121 18.5367C16.065 18.4288 16.4301 18.3654 16.7987 18.3481C16.869 18.3429 16.9324 18.3474 16.9896 18.3477C17.0401 18.3479 17.0907 18.3508 17.141 18.3566C17.1848 18.3605 17.222 18.3639 17.2512 18.3666C17.2812 18.3714 17.3031 18.375 17.3174 18.3774C17.5513 18.4127 17.7612 18.4531 17.9201 18.4869C17.9406 18.4903 17.9602 18.4935 17.9785 18.4957C17.9873 18.497 17.9961 18.4978 18.0049 18.4981C18.0089 18.4973 18.0127 18.4963 18.0165 18.495C18.0174 18.4946 18.0183 18.4941 18.0191 18.4936L18.0258 18.4865L18.0363 18.476C18.0465 18.4658 18.0582 18.4572 18.0711 18.4508C18.0751 18.4485 18.0795 18.4472 18.084 18.447C18.0824 18.4469 18.0807 18.4466 18.0792 18.446V18.446L18.0967 18.4514H18.0972H18.0986C18.0993 18.4516 18.1 18.4519 18.1006 18.4522C18.1037 18.4543 18.1042 18.4546 18.1042 18.4546C18.1027 18.4505 18.1024 18.4461 18.1032 18.4419C18.104 18.4359 18.1056 18.43 18.1081 18.4244C18.102 18.4335 18.0939 18.441 18.0844 18.4464C18.0777 18.4488 18.0767 18.4474 18.0777 18.4481C18.0802 18.4493 18.081 18.4516 18.0835 18.4556C18.0859 18.4596 18.0845 18.4566 18.0838 18.4548L18.0821 18.4493L18.0797 18.4385Z"
          fill="url(#paint17_linear_4836_27799)"/>
    <path d="M9.06057 20.2365C10.1402 20.5376 11.3004 20.7212 12.3909 20.3666C13.3935 20.0406 14.249 19.2437 15.3422 19.2102C15.6171 19.2017 16.0908 19.2149 16.2211 19.5267C16.3353 19.7995 16.112 20.1065 15.8572 20.1895C15.2289 20.394 15.1811 19.447 15.674 19.5484C15.7395 19.5618 15.7393 19.6754 15.6673 19.6725C15.5295 19.6669 15.4514 19.8811 15.5461 19.9706C15.6348 20.0547 15.8104 20.027 15.9052 19.9549C16.0205 19.8672 16.0816 19.644 15.9891 19.5173C15.9375 19.4466 15.7835 19.4282 15.709 19.4138C15.3314 19.3411 14.9371 19.4138 14.577 19.5341C13.9179 19.7547 13.3404 20.1602 12.6946 20.4133C11.5207 20.8734 10.2036 20.7208 9.05368 20.2588C9.04132 20.2539 9.048 20.2332 9.0607 20.2368L9.06057 20.2365Z"
          fill="url(#paint18_linear_4836_27799)"/>
    <defs>
        <linearGradient id="paint0_linear_4836_27799" x1="-23.4801" y1="4.27649" x2="-13.2156" y2="4.27649"
                        gradientUnits="userSpaceOnUse">
            <stop stop-color="white"/>
            <stop offset="0.998" stop-color="#D9D9D9"/>
        </linearGradient>
        <linearGradient id="paint1_linear_4836_27799" x1="-25.8001" y1="14.6389" x2="-13.6322" y2="14.6389"
                        gradientUnits="userSpaceOnUse">
            <stop stop-color="white"/>
            <stop offset="0.998" stop-color="#D9D9D9"/>
        </linearGradient>
        <linearGradient id="paint2_linear_4836_27799" x1="3" y1="13.2608" x2="8.88341" y2="13.2608"
                        gradientUnits="userSpaceOnUse">
            <stop stop-color="white"/>
            <stop offset="0.998" stop-color="#D9D9D9"/>
        </linearGradient>
        <linearGradient id="paint3_linear_4836_27799" x1="9.59949" y1="10.2689" x2="10.3986" y2="10.2689"
                        gradientUnits="userSpaceOnUse">
            <stop stop-color="white"/>
            <stop offset="0.998" stop-color="#D9D9D9"/>
        </linearGradient>
        <linearGradient id="paint4_linear_4836_27799" x1="8.8844" y1="13.1811" x2="13.5717" y2="13.1811"
                        gradientUnits="userSpaceOnUse">
            <stop stop-color="white"/>
            <stop offset="0.998" stop-color="#D9D9D9"/>
        </linearGradient>
        <linearGradient id="paint5_linear_4836_27799" x1="12.2894" y1="11.641" x2="17.9798" y2="11.641"
                        gradientUnits="userSpaceOnUse">
            <stop stop-color="white"/>
            <stop offset="0.998" stop-color="#D9D9D9"/>
        </linearGradient>
        <linearGradient id="paint6_linear_4836_27799" x1="18.1729" y1="13.152" x2="22.9016" y2="13.152"
                        gradientUnits="userSpaceOnUse">
            <stop stop-color="white"/>
            <stop offset="0.998" stop-color="#D9D9D9"/>
        </linearGradient>
        <linearGradient id="paint7_linear_4836_27799" x1="22.2043" y1="13.1558" x2="24.8372" y2="13.1558"
                        gradientUnits="userSpaceOnUse">
            <stop stop-color="white"/>
            <stop offset="0.998" stop-color="#D9D9D9"/>
        </linearGradient>
        <linearGradient id="paint8_linear_4836_27799" x1="22.9196" y1="10.2689" x2="23.7186" y2="10.2689"
                        gradientUnits="userSpaceOnUse">
            <stop stop-color="white"/>
            <stop offset="0.998" stop-color="#D9D9D9"/>
        </linearGradient>
        <linearGradient id="paint9_linear_4836_27799" x1="24.0645" y1="13.2648" x2="26.9767" y2="13.2648"
                        gradientUnits="userSpaceOnUse">
            <stop stop-color="white"/>
            <stop offset="0.998" stop-color="#D9D9D9"/>
        </linearGradient>
        <linearGradient id="paint10_linear_4836_27799" x1="-13.8037" y1="23.3238" x2="-4.48932" y2="23.3238"
                        gradientUnits="userSpaceOnUse">
            <stop stop-color="white"/>
            <stop offset="0.998" stop-color="#D9D9D9"/>
        </linearGradient>
        <linearGradient id="paint11_linear_4836_27799" x1="-16.0319" y1="23.0932" x2="-4.98416" y2="23.0932"
                        gradientUnits="userSpaceOnUse">
            <stop stop-color="white"/>
            <stop offset="0.998" stop-color="#D9D9D9"/>
        </linearGradient>
        <linearGradient id="paint12_linear_4836_27799" x1="-10.3247" y1="22.7647" x2="-4.71013" y2="22.7647"
                        gradientUnits="userSpaceOnUse">
            <stop stop-color="white"/>
            <stop offset="0.998" stop-color="#D9D9D9"/>
        </linearGradient>
        <linearGradient id="paint13_linear_4836_27799" x1="-14.4916" y1="22.543" x2="-12.4484" y2="22.543"
                        gradientUnits="userSpaceOnUse">
            <stop stop-color="white"/>
            <stop offset="0.998" stop-color="#D9D9D9"/>
        </linearGradient>
        <linearGradient id="paint14_linear_4836_27799" x1="-12.0198" y1="24.0285" x2="-5.40645" y2="24.0285"
                        gradientUnits="userSpaceOnUse">
            <stop stop-color="white"/>
            <stop offset="0.998" stop-color="#D9D9D9"/>
        </linearGradient>
        <linearGradient id="paint15_linear_4836_27799" x1="-7.41484" y1="22.7407" x2="-5.04771" y2="22.7407"
                        gradientUnits="userSpaceOnUse">
            <stop stop-color="white"/>
            <stop offset="0.998" stop-color="#D9D9D9"/>
        </linearGradient>
        <linearGradient id="paint16_linear_4836_27799" x1="-8.63792" y1="22.696" x2="-6.70828" y2="22.696"
                        gradientUnits="userSpaceOnUse">
            <stop stop-color="white"/>
            <stop offset="0.998" stop-color="#D9D9D9"/>
        </linearGradient>
        <linearGradient id="paint17_linear_4836_27799" x1="-16.9932" y1="2.31123" x2="-6.72636" y2="2.31123"
                        gradientUnits="userSpaceOnUse">
            <stop stop-color="white"/>
            <stop offset="0.998" stop-color="#D9D9D9"/>
        </linearGradient>
        <linearGradient id="paint18_linear_4836_27799" x1="-14.5913" y1="4.86247" x2="-7.30021" y2="4.86247"
                        gradientUnits="userSpaceOnUse">
            <stop stop-color="white"/>
            <stop offset="0.998" stop-color="#D9D9D9"/>
        </linearGradient>
    </defs>
</svg>
