<svg width="30" height="30" viewBox="0 0 40 40" fill="none" xmlns="http://www.w3.org/2000/svg">
    <path d="M20 0C9 0 0 9 0 20C0 31 9 40 20 40C31 40 40 31 40 20C40 9 31 0 20 0ZM12.86 24.88L10.14 23.66C10.7 22.54 11 21.34 11 20.1C11 18.78 10.7 17.52 10.14 16.34L12.86 15.12C13.62 16.74 14 18.4 14 20.1C14 21.6 13.62 23.2 12.86 24.88ZM19.06 27.88L16.44 26.58C17.5 24.32 18 22 18 19.72C18 17.46 17.5 15.38 16.44 13.42L19.06 11.92C20.38 14.24 21 16.84 21 19.72C21 22.66 20.38 25.38 19.06 27.88ZM25.36 30.7L22.62 29.3C24.2 26.22 25 23.14 25 20C25 16.86 24.2 13.74 22.62 10.62L25.36 9.3C27.1 12.86 28 16.44 28 20C28 23.64 27.1 27.2 25.36 30.7Z"
          fill="url(#paint0_linear_125_643)"/>
    <defs>
        <linearGradient id="paint0_linear_125_643" x1="-6.09215e-08" y1="20.2108" x2="41.8202" y2="20.2051"
                        gradientUnits="userSpaceOnUse">
            <stop offset="0.00394562" stop-color="#F44554"/>
            <stop offset="1" stop-color="#3271E1"/>
        </linearGradient>
    </defs>
</svg>
