<svg width="60" height="61" viewBox="0 0 60 61" fill="none" xmlns="http://www.w3.org/2000/svg">
    <path d="M47.3269 13.6102C44.1395 12.1728 40.7229 11.1103 37.1501 10.5061C37.1182 10.5 37.0853 10.504 37.0558 10.5174C37.0263 10.5308 37.0018 10.5531 36.9855 10.5811C36.548 11.3499 36.0605 12.3519 35.7189 13.1436C31.9296 12.5774 28.0772 12.5774 24.2879 13.1436C23.9074 12.2662 23.4783 11.4108 23.0026 10.5811C22.9864 10.5528 22.962 10.53 22.9326 10.5159C22.9032 10.5017 22.8702 10.4969 22.838 10.502C19.2673 11.1061 15.8507 12.1686 12.6612 13.6081C12.6338 13.6196 12.6105 13.6393 12.5945 13.6644C6.11139 23.1954 4.33435 32.4909 5.20725 41.6698C5.20967 41.6923 5.21665 41.7141 5.22775 41.7338C5.23886 41.7535 5.25385 41.7707 5.27183 41.7844C9.05587 44.5394 13.2765 46.6381 17.7569 47.9926C17.7881 48.0022 17.8215 48.0022 17.8527 47.9925C17.884 47.9828 17.9115 47.964 17.9319 47.9384C18.8943 46.6468 19.7527 45.2822 20.486 43.8489C20.5297 43.7656 20.4881 43.6656 20.4006 43.6323C19.0548 43.1255 17.7508 42.5139 16.5007 41.8032C16.4782 41.7903 16.4593 41.7721 16.4456 41.7502C16.4319 41.7283 16.4239 41.7033 16.4222 41.6774C16.4205 41.6516 16.4253 41.6258 16.4361 41.6023C16.4469 41.5788 16.4634 41.5583 16.484 41.5427C16.7465 41.349 17.009 41.1469 17.259 40.9449C17.2815 40.9267 17.3086 40.9151 17.3373 40.9114C17.366 40.9078 17.3951 40.9121 17.4215 40.924C25.6025 44.5989 34.4626 44.5989 42.5478 40.924C42.5743 40.9114 42.6037 40.9065 42.6328 40.9098C42.6619 40.9131 42.6895 40.9245 42.7124 40.9428C42.9624 41.1469 43.2228 41.349 43.4874 41.5427C43.5082 41.558 43.525 41.5782 43.5361 41.6015C43.5472 41.6248 43.5524 41.6505 43.5512 41.6763C43.5499 41.7021 43.5423 41.7272 43.529 41.7493C43.5157 41.7715 43.4971 41.79 43.4749 41.8032C42.2291 42.5198 40.9333 43.126 39.5729 43.6302C39.552 43.6378 39.533 43.6497 39.5171 43.6653C39.5012 43.6808 39.4888 43.6995 39.4807 43.7202C39.4726 43.7409 39.469 43.7631 39.4702 43.7853C39.4714 43.8075 39.4773 43.8292 39.4875 43.8489C40.2375 45.2801 41.0958 46.6426 42.0395 47.9363C42.0591 47.9629 42.0865 47.9827 42.1178 47.9931C42.1491 48.0036 42.1829 48.0041 42.2145 47.9946C46.7026 46.6439 50.9301 44.5443 54.7183 41.7844C54.7368 41.7715 54.7523 41.7548 54.7638 41.7354C54.7753 41.716 54.7825 41.6943 54.785 41.6719C55.8266 31.0597 53.0392 21.8392 47.3914 13.6686C47.3776 13.642 47.3547 13.6213 47.3269 13.6102ZM21.7089 36.0804C19.2464 36.0804 17.2152 33.8534 17.2152 31.1222C17.2152 28.389 19.2068 26.164 21.7089 26.164C24.2296 26.164 26.2421 28.4077 26.2025 31.1222C26.2025 33.8555 24.2109 36.0804 21.7089 36.0804ZM38.323 36.0804C35.8584 36.0804 33.8293 33.8534 33.8293 31.1222C33.8293 28.389 35.8189 26.164 38.323 26.164C40.8437 26.164 42.8562 28.4077 42.8166 31.1222C42.8166 33.8555 40.8458 36.0804 38.323 36.0804Z"
          fill="#F2F2F2"/>
</svg>
