<svg width="60" height="61" viewBox="0 0 60 61" fill="none" xmlns="http://www.w3.org/2000/svg">
    <path fill-rule="evenodd" clip-rule="evenodd"
          d="M29.9989 7.67773C17.0767 7.67773 6.6001 18.1549 6.6001 31.0789C6.6001 41.4175 13.3033 50.1883 22.6027 53.2807C23.7739 53.4973 24.1999 52.7767 24.1999 52.1545C24.1999 51.6001 24.1795 50.1295 24.1693 48.1747C17.6599 49.5901 16.2865 45.0373 16.2865 45.0373C15.2221 42.3343 13.6879 41.6155 13.6879 41.6155C11.5633 40.1647 13.8493 40.1929 13.8493 40.1929C16.1977 40.3591 17.4337 42.6037 17.4337 42.6037C19.5205 46.1797 22.9111 45.1447 24.2437 44.5495C24.4555 43.0345 25.0615 42.0055 25.7293 41.4193C20.5339 40.8289 15.0715 38.8213 15.0715 29.8549C15.0715 27.2995 15.9829 25.2103 17.4793 23.5741C17.2399 22.9849 16.4353 20.6059 17.7091 17.3827C17.7091 17.3827 19.6735 16.7539 24.1447 19.7833C26.0101 19.2619 28.0123 19.0015 30.0025 18.9937C31.9897 19.0021 33.9925 19.2619 35.8603 19.7833C40.3285 16.7539 42.2899 17.3827 42.2899 17.3827C43.5667 20.6059 42.7627 22.9849 42.5227 23.5741C44.0227 25.2103 44.9275 27.2995 44.9275 29.8549C44.9275 38.8423 39.4573 40.8223 34.2445 41.3995C35.0833 42.1225 35.8321 43.5535 35.8321 45.7369C35.8321 48.8635 35.8039 51.3865 35.8039 52.1539C35.8039 52.7809 36.2245 53.5099 37.4125 53.2777C46.7017 50.1787 53.4001 41.4145 53.4001 31.0789C53.4001 18.1549 42.9235 7.67773 29.9989 7.67773Z"
          fill="#F2F2F2"/>
</svg>
