<svg width="60" height="61" viewBox="0 0 60 61" fill="none" xmlns="http://www.w3.org/2000/svg">
    <path d="M53.1002 16.1714C51.3703 16.9377 49.5354 17.4405 47.6564 17.663C49.6355 16.4788 51.1165 14.6154 51.8234 12.4202C49.9632 13.5245 47.9276 14.3021 45.8048 14.7194C44.918 13.7734 43.8463 13.0197 42.6562 12.5049C41.4661 11.9901 40.1829 11.7252 38.8862 11.7266C33.6518 11.7266 29.4074 15.9698 29.4074 21.2054C29.4074 21.9476 29.4914 22.6718 29.6534 23.366C21.7754 22.9706 14.7914 19.1966 10.1162 13.4612C9.27328 14.9078 8.83033 16.5527 8.83284 18.227C8.83159 19.7876 9.21587 21.3243 9.95151 22.7007C10.6871 24.077 11.7514 25.2503 13.0496 26.1164C11.5447 26.0686 10.0728 25.6621 8.75664 24.9308C8.75544 24.9704 8.75544 25.0094 8.75544 25.0502C8.75544 29.6414 12.0224 33.4724 16.358 34.3442C14.962 34.7221 13.4983 34.7775 12.0776 34.5062C13.2836 38.2712 16.784 41.0126 20.9318 41.0894C17.5742 43.7243 13.4279 45.1535 9.15984 45.1472C8.39484 45.1472 7.64064 45.1028 6.89844 45.0146C11.2324 47.7993 16.2765 49.2773 21.428 49.2722C38.8628 49.2722 48.3968 34.8296 48.3968 22.3052C48.3968 21.8948 48.3872 21.485 48.3692 21.0776C50.226 19.7371 51.8281 18.0756 53.1002 16.1714Z"
          fill="#F2F2F2"/>
</svg>
