<svg width="60" height="61" viewBox="0 0 60 61" fill="none" xmlns="http://www.w3.org/2000/svg">
    <path d="M40.9 35.5C41.1 33.85 41.25 32.2 41.25 30.5C41.25 28.8 41.1 27.15 40.9 25.5H49.35C49.75 27.1 50 28.775 50 30.5C50 32.225 49.75 33.9 49.35 35.5H40.9ZM36.475 49.4C37.975 46.625 39.125 43.625 39.925 40.5H47.3C44.8779 44.6707 41.0353 47.83 36.475 49.4ZM35.85 35.5H24.15C23.9 33.85 23.75 32.2 23.75 30.5C23.75 28.8 23.9 27.125 24.15 25.5H35.85C36.075 27.125 36.25 28.8 36.25 30.5C36.25 32.2 36.075 33.85 35.85 35.5ZM30 50.4C27.925 47.4 26.25 44.075 25.225 40.5H34.775C33.75 44.075 32.075 47.4 30 50.4ZM20 20.5H12.7C15.0971 16.318 18.937 13.1537 23.5 11.6C22 14.375 20.875 17.375 20 20.5ZM12.7 40.5H20C20.875 43.625 22 46.625 23.5 49.4C18.9466 47.8292 15.1121 44.6693 12.7 40.5ZM10.65 35.5C10.25 33.9 10 32.225 10 30.5C10 28.775 10.25 27.1 10.65 25.5H19.1C18.9 27.15 18.75 28.8 18.75 30.5C18.75 32.2 18.9 33.85 19.1 35.5H10.65ZM30 10.575C32.075 13.575 33.75 16.925 34.775 20.5H25.225C26.25 16.925 27.925 13.575 30 10.575ZM47.3 20.5H39.925C39.1426 17.4036 37.9839 14.4147 36.475 11.6C41.075 13.175 44.9 16.35 47.3 20.5ZM30 5.5C16.175 5.5 5 16.75 5 30.5C5 37.1304 7.63392 43.4893 12.3223 48.1777C14.6438 50.4991 17.3998 52.3406 20.4329 53.597C23.4661 54.8534 26.717 55.5 30 55.5C36.6304 55.5 42.9893 52.8661 47.6777 48.1777C52.3661 43.4893 55 37.1304 55 30.5C55 27.217 54.3534 23.9661 53.097 20.9329C51.8406 17.8998 49.9991 15.1438 47.6777 12.8223C45.3562 10.5009 42.6002 8.65938 39.5671 7.40301C36.5339 6.14664 33.283 5.5 30 5.5Z"
          fill="#F2F2F2"/>
</svg>
