<svg width="60" height="61" viewBox="0 0 60 61" fill="none" xmlns="http://www.w3.org/2000/svg">
    <path d="M31.3547 12.5H31.6217C34.0879 12.509 46.5837 12.599 49.9529 13.5051C50.9714 13.7816 51.8996 14.3206 52.6445 15.0682C53.3895 15.8158 53.9252 16.7458 54.1981 17.7653C54.5012 18.9054 54.7142 20.4145 54.8582 21.9716L54.8882 22.2836L54.9542 23.0637L54.9782 23.3757C55.1732 26.1179 55.1972 28.686 55.2002 29.2471V29.4721C55.1972 30.0541 55.1702 32.7963 54.9542 35.6525L54.9302 35.9675L54.9032 36.2795C54.7532 37.9956 54.5312 39.6997 54.1981 40.9538C53.926 41.9737 53.3906 42.9042 52.6455 43.6519C51.9004 44.3996 50.9718 44.9384 49.9529 45.2141C46.4727 46.1501 33.2448 46.2161 31.4117 46.2191H30.9857C30.0586 46.2191 26.2244 46.2011 22.2041 46.0631L21.6941 46.0451L21.4331 46.0331L20.9201 46.0121L20.407 45.9911C17.0768 45.8441 13.9056 45.6071 12.4445 45.2111C11.4259 44.9356 10.4976 44.3974 9.75253 43.6502C9.00746 42.903 8.47182 41.9732 8.19926 40.9538C7.86624 39.7027 7.64422 37.9956 7.49421 36.2795L7.47021 35.9645L7.44621 35.6525C7.29814 33.6195 7.2161 31.5823 7.2002 29.5441L7.2002 29.175C7.2062 28.53 7.2302 26.3009 7.39221 23.8407L7.41321 23.5317L7.42221 23.3757L7.44621 23.0637L7.51221 22.2836L7.54222 21.9716C7.68623 20.4145 7.89924 18.9024 8.20226 17.7653C8.47436 16.7454 9.0098 15.8149 9.75489 15.0672C10.5 14.3195 11.4286 13.7808 12.4475 13.5051C13.9086 13.115 17.0798 12.875 20.41 12.725L20.9201 12.704L21.4361 12.686L21.6941 12.677L22.2071 12.656C25.0624 12.5641 27.9189 12.5131 30.7757 12.503H31.3547V12.5ZM26.4014 22.1306V36.5855L38.8732 29.3611L26.4014 22.1306Z"
          fill="#F2F2F2"/>
</svg>
