<svg width="49" height="45" viewBox="0 0 49 45" fill="none" xmlns="http://www.w3.org/2000/svg">
    <path d="M20.5584 2.55616L0.881449 38.3312C0.50454 39.0163 0.312672 39.7878 0.324756 40.5697C0.336841 41.3516 0.55246 42.1168 0.950361 42.79C1.34826 43.4631 1.91471 44.021 2.59388 44.4086C3.27304 44.7961 4.04148 45 4.82345 45.0002H44.1804C44.9624 45 45.7309 44.7961 46.41 44.4086C47.0892 44.021 47.6556 43.4631 48.0535 42.79C48.4514 42.1168 48.6671 41.3516 48.6791 40.5697C48.6912 39.7878 48.4994 39.0163 48.1225 38.3312L28.4424 2.55616C28.054 1.85062 27.4833 1.26226 26.7899 0.852495C26.0965 0.442726 25.3059 0.226563 24.5004 0.226562C23.695 0.226563 22.9044 0.442726 22.211 0.852495C21.5176 1.26226 20.9469 1.85062 20.5584 2.55616V2.55616ZM24.5004 14.2502C25.0972 14.2502 25.6695 14.4872 26.0914 14.9092C26.5134 15.3311 26.7504 15.9034 26.7504 16.5002V28.5002C26.7504 29.0969 26.5134 29.6692 26.0914 30.0912C25.6695 30.5131 25.0972 30.7502 24.5004 30.7502C23.9037 30.7502 23.3314 30.5131 22.9095 30.0912C22.4875 29.6692 22.2504 29.0969 22.2504 28.5002V16.5002C22.2504 15.9034 22.4875 15.3311 22.9095 14.9092C23.3314 14.4872 23.9037 14.2502 24.5004 14.2502ZM26.7504 35.2502C26.7504 35.8469 26.5134 36.4192 26.0914 36.8412C25.6695 37.2631 25.0972 37.5002 24.5004 37.5002C23.9037 37.5002 23.3314 37.2631 22.9095 36.8412C22.4875 36.4192 22.2504 35.8469 22.2504 35.2502C22.2504 34.6534 22.4875 34.0811 22.9095 33.6592C23.3314 33.2372 23.9037 33.0002 24.5004 33.0002C25.0972 33.0002 25.6695 33.2372 26.0914 33.6592C26.5134 34.0811 26.7504 34.6534 26.7504 35.2502Z"/>
</svg>
