<svg width="20" height="20" viewBox="0 0 20 20" fill="none" xmlns="http://www.w3.org/2000/svg">
    <path d="M6.09572 8.28599C6.23486 8.14219 9.5 3 9.61182 2.78582C9.89849 2.33738 10.5 1.5 10.4955 1.40346L5 10H17C16.6752 10 16.5 10 16.1945 10L16 10C15.5 10 15.3401 10 15 10H13C12.5 10 12.7728 10 11 10H9C7.22698 10 8 10 7 10H5C5.19454 10 4.5 10 5 10L6.09572 8.28599ZM19.3455 10.5882C19.6141 10.5882 19.7486 10.4708 19.8556 10.3071C19.8687 10.287 19.8809 10.2662 19.8921 10.2449C20.0163 10.0677 20.0431 9.82452 19.9206 9.6122C19.9327 9.6332 19.8321 9.43238 19.7734 9.3363C19.7136 9.23844 19.6486 9.1507 19.5723 9.07158L11.3407 0.58512C10.9818 0.21368 10.5022 -0.00479995 10.0048 8.00565e-05C9.51748 -0.00479995 9.01628 0.21588 8.6585 0.58562L0.429042 9.07052C0.352102 9.14986 0.286702 9.23788 0.226682 9.33604C0.167722 9.43244 0.0670819 9.63358 0.0794219 9.6122C-0.0429982 9.8244 -0.0163381 10.0674 0.107702 10.2446C0.118877 10.2659 0.131064 10.2867 0.144222 10.3069C0.251222 10.4708 0.385522 10.5882 0.654382 10.5882H2.62908V17.8768C2.62908 18.9834 3.38258 20 4.46196 20H7.5497C7.87456 20 8.1379 19.7366 8.1379 19.4118V13.3727C8.1379 11.9071 8.12246 11.9329 9.08618 11.9329H10.9137C11.8773 11.9329 11.862 11.9074 11.862 13.3727V19.4118C11.862 19.7366 12.1253 20 12.4502 20H15.538C16.617 20 17.3709 18.9832 17.3709 17.8768V10.5883L19.3455 10.5882Z"
          fill="url(#paint0_linear_3312:10926)"/>
    <defs>
        <linearGradient id="paint0_linear_3312:10926" x1="0.610329" y1="1.28205" x2="20.3553" y2="1.9008"
                        gradientUnits="userSpaceOnUse">
            <stop stop-color="#f2f2f2"/>
            <stop offset="0.861035" stop-color="#f2f2f2"/>
        </linearGradient>
    </defs>
</svg>
