<svg style="position: absolute; width: 0; height: 0; overflow: hidden;" version="1.1"
     xmlns="http://www.w3.org/2000/svg">
    <defs>
        <symbol id="icon-search" viewBox="0 0 34 32">
            <title>Search</title>
            <path fill="#f2f2f2" style="fill: var(--color1, #f2f2f2)"
                  d="M14.485 27.368c3.036-0.001 5.985-1.017 8.377-2.887l7.52 7.519 2.419-2.419-7.52-7.519c1.871-2.392 2.888-5.341 2.889-8.378 0-7.545-6.139-13.684-13.685-13.684s-13.685 6.139-13.685 13.684c0 7.545 6.139 13.684 13.685 13.684zM14.485 3.421c5.66 0 10.264 4.603 10.264 10.263s-4.603 10.263-10.264 10.263c-5.66 0-10.264-4.603-10.264-10.263s4.603-10.263 10.264-10.263z"/>
        </symbol>
        <symbol id="icon-close" viewBox="0 0 32 32">
            <title>Close</title>
            <path fill="#fff" style="fill: var(--color1, #fff)"
                  d="M32 3.2l-3.2-3.2-12.8 12.8-12.8-12.8-3.2 3.2 12.8 12.8-12.8 12.8 3.2 3.2 12.8-12.8 12.8 12.8 3.2-3.2-12.8-12.8 12.8-12.8z"/>
        </symbol>
        <symbol id="icon-full_screen" viewBox="0 0 32 32">
            <title>Full Screen</title>
            <path fill="#f2f2f2" style="fill: var(--color1, #f2f2f2)"
                  d="M3.492 20.148c-1.149 0-2.090 0.94-2.090 2.090v6.269c0 1.149 0.94 2.090 2.090 2.090h6.269c1.149 0 2.090-0.94 2.090-2.090s-0.94-2.090-2.090-2.090h-4.18v-4.18c0-1.149-0.94-2.090-2.090-2.090zM3.492 11.788c1.149 0 2.090-0.94 2.090-2.090v-4.18h4.18c1.149 0 2.090-0.94 2.090-2.090s-0.94-2.090-2.090-2.090h-6.269c-1.149 0-2.090 0.94-2.090 2.090v6.269c0 1.149 0.94 2.090 2.090 2.090zM26.479 26.417h-4.18c-1.149 0-2.090 0.94-2.090 2.090s0.94 2.090 2.090 2.090h6.269c1.149 0 2.090-0.94 2.090-2.090v-6.269c0-1.149-0.94-2.090-2.090-2.090s-2.090 0.94-2.090 2.090v4.18zM20.21 3.429c0 1.149 0.94 2.090 2.090 2.090h4.18v4.18c0 1.149 0.94 2.090 2.090 2.090s2.090-0.94 2.090-2.090v-6.269c0-1.149-0.94-2.090-2.090-2.090h-6.269c-1.149 0-2.090 0.94-2.090 2.090z"/>
        </symbol>
        <symbol id="icon-settings" viewBox="0 0 32 32">
            <title>Settings</title>
            <path fill="#f2f2f2" style="fill: var(--color1, #f2f2f2)"
                  d="M16.349 0.772c1.211 0.013 2.417 0.147 3.6 0.401 0.252 0.054 0.48 0.182 0.652 0.366s0.28 0.416 0.309 0.662l0.28 2.419c0.040 0.341 0.162 0.669 0.357 0.956s0.458 0.527 0.768 0.699c0.309 0.172 0.656 0.272 1.013 0.292s0.713-0.041 1.041-0.178l2.312-0.974c0.235-0.099 0.496-0.126 0.747-0.077s0.48 0.173 0.656 0.352c1.67 1.713 2.913 3.767 3.637 6.008 0.076 0.236 0.074 0.488-0.006 0.722s-0.234 0.439-0.441 0.585l-2.049 1.451c-0.288 0.203-0.523 0.469-0.684 0.775s-0.246 0.645-0.246 0.988 0.084 0.682 0.246 0.988c0.162 0.306 0.396 0.572 0.684 0.775l2.051 1.45c0.207 0.146 0.362 0.351 0.442 0.585s0.083 0.487 0.007 0.723c-0.724 2.241-1.967 4.295-3.637 6.008-0.175 0.18-0.403 0.303-0.654 0.352s-0.511 0.023-0.746-0.075l-2.322-0.978c-0.327-0.138-0.684-0.2-1.041-0.181s-0.704 0.119-1.014 0.29c-0.309 0.172-0.572 0.411-0.768 0.699s-0.317 0.615-0.356 0.956l-0.279 2.418c-0.028 0.244-0.134 0.473-0.303 0.656s-0.393 0.313-0.641 0.369c-2.39 0.546-4.88 0.546-7.27 0-0.248-0.057-0.472-0.186-0.641-0.369s-0.275-0.413-0.303-0.656l-0.277-2.415c-0.040-0.34-0.163-0.667-0.359-0.953s-0.459-0.525-0.768-0.696c-0.309-0.171-0.656-0.27-1.012-0.289s-0.712 0.042-1.039 0.18l-2.32 0.976c-0.235 0.099-0.495 0.125-0.746 0.075s-0.48-0.173-0.655-0.353c-1.67-1.715-2.914-3.771-3.637-6.015-0.076-0.236-0.074-0.489 0.007-0.723s0.235-0.439 0.442-0.586l2.051-1.451c0.289-0.203 0.523-0.469 0.685-0.775s0.246-0.645 0.246-0.989c0-0.344-0.084-0.682-0.246-0.989s-0.396-0.572-0.685-0.775l-2.051-1.448c-0.207-0.147-0.361-0.351-0.441-0.586s-0.082-0.487-0.006-0.723c0.724-2.241 1.967-4.295 3.637-6.008 0.175-0.18 0.404-0.303 0.656-0.352s0.512-0.023 0.747 0.077l2.31 0.974c0.328 0.137 0.686 0.198 1.043 0.178s0.705-0.12 1.015-0.292c0.31-0.172 0.573-0.412 0.769-0.7s0.318-0.616 0.358-0.957l0.28-2.418c0.028-0.247 0.136-0.479 0.309-0.663s0.401-0.313 0.653-0.367c1.183-0.252 2.393-0.385 3.632-0.399zM16.329 11.467c-1.313 0-2.572 0.501-3.5 1.392s-1.45 2.101-1.45 3.361 0.522 2.47 1.45 3.361c0.928 0.891 2.187 1.392 3.5 1.392s2.572-0.501 3.5-1.392c0.928-0.891 1.45-2.101 1.45-3.361s-0.521-2.47-1.45-3.361c-0.928-0.891-2.188-1.392-3.5-1.392z"/>
        </symbol>
        <symbol id="icon-re_direct" viewBox="0 0 32 32">
            <title>Re-Direct</title>
            <path fill="none" stroke="#8e96ab" style="stroke: var(--color1, #8e96ab)" stroke-linejoin="round"
                  stroke-linecap="round" stroke-miterlimit="4" stroke-width="2.8235"
                  d="M11.294 2.353h-4.706c-2.079 0-3.765 1.685-3.765 3.765v19.765c0 2.079 1.686 3.765 3.765 3.765h19.765c2.079 0 3.765-1.685 3.765-3.765v-4.706M30.118 10.824v-8.471h-8.471M29.647 2.824l-13.647 13.647"/>
        </symbol>
        <symbol id="icon-copy" viewBox="0 0 32 32">
            <title>Copy</title>
            <path fill="none" stroke="#8e96ab" style="stroke: var(--color1, #8e96ab)" stroke-linejoin="round"
                  stroke-linecap="round" stroke-miterlimit="4" stroke-width="2.8235"
                  d="M5.176 22.118c-1.819 0-3.294-1.475-3.294-3.294v-12.706c0-2.079 1.686-3.765 3.765-3.765h12.706c1.819 0 3.294 1.475 3.294 3.294M13.176 9.882h12.235c2.079 0 3.765 1.685 3.765 3.765v12.235c0 2.079-1.685 3.765-3.765 3.765h-12.235c-2.079 0-3.765-1.685-3.765-3.765v-12.235c0-2.079 1.685-3.765 3.765-3.765z"/>
        </symbol>
        <symbol id="icon-link" viewBox="0 0 32 32">
            <title>Link</title>
            <path fill="#fff" style="fill: var(--color1, #fff)"
                  d="M26 32h-22c-1.061 0-2.078-0.421-2.828-1.171s-1.172-1.768-1.172-2.829v-22c0-1.061 0.421-2.078 1.172-2.828s1.768-1.172 2.828-1.172h8v4h-8v22h22v-8h4v8c0 1.061-0.421 2.078-1.171 2.829s-1.768 1.171-2.829 1.171zM15.4 19.414l-2.82-2.828 12.586-12.586h-7.166v-4h14v14h-4v-7.17l-12.6 12.584z"/>
        </symbol>
        <symbol id="icon-world" viewBox="0 0 32 32">
            <title>World</title>
            <path fill="#fff" style="fill: var(--color1, #fff)"
                  d="M1 15.513v-0.042c0.377-4.922 2.134-8.614 5.188-10.947 3.013-2.376 6.276-3.522 9.833-3.522 3.724-0.042 7.197 1.23 10.293 3.776 3.138 2.503 4.686 6.237 4.686 11.075v0.297c0 4.88-1.548 8.529-4.686 11.032-3.138 2.546-6.611 3.819-10.335 3.819h-0.167c-3.64-0.042-6.987-1.315-10.084-3.861-3.096-2.504-4.686-6.365-4.728-11.626zM15.1 8.851v-6.704h-1.004c-0.209 0.255-0.377 0.552-0.544 0.806s-0.335 0.509-0.502 0.806c-0.167 0.255-0.377 0.594-0.502 0.849-0.167 0.255-0.293 0.509-0.418 0.806-0.251 0.424-0.46 0.849-0.628 1.231-0.209 0.382-0.377 0.764-0.502 1.103 0.251 0.17 0.544 0.382 0.879 0.509 0.377 0.127 0.753 0.255 1.13 0.339 0.418 0.085 0.795 0.127 1.13 0.17 0.377 0.042 0.711 0.085 0.962 0.085zM16.858 2.147v6.662c0.209 0 0.46 0.042 0.711 0 0.251 0 0.544-0.042 0.795-0.085 0.46-0.085 1.004-0.212 1.423-0.339 0.46-0.17 0.879-0.382 1.172-0.636-0.502-1.231-1.046-2.206-1.59-3.14s-1.172-1.74-1.841-2.419v-0.042h-0.669zM12.339 2.529v-0.042c-0.293 0.127-0.586 0.339-0.921 0.467-0.293 0.127-0.669 0.297-0.962 0.467-0.586 0.297-1.172 0.636-1.757 1.018-0.544 0.382-1.088 0.806-1.548 1.231 0.167 0.17 0.377 0.339 0.544 0.467s0.377 0.297 0.586 0.467c0.167 0.085 0.377 0.212 0.586 0.382 0.209 0.127 0.46 0.297 0.711 0.467 0.335-0.764 0.669-1.57 1.088-2.291 0.418-0.764 0.879-1.485 1.339-2.122 0.042-0.085 0.084-0.17 0.167-0.255 0.042-0.042 0.084-0.17 0.167-0.255zM25.142 5.668v-0.042c-1.046-0.806-1.966-1.485-2.887-1.909s-1.841-0.849-2.678-1.188c0.669 0.679 1.255 1.528 1.632 2.334 0.418 0.849 0.837 1.74 1.172 2.588 0.167-0.085 0.377-0.17 0.628-0.339 0.209-0.127 0.502-0.255 0.753-0.382 0.251-0.17 0.46-0.339 0.711-0.509 0.251-0.212 0.502-0.382 0.669-0.552zM24.431 15.131h4.812c0-1.57-0.335-3.055-0.962-4.583-0.586-1.485-1.423-2.716-2.469-3.776v-0.042c-0.209 0.339-0.502 0.636-0.795 0.849-0.335 0.212-0.628 0.382-0.962 0.552-0.209 0.127-0.418 0.297-0.628 0.382-0.209 0.127-0.502 0.212-0.711 0.339 0.167 0.339 0.335 0.721 0.502 1.061 0.125 0.382 0.335 0.806 0.418 1.188 0.251 0.679 0.418 1.4 0.586 2.122 0.125 0.636 0.209 1.315 0.209 1.909zM9.285 8.851v-0.042c-0.335-0.17-0.711-0.297-1.004-0.467-0.293-0.212-0.586-0.424-0.837-0.594-0.251-0.127-0.502-0.297-0.711-0.467s-0.377-0.339-0.544-0.509c-1.088 1.061-1.883 2.249-2.385 3.649-0.544 1.4-0.921 2.97-1.088 4.667h5.146c0-1.188 0.167-2.334 0.46-3.479 0.251-1.188 0.628-2.079 0.962-2.758zM15.1 15.088v-4.88c-0.335 0.042-0.753 0.042-1.13 0-0.418-0.042-0.837-0.17-1.213-0.297-0.335-0.085-0.753-0.17-1.088-0.297-0.377-0.085-0.753-0.255-1.046-0.424-0.251 0.424-0.46 0.934-0.628 1.485-0.209 0.509-0.335 1.061-0.46 1.57-0.084 0.509-0.126 1.061-0.167 1.528s-0.084 0.934-0.084 1.315h5.816zM16.858 10.293v4.795h6.192c0-0.255 0-0.552-0.042-0.891-0.084-0.297-0.126-0.679-0.167-1.018-0.126-0.509-0.251-1.061-0.418-1.57-0.167-0.467-0.335-0.933-0.544-1.315-0.084-0.212-0.167-0.467-0.251-0.636-0.126-0.212-0.251-0.339-0.335-0.467-0.46 0.339-1.088 0.552-1.841 0.721-0.711 0.17-1.548 0.339-2.301 0.382h-0.293zM7.862 16.488h-5.146c0 0.721 0.126 1.528 0.335 2.503 0.209 1.018 0.628 1.952 1.088 2.97 0.209 0.509 0.46 1.018 0.711 1.527 0.293 0.467 0.628 0.976 0.962 1.443 0.251-0.17 0.502-0.297 0.711-0.424 0.251-0.127 0.544-0.297 0.795-0.424 0.293-0.127 0.586-0.254 0.92-0.424 0.293-0.127 0.669-0.297 1.046-0.467-0.335-1.061-0.711-2.079-0.962-3.225-0.293-1.103-0.46-2.206-0.46-3.437v-0.042zM15.1 21.453v-4.965h-5.816c0 0.339 0.042 0.849 0.126 1.358 0.042 0.509 0.167 1.061 0.251 1.612 0.167 0.594 0.293 1.188 0.46 1.697s0.335 0.933 0.502 1.315c0.753-0.297 1.506-0.509 2.008-0.636 0.544-0.17 1.046-0.297 1.548-0.339h0.46c0.167-0.042 0.335-0.042 0.46-0.042zM16.858 16.488v4.922c0.293 0.042 0.628 0.085 0.962 0.127 0.377 0.042 0.837 0.127 1.213 0.212l0.628 0.127c0.209 0.085 0.46 0.127 0.67 0.17 0.251 0.085 0.502 0.127 0.753 0.212 0.209 0.085 0.418 0.127 0.586 0.212 0.544-1.4 0.879-2.546 1.088-3.522 0.209-0.933 0.293-1.74 0.293-2.419v-0.042h-6.192zM29.243 16.531v-0.042h-4.812v0.255c-0.042 0.806-0.167 1.74-0.335 2.716-0.167 0.934-0.544 2.037-1.046 3.395 0.669 0.339 1.297 0.679 1.799 1.018s0.962 0.721 1.297 1.061c0.711-0.721 1.339-1.697 1.883-2.97 0.544-1.231 0.921-2.504 1.13-3.861 0.042-0.255 0.042-0.509 0.084-0.764v-0.806zM15.1 29.43v-6.619c-1.046 0.17-1.925 0.382-2.594 0.552s-1.172 0.339-1.506 0.509c0.251 0.636 0.502 1.188 0.753 1.697 0.251 0.467 0.544 0.976 0.795 1.4 0.084 0.17 0.251 0.339 0.377 0.552 0.126 0.17 0.209 0.382 0.335 0.552 0.126 0.212 0.251 0.467 0.377 0.721 0.167 0.212 0.293 0.467 0.46 0.636h1.004zM16.858 29.43h0.962c0.377-0.297 0.753-0.721 1.046-1.188 0.335-0.467 0.711-1.018 0.962-1.485 0.293-0.552 0.586-1.061 0.837-1.57s0.46-0.976 0.628-1.315c-0.46-0.17-1.088-0.34-1.715-0.509s-1.506-0.339-2.72-0.509v6.577zM25.142 25.951v-0.042c-0.084-0.127-0.251-0.297-0.377-0.424s-0.335-0.297-0.544-0.424c-0.167-0.127-0.377-0.255-0.628-0.382s-0.586-0.297-0.879-0.467c-0.167 0.339-0.46 0.933-0.879 1.74-0.377 0.806-1.046 1.782-1.883 2.843 1.046-0.17 1.967-0.552 2.803-1.061 0.92-0.467 1.715-1.103 2.385-1.782zM9.577 24.593v-0.042c-0.293 0.17-0.753 0.382-1.213 0.594-0.502 0.212-1.046 0.467-1.548 0.806 0.293 0.255 0.586 0.509 0.837 0.679 0.251 0.212 0.544 0.382 0.795 0.552 0.46 0.297 1.004 0.594 1.548 0.849s1.213 0.509 2.050 0.764c-0.293-0.339-0.502-0.764-0.711-1.103s-0.46-0.679-0.669-1.018c-0.209-0.339-0.377-0.721-0.544-1.061-0.209-0.339-0.377-0.679-0.544-1.018z"/>
        </symbol>
        <symbol id="icon-discord" viewBox="0 0 43 32">
            <title>Discord</title>
            <path fill="#fff" style="fill: var(--color1, #fff)"
                  d="M35.195 2.488c-2.55-1.15-5.283-2-8.142-2.483-0.025-0.005-0.052-0.002-0.075 0.009s-0.043 0.029-0.056 0.051c-0.35 0.615-0.74 1.417-1.013 2.050-3.031-0.453-6.113-0.453-9.145 0-0.304-0.702-0.648-1.386-1.028-2.050-0.013-0.023-0.032-0.041-0.056-0.052s-0.050-0.015-0.076-0.011c-2.857 0.483-5.59 1.333-8.141 2.485-0.022 0.009-0.041 0.025-0.053 0.045-5.187 7.625-6.608 15.061-5.91 22.404 0.002 0.018 0.008 0.035 0.016 0.051s0.021 0.030 0.035 0.041c3.027 2.204 6.404 3.883 9.988 4.967 0.025 0.008 0.052 0.007 0.077-0s0.047-0.023 0.063-0.043c0.77-1.033 1.457-2.125 2.043-3.271 0.035-0.067 0.002-0.147-0.068-0.173-1.077-0.405-2.12-0.895-3.12-1.463-0.018-0.010-0.033-0.025-0.044-0.042s-0.017-0.038-0.019-0.058c-0.001-0.021 0.002-0.041 0.011-0.060s0.022-0.035 0.038-0.048c0.21-0.155 0.42-0.317 0.62-0.478 0.018-0.015 0.040-0.024 0.063-0.027s0.046 0.001 0.067 0.010c6.545 2.94 13.633 2.94 20.101 0 0.021-0.010 0.045-0.014 0.068-0.011s0.045 0.012 0.064 0.026c0.2 0.163 0.408 0.325 0.62 0.48 0.017 0.012 0.030 0.028 0.039 0.047s0.013 0.039 0.012 0.060c-0.001 0.021-0.007 0.041-0.018 0.058s-0.026 0.032-0.043 0.043c-0.997 0.573-2.033 1.058-3.122 1.462-0.017 0.006-0.032 0.016-0.045 0.028s-0.023 0.027-0.029 0.044-0.009 0.034-0.008 0.052c0.001 0.018 0.006 0.035 0.014 0.051 0.6 1.145 1.286 2.235 2.042 3.27 0.015 0.021 0.037 0.037 0.062 0.045s0.052 0.009 0.078 0.001c3.59-1.081 6.972-2.76 10.003-4.968 0.015-0.010 0.027-0.024 0.036-0.039s0.015-0.033 0.017-0.051c0.833-8.49-1.397-15.866-5.915-22.403-0.011-0.021-0.029-0.038-0.051-0.047zM14.7 20.464c-1.97 0-3.595-1.782-3.595-3.967 0-2.187 1.593-3.967 3.595-3.967 2.017 0 3.627 1.795 3.595 3.967 0 2.187-1.593 3.967-3.595 3.967v0zM27.992 20.464c-1.972 0-3.595-1.782-3.595-3.967 0-2.187 1.592-3.967 3.595-3.967 2.017 0 3.626 1.795 3.595 3.967 0 2.187-1.577 3.967-3.595 3.967v0z"/>
        </symbol>
        <symbol id="icon-share" viewBox="0 0 31 32">
            <title>Share</title>
            <path d="M3.84 16c0 2.117 1.723 3.84 3.84 3.84 1.016 0 1.935-0.403 2.623-1.050l7.668 4.383c-0.023 0.166-0.051 0.333-0.051 0.507 0 2.117 1.723 3.84 3.84 3.84s3.84-1.723 3.84-3.84c0-2.117-1.723-3.84-3.84-3.84-1.016 0-1.935 0.403-2.623 1.050l-7.668-4.381c0.023-0.168 0.051-0.334 0.051-0.508s-0.028-0.34-0.051-0.508l7.668-4.381c0.687 0.646 1.606 1.050 2.623 1.050 2.117 0 3.84-1.723 3.84-3.84s-1.723-3.84-3.84-3.84c-2.117 0-3.84 1.723-3.84 3.84 0 0.174 0.028 0.34 0.051 0.508l-7.668 4.381c-0.708-0.672-1.646-1.048-2.623-1.050-2.117 0-3.84 1.723-3.84 3.84z"/>
        </symbol>
        <symbol id="icon-gridicons_fullscreen" viewBox="0 0 31 32">
            <title>Grid</title>
            <path fill="#f2f2f2" style="fill: var(--color1, #f2f2f2)"
                  d="M26.88 4.48v7.68h-2.56v-3.315l-4.211 4.224-1.818-1.818 4.224-4.211h-3.315v-2.56h7.68zM3.84 4.48v7.68h2.56v-3.315l4.211 4.224 1.818-1.818-4.224-4.211h3.315v-2.56h-7.68zM26.88 27.52v-7.68h-2.56v3.315l-4.211-4.211-1.805 1.805 4.211 4.211h-3.315v2.56h7.68zM11.52 27.52v-2.56h-3.315l4.211-4.211-1.805-1.818-4.211 4.224v-3.315h-2.56v7.68h7.68z"/>
        </symbol>
        <symbol id="icon-home" viewBox="0 0 35 32">
            <title>Home</title>
            <path fill="#fff" style="fill: var(--color1, #fff)"
                  d="M33.689 15.739l-15.324-15.313c-0.11-0.111-0.241-0.198-0.386-0.258s-0.299-0.091-0.455-0.091-0.311 0.031-0.455 0.091c-0.144 0.060-0.275 0.148-0.386 0.258l-15.324 15.313c-0.446 0.446-0.699 1.053-0.699 1.685 0 1.313 1.068 2.381 2.381 2.381h1.615v10.926c0 0.659 0.532 1.191 1.19 1.191h9.297v-8.333h4.167v8.333h9.892c0.658 0 1.19-0.532 1.19-1.191v-10.926h1.615c0.632 0 1.239-0.249 1.685-0.699 0.926-0.93 0.926-2.437-0.004-3.367z"/>
        </symbol>
        <symbol id="icon-back" viewBox="0 0 44 32">
            <title>Back</title>
            <path fill="#f2f2f2" style="fill: var(--color1, #f2f2f2)"
                  d="M44 31l-21.25-15 21.25-15v30zM21.5 31l-21.25-15 21.25-15v30z"/>
        </symbol>
        <symbol id="icon-forward" viewBox="0 0 40 32">
            <title>Forward</title>
            <path fill="#f2f2f2" style="fill: var(--color1, #f2f2f2)"
                  d="M38.387 15.18l-16.84-14.537c-0.627-0.539-1.547-0.053-1.547 0.82v29.080c0 0.873 0.92 1.359 1.547 0.82l16.84-14.543c0.486-0.422 0.486-1.219 0-1.641zM19.637 15.18l-16.84-14.537c-0.627-0.539-1.547-0.053-1.547 0.82v29.080c0 0.873 0.92 1.359 1.547 0.82l16.84-14.543c0.24-0.211 0.363-0.516 0.363-0.82s-0.123-0.609-0.363-0.82z"/>
        </symbol>
        <symbol id="icon-play" viewBox="0 0 32 32">
            <title>Play</title>
            <path fill="#f2f2f2" style="fill: var(--color1, #f2f2f2)"
                  d="M16 1c-8.284 0-15 6.716-15 15s6.716 15 15 15c8.283 0 15-6.717 15-15s-6.717-15-15-15zM20.825 16.231l-7.313 5.32c-0.040 0.029-0.087 0.046-0.137 0.050s-0.098-0.006-0.142-0.029c-0.044-0.023-0.081-0.057-0.107-0.099s-0.040-0.090-0.040-0.14v-10.634c-0-0.049 0.013-0.098 0.039-0.14s0.063-0.077 0.107-0.099c0.044-0.023 0.093-0.032 0.143-0.029s0.097 0.021 0.137 0.050l7.313 5.317c0.035 0.024 0.063 0.057 0.082 0.094s0.030 0.079 0.030 0.122c0 0.042-0.010 0.084-0.030 0.122s-0.048 0.070-0.082 0.094z"/>
        </symbol>
        <symbol id="icon-pause" viewBox="0 0 32 32">
            <title>Pause</title>
            <path fill="#fff" style="fill: var(--color1, #fff)"
                  d="M16 0c-8.822 0-16 7.178-16 16s7.178 16 16 16 16-7.178 16-16-7.178-16-16-16zM14 22h-4v-12h4zM22 22h-4v-12h4z"/>
        </symbol>
        <symbol id="icon-volume" viewBox="0 0 39 32">
            <title>Volume</title>
            <path fill="#fff" style="fill: var(--color1, #fff)"
                  d="M3.080 9.020c0.932-0.006 1.864-0.006 2.792-0.007l0.008 14.020c-1.219-0.005-2.476-0.015-2.864-0.020-0.753-0.010-1.204-0.41-1.205-1.094-0.007-3.94-0.009-7.875-0.007-11.815 0.004-0.673 0.49-1.084 1.276-1.085z"/>
            <path fill="#fff" style="fill: var(--color1, #fff)"
                  d="M18.588 29.295c-0.019 0.299-0.102 0.577-0.339 0.806-0.49 0.47-1.427 0.449-1.991-0.042-0.325-0.283-0.636-0.571-0.952-0.859-2.215-2.006-4.43-4.012-6.645-6.024-0.068-0.059-0.131-0.101-0.209-0.123l-0.008-14.073c0.068-0.021 0.131-0.059 0.194-0.118 1.776-1.613 6.891-6.24 7.672-6.945 0.422-0.379 0.917-0.433 1.442-0.246 0.52 0.187 0.782 0.56 0.826 1.057 0.005 0.085 0.010 26.524 0.010 26.567z"/>
            <path fill="none" stroke="#fff" style="stroke: var(--color1, #fff)" stroke-linejoin="miter"
                  stroke-linecap="round" stroke-miterlimit="10" stroke-width="1.3333"
                  d="M26.596 7.604c2.593 1.445 4.688 5.059 4.69 8.999 0.002 3.764-2.273 6.985-4.68 8.529"/>
            <path fill="none" stroke="#fff" style="stroke: var(--color1, #fff)" stroke-linejoin="miter"
                  stroke-linecap="round" stroke-miterlimit="10" stroke-width="1.3333"
                  d="M23.035 10.198c1.826 1.019 3.299 3.564 3.3 6.335 0.002 2.653-1.599 4.918-3.293 6.008"/>
            <path fill="none" stroke="#fff" style="stroke: var(--color1, #fff)" stroke-linejoin="miter"
                  stroke-linecap="round" stroke-miterlimit="10" stroke-width="1.3333"
                  d="M29.984 4.273c3.579 1.989 6.466 6.98 6.469 12.415 0.003 5.195-3.136 9.639-6.455 11.771"/>
        </symbol>
        <symbol id="icon-mute" viewBox="0 0 39 32">
            <title>Mute</title>
            <path fill="#fff" style="fill: var(--color1, #fff)"
                  d="M27.744 18.467c0.195-0.29 0.358-0.587 0.485-0.889 0.135-0.322 0.24-0.658 0.31-1.003 0.065-0.324 0.1-0.677 0.1-1.055s-0.035-0.73-0.1-1.055c-0.070-0.346-0.174-0.682-0.31-1.003-0.127-0.301-0.29-0.599-0.485-0.889-0.187-0.28-0.404-0.543-0.646-0.786-0.482-0.484-1.048-0.872-1.669-1.136-0.637-0.269-0.935-1.005-0.667-1.644s1.001-0.939 1.638-0.67c0.938 0.398 1.776 0.968 2.473 1.667 0.35 0.351 0.669 0.74 0.951 1.16 0.271 0.403 0.509 0.846 0.71 1.323 0.199 0.471 0.353 0.968 0.457 1.486 0.104 0.517 0.158 1.035 0.158 1.547s-0.054 1.031-0.158 1.548c-0.104 0.517-0.258 1.014-0.457 1.485-0.201 0.477-0.439 0.919-0.71 1.322-0.079 0.118-0.161 0.234-0.246 0.346-0.293 0.389-0.35 0.244-0.682-0.090-0.397-0.399-0.586-0.589-0.983-0.987-0.299-0.302-0.398-0.336-0.169-0.678z"/>
            <path fill="#fff" style="fill: var(--color1, #fff)"
                  d="M31.304 22.003c0.266-0.307 0.513-0.629 0.739-0.964 0.358-0.534 0.662-1.093 0.905-1.669 0.253-0.601 0.449-1.23 0.58-1.88 0.125-0.621 0.191-1.28 0.191-1.973s-0.066-1.351-0.191-1.972c-0.131-0.65-0.326-1.28-0.58-1.88-0.243-0.576-0.547-1.135-0.905-1.669-0.354-0.526-0.76-1.019-1.211-1.472s-0.943-0.861-1.466-1.215c-0.532-0.36-1.089-0.665-1.663-0.909-0.637-0.269-0.935-1.005-0.667-1.645s1.002-0.939 1.638-0.67c0.748 0.318 1.449 0.699 2.094 1.136 0.665 0.45 1.28 0.96 1.839 1.52s1.066 1.179 1.514 1.847c0.435 0.647 0.815 1.351 1.131 2.102s0.562 1.541 0.727 2.363c0.164 0.812 0.25 1.637 0.25 2.464s-0.086 1.652-0.249 2.465c-0.166 0.822-0.411 1.613-0.727 2.363s-0.696 1.454-1.131 2.102c-0.317 0.472-0.663 0.919-1.036 1.338-0.294 0.331-0.311 0.237-0.618-0.071-0.399-0.401-0.688-0.691-1.087-1.091-0.315-0.316-0.364-0.289-0.077-0.62z"/>
            <path fill="#fff" style="fill: var(--color1, #fff)"
                  d="M9.468 9.352h-2.944c-1.188 0-2.16 0.976-2.16 2.169v8.174c0 1.192 0.972 2.169 2.16 2.169h4.867c2.501 1.888 5.001 3.778 7.5 5.668 1.14 0.861 2.46 0.723 2.46-0.771 0-1.79 0-3.432 0-5.222 0-0.634-0.095-0.808-0.545-1.261-3.522-3.536-7.044-7.072-10.566-10.608-0.31-0.312-0.332-0.317-0.772-0.317z"/>
            <path fill="#fff" style="fill: var(--color1, #fff)"
                  d="M6.749 2.031c0.766-0.769 2.019-0.769 2.785 0l24.308 24.404c0.766 0.769 0.766 2.027 0 2.796s-2.019 0.769-2.785 0l-24.308-24.403c-0.766-0.769-0.766-2.027 0-2.796z"/>
            <path fill="#fff" style="fill: var(--color1, #fff)"
                  d="M18.893 3.687c-1.040 0.786-2.080 1.572-3.12 2.358-0.574 0.434-0.291 0.621 0.217 1.131 1.631 1.638 3.262 3.276 4.894 4.913 0.363 0.369 0.47 0.326 0.47-0.069v-7.561c0-1.494-1.32-1.632-2.46-0.771z"/>
        </symbol>
        <symbol id="icon-video" viewBox="0 0 32 32">
            <title>Video</title>
            <path fill="#fff" style="fill: var(--color1, #fff)"
                  d="M16 0.783c-8.404 0-15.217 6.814-15.217 15.217s6.814 15.217 15.217 15.217c8.403 0 15.217-6.814 15.217-15.217s-6.814-15.217-15.217-15.217zM20.895 16.234l-7.419 5.397c-0.041 0.029-0.089 0.047-0.139 0.050s-0.1-0.006-0.145-0.029c-0.045-0.023-0.082-0.057-0.108-0.1s-0.040-0.092-0.040-0.142v-10.788c-0-0.050 0.014-0.099 0.040-0.142s0.064-0.078 0.108-0.101c0.045-0.023 0.095-0.033 0.145-0.029s0.098 0.022 0.139 0.051l7.419 5.394c0.035 0.025 0.064 0.058 0.083 0.096s0.030 0.080 0.030 0.123c0 0.043-0.010 0.085-0.030 0.123s-0.048 0.071-0.083 0.096z"/>
        </symbol>
        <symbol id="icon-chip-close" viewBox="0 0 32 32">
            <title>Close</title>
            <path fill="#696969" style="fill: var(--color1, #696969)"
                  d="M0 16c0-8.837 7.163-16 16-16v0c8.837 0 16 7.163 16 16v0c0 8.837-7.163 16-16 16v0c-8.837 0-16-7.163-16-16v0z"/>
            <path fill="#f2f2f2" style="fill: var(--color2, #f2f2f2)"
                  d="M22.293 11.572l-1.333-1.333-5.333 5.333-5.333-5.333-1.333 1.333 5.333 5.333-5.333 5.333 1.333 1.333 5.333-5.333 5.333 5.333 1.333-1.333-5.333-5.333 5.333-5.333z"/>
        </symbol>
    </defs>
</svg>
