<svg width="14" height="14" viewBox="0 0 14 14" fill="none" xmlns="http://www.w3.org/2000/svg">
    <path d="M7.05918 0.419922C3.52489 0.419922 0.65918 3.28564 0.65918 6.81992C0.65918 10.3542 3.52489 13.2199 7.05918 13.2199C10.5935 13.2199 13.4592 10.3542 13.4592 6.81992C13.4592 3.28564 10.5935 0.419922 7.05918 0.419922ZM7.51632 9.90564C7.51632 9.96849 7.46489 10.0199 7.40204 10.0199H6.71632C6.65347 10.0199 6.60204 9.96849 6.60204 9.90564V6.01992C6.60204 5.95706 6.65347 5.90564 6.71632 5.90564H7.40204C7.46489 5.90564 7.51632 5.95706 7.51632 6.01992V9.90564ZM7.05918 4.99135C6.87974 4.98769 6.70889 4.91383 6.58328 4.78564C6.45767 4.65744 6.38732 4.48511 6.38732 4.30564C6.38732 4.12616 6.45767 3.95383 6.58328 3.82564C6.70889 3.69744 6.87974 3.62358 7.05918 3.61992C7.23862 3.62358 7.40947 3.69744 7.53508 3.82564C7.66069 3.95383 7.73104 4.12616 7.73104 4.30564C7.73104 4.48511 7.66069 4.65744 7.53508 4.78564C7.40947 4.91383 7.23862 4.98769 7.05918 4.99135Z"
          fill="#959595"/>
</svg>
