<svg width="1454" height="623" viewBox="0 0 1454 623" fill="none" xmlns="http://www.w3.org/2000/svg">
    <path d="M157.08 423.979L152.017 426.898L152.021 421.053C152.021 421.053 151.95 424.042 153.299 424.789C154.62 425.521 157.08 423.979 157.08 423.979Z"
          fill="#8E3315"/>
    <path d="M27.147 417.951C55.6845 471.917 104.493 512.329 162.834 530.308C221.176 548.288 284.271 542.355 338.241 513.816C392.211 485.276 432.634 436.468 450.618 378.127C468.601 319.787 462.549 256.692 434.012 202.726C459.745 283.829 370.153 312.321 370.153 312.321L261.72 368.993L149.027 427.769C149.027 427.769 72.2217 477.213 27.147 417.951Z"
          fill="#473ADE"/>
    <path d="M26.7427 418.348C55.2802 472.314 104.088 512.733 162.43 530.712C220.771 548.692 283.867 542.759 337.837 514.22C391.807 485.681 432.23 436.872 450.213 378.532C468.197 320.192 462.267 257.098 433.73 203.132C459.463 284.235 369.749 312.725 369.749 312.725L261.316 369.397L148.623 428.173C148.623 428.173 71.8174 477.61 26.7427 418.348Z"
          fill="url(#paint0_linear_815_31)"/>
    <path d="M367.268 306.696L375.639 310.765L366.803 314.311C366.803 314.311 370.594 312.52 371.047 310.765C371.49 309.046 367.268 306.696 367.268 306.696Z"
          fill="#251E73"/>
    <path d="M435.405 415.544C463.272 361.229 468.421 298.067 449.717 239.954C431.013 181.841 389.989 133.536 335.67 105.667C281.351 77.7973 218.187 72.646 160.072 91.346C101.957 110.046 53.6532 151.066 25.7857 205.381C77.4974 137.811 152.263 194.999 152.263 194.999L260.85 251.376L373.602 310.037C373.602 310.037 458.134 344.642 435.405 415.544Z"
          fill="#D71D6A"/>
    <path d="M434.853 415.32C462.637 361.167 467.77 298.193 449.122 240.253C430.474 182.313 389.572 134.152 335.415 106.366C281.258 78.5793 218.281 73.4433 160.34 92.0876C102.398 110.732 54.2381 151.629 26.4536 205.783C78.0113 138.414 152.554 195.432 152.554 195.432L260.817 251.641L373.234 310.127C373.234 310.127 457.514 344.629 434.853 415.32Z"
          fill="url(#paint1_linear_815_31)"/>
    <path d="M152.053 200.454L151.958 194.335L157.305 197.313C157.305 197.313 154.606 195.727 153.236 196.581C151.894 197.418 152.053 200.454 152.053 200.454Z"
          fill="#741039"/>
    <path d="M230.613 80.2307C169.566 80.2307 111.019 104.483 67.8522 147.653C24.6854 190.823 0.434577 249.373 0.434575 310.424C0.434573 371.476 24.6854 430.026 67.8521 473.196C111.019 516.366 169.486 540.501 230.533 540.501C152.184 527.347 152.263 425.956 152.263 425.956L152.263 310.424L152.263 192.849C152.263 192.849 152.263 94.2542 230.613 80.2307Z"
          fill="#FF5B25"/>
    <path d="M230.613 79.6936C169.566 79.6936 111.019 103.946 67.8522 147.116C24.6854 190.285 0.43459 248.836 0.434585 309.887C0.43458 370.938 24.6854 429.489 67.8521 472.659C111.019 515.829 169.486 540.516 230.533 540.516C152.184 515.483 152.263 426.083 152.263 426.083V310.172L152.263 195C152.263 195 149.413 94.6109 230.613 79.6936Z"
          fill="url(#paint2_linear_815_31)"/>
    <path d="M230.613 79.6936C169.566 79.6936 111.019 103.946 67.8522 147.116C24.6854 190.285 0.43459 248.836 0.434585 309.887C0.43458 370.938 24.6854 429.489 67.8521 472.659C111.019 515.829 169.486 540.516 230.533 540.516C152.184 515.483 152.263 426.083 152.263 426.083V310.172L152.263 195C152.263 195 149.413 94.6109 230.613 79.6936Z"
          fill="url(#paint3_linear_815_31)" fill-opacity="0.3"/>
    <path d="M230.532 540.502C152.787 505.09 152.354 426.047 152.354 426.047C152.354 426.047 55.9944 480.404 23.5547 410.881C23.5547 410.881 78.4596 540.963 230.532 540.502Z"
          fill="#473ADE"/>
    <path d="M575.437 234.023H614.519L648.851 355.157L650.363 362.93L652.09 355.157L686.206 234.023H725.504L740.187 391H711.901L703.48 272.673L702.832 262.309L700.241 272.673L666.125 388.841H634.384L599.836 272.457L597.245 262.309L596.598 272.457L588.608 391H560.322L575.437 234.023Z"
          fill="white"/>
    <path d="M804.84 356.668L793.396 391H762.95L819.307 234.023H849.536L905.892 391H873.936L835.069 274.185L833.342 266.196L831.399 274.617L813.045 330.541L810.454 334.86L813.693 334.428H830.103C833.27 334.428 836.005 335.148 838.308 336.587C840.611 338.027 842.627 339.826 844.354 341.985C846.081 344.144 847.521 346.592 848.672 349.327C849.968 351.918 850.976 354.365 851.695 356.668H804.84Z"
          fill="white"/>
    <path d="M1041.21 279.151C1041.21 287.788 1039.26 295.274 1035.38 301.607C1031.49 307.941 1026.31 313.051 1019.83 316.938L1013.79 319.313C1014.36 319.601 1015.15 319.961 1016.16 320.393C1017.17 320.825 1017.96 321.256 1018.54 321.688C1022.85 325.431 1026.24 329.893 1028.68 335.076C1031.13 340.114 1033.22 345.656 1034.95 351.702C1036.82 357.604 1038.62 363.937 1040.34 370.703C1042.22 377.325 1044.73 384.09 1047.9 391H1016.16C1013.57 385.53 1011.48 379.7 1009.9 373.51C1008.46 367.176 1006.88 361.058 1005.15 355.157C1003.42 349.255 1001.41 343.785 999.103 338.746C996.799 333.708 993.633 329.605 989.602 326.439C986.579 326.726 983.34 326.798 979.885 326.655C976.575 326.367 973.048 325.647 969.305 324.495C970.169 322.48 971.104 320.393 972.112 318.233C973.264 315.93 974.559 313.843 975.999 311.972C977.582 309.956 979.31 308.301 981.181 307.005C983.196 305.71 985.427 304.918 987.875 304.63C990.898 304.342 993.705 303.551 996.296 302.255C998.887 300.816 1001.12 299.016 1002.99 296.857C1005 294.554 1006.59 291.891 1007.74 288.868C1008.89 285.845 1009.47 282.606 1009.47 279.151C1009.47 275.408 1008.68 271.954 1007.09 268.787C1005.51 265.62 1003.35 262.885 1000.61 260.582C998.023 258.278 994.856 256.479 991.113 255.184C987.515 253.888 983.628 253.24 979.454 253.24C977.438 253.24 975.711 253.312 974.271 253.456C972.976 253.456 971.68 253.528 970.385 253.672C969.089 253.672 967.722 253.816 966.282 254.104C964.843 254.248 963.187 254.392 961.316 254.536V391H930.223V235.966C935.981 234.959 941.091 234.167 945.553 233.591C950.016 232.871 954.046 232.368 957.645 232.08C961.388 231.648 964.987 231.36 968.441 231.216C971.896 231.072 975.567 231 979.454 231C987.947 231 995.936 232.08 1003.42 234.239C1010.91 236.398 1017.46 239.565 1023.07 243.74C1028.68 247.77 1033.07 252.808 1036.24 258.854C1039.55 264.756 1041.21 271.522 1041.21 279.151Z"
          fill="white"/>
    <path d="M1153.62 296.857L1209.54 391H1174.13L1138.72 321.472L1137.21 316.29L1134.62 321.04L1121.01 338.53C1119.72 333.78 1119.14 328.886 1119.28 323.847C1119.43 318.809 1120 313.915 1121.01 309.165C1122.16 304.27 1123.68 299.664 1125.55 295.345C1127.56 291.027 1129.87 287.14 1132.46 283.686L1168.08 234.023H1201.98L1153.62 296.857ZM1077.83 391V234.023H1108.7V391H1077.83Z"
          fill="white"/>
    <path d="M1230.91 234.023H1325.06V256.263H1261.79V368.76H1328.51V391H1230.91V234.023ZM1270 319.529C1270.72 317.226 1271.65 314.779 1272.8 312.188C1273.96 309.596 1275.39 307.221 1277.12 305.062C1278.85 302.903 1280.86 301.175 1283.17 299.88C1285.62 298.44 1288.42 297.721 1291.59 297.721H1317.72V319.529H1270Z"
          fill="white"/>
    <path d="M1341.01 256.263V234.023H1453.72V256.263H1412.7V391H1382.04V256.263H1341.01Z" fill="white"/>
    <defs>
        <linearGradient id="paint0_linear_815_31" x1="433.747" y1="284.179" x2="98.8311" y2="614.854"
                        gradientUnits="userSpaceOnUse">
            <stop stop-opacity="0.6"/>
            <stop offset="0.655513" stop-opacity="0"/>
        </linearGradient>
        <linearGradient id="paint1_linear_815_31" x1="92.6607" y1="159.456" x2="554.209" y2="244.133"
                        gradientUnits="userSpaceOnUse">
            <stop stop-opacity="0.6"/>
            <stop offset="0.645833" stop-opacity="0"/>
        </linearGradient>
        <linearGradient id="paint2_linear_815_31" x1="123.702" y1="511.566" x2="-13.2297" y2="89.8035"
                        gradientUnits="userSpaceOnUse">
            <stop stop-opacity="0.6"/>
            <stop offset="0.675464" stop-opacity="0"/>
        </linearGradient>
        <linearGradient id="paint3_linear_815_31" x1="123.702" y1="511.566" x2="-13.2297" y2="89.8035"
                        gradientUnits="userSpaceOnUse">
            <stop stop-opacity="0.6"/>
            <stop offset="0.675464" stop-opacity="0"/>
        </linearGradient>
    </defs>
</svg>
