<svg width="34" height="35" viewBox="0 0 34 35" fill="none" xmlns="http://www.w3.org/2000/svg">
    <path fill-rule="evenodd" clip-rule="evenodd"
          d="M16.9993 6.16797C10.766 6.16797 5.66602 11.268 5.66602 17.5013C5.66602 23.7346 10.766 28.8346 16.9993 28.8346C22.241 28.8346 26.6327 25.1513 28.3327 20.3346H25.4993C23.7993 23.593 20.6827 26.0013 16.9993 26.0013C12.3243 26.0013 8.49935 22.1763 8.49935 17.5013C8.49935 12.8263 12.3243 9.0013 16.9993 9.0013C19.4077 9.0013 21.391 9.99297 22.666 11.8346L18.416 16.0846H28.3327V6.16797L25.4993 9.0013C22.9493 7.58464 20.116 6.16797 16.9993 6.16797Z"
          fill="url(#paint0_linear_4797_74287)"/>
    <defs>
        <linearGradient id="paint0_linear_4797_74287" x1="6.35772" y1="7.62096" x2="28.7353" y2="8.32221"
                        gradientUnits="userSpaceOnUse">
            <stop stop-color="#FAC01E"/>
            <stop offset="0.861035" stop-color="#FC762A"/>
        </linearGradient>
    </defs>
</svg>
