<svg width="21" height="21" viewBox="0 0 21 21" fill="none" xmlns="http://www.w3.org/2000/svg">
    <path d="M4.66667 2.16667C4.00363 2.16667 3.36774 2.43006 2.8989 2.8989C2.43006 3.36774 2.16667 4.00363 2.16667 4.66667V10.5H7.55C9.18167 10.5 10.5 11.82 10.5 13.45V18.8333H16.3333C16.9964 18.8333 17.6323 18.5699 18.1011 18.1011C18.5699 17.6323 18.8333 16.9964 18.8333 16.3333V12.6167C18.8333 12.3957 18.9211 12.1837 19.0774 12.0274C19.2337 11.8711 19.4457 11.7833 19.6667 11.7833C19.8877 11.7833 20.0996 11.8711 20.2559 12.0274C20.4122 12.1837 20.5 12.3957 20.5 12.6167V16.3333C20.5 17.4384 20.061 18.4982 19.2796 19.2796C18.4982 20.061 17.4384 20.5 16.3333 20.5H4.66667C3.5616 20.5 2.50179 20.061 1.72039 19.2796C0.938987 18.4982 0.5 17.4384 0.5 16.3333V4.66667C0.5 3.5616 0.938987 2.50179 1.72039 1.72039C2.50179 0.938987 3.5616 0.5 4.66667 0.5H8.38333C8.60435 0.5 8.81631 0.587798 8.97259 0.744078C9.12887 0.900358 9.21667 1.11232 9.21667 1.33333C9.21667 1.55435 9.12887 1.76631 8.97259 1.92259C8.81631 2.07887 8.60435 2.16667 8.38333 2.16667H4.66667ZM11.7833 1.33333C11.7833 1.11232 11.8711 0.900358 12.0274 0.744078C12.1837 0.587798 12.3957 0.5 12.6167 0.5H19.6667C19.8877 0.5 20.0996 0.587798 20.2559 0.744078C20.4122 0.900358 20.5 1.11232 20.5 1.33333V8.38333C20.5 8.60435 20.4122 8.81631 20.2559 8.97259C20.0996 9.12887 19.8877 9.21667 19.6667 9.21667C19.4457 9.21667 19.2337 9.12887 19.0774 8.97259C18.9211 8.81631 18.8333 8.60435 18.8333 8.38333V3.34667L13.205 8.97333C13.1281 9.05293 13.0362 9.11641 12.9345 9.16008C12.8328 9.20376 12.7235 9.22675 12.6128 9.22771C12.5022 9.22867 12.3925 9.20759 12.29 9.16568C12.1876 9.12378 12.0946 9.06191 12.0163 8.98366C11.9381 8.90542 11.8762 8.81238 11.8343 8.70996C11.7924 8.60755 11.7713 8.49781 11.7723 8.38717C11.7733 8.27652 11.7962 8.16717 11.8399 8.0655C11.8836 7.96383 11.9471 7.87187 12.0267 7.795L17.655 2.16667H12.6167C12.3957 2.16667 12.1837 2.07887 12.0274 1.92259C11.8711 1.76631 11.7833 1.55435 11.7833 1.33333Z"
          fill="url(#paint0_linear_6318_1852)"/>
    <defs>
        <linearGradient id="paint0_linear_6318_1852" x1="1.11033" y1="1.78205" x2="20.8553" y2="2.4008"
                        gradientUnits="userSpaceOnUse">
            <stop stop-color="#FAC01E"/>
            <stop offset="0.861035" stop-color="#FC762A"/>
        </linearGradient>
    </defs>
</svg>
