<svg class="first_arrow" width="25" height="18" viewBox="0 0 25 18" fill="none" xmlns="http://www.w3.org/2000/svg">
    <path d="M1.5 1V0.5H0.5V1H1.5ZM25 15L20 12.1132V17.8868L25 15ZM0.5 1.83333C0.5 2.10948 0.723858 2.33333 1 2.33333C1.27614 2.33333 1.5 2.10948 1.5 1.83333H0.5ZM1.5 3.5C1.5 3.22386 1.27614 3 1 3C0.723858 3 0.5 3.22386 0.5 3.5H1.5ZM0.5 5.16667C0.5 5.44281 0.723858 5.66667 1 5.66667C1.27614 5.66667 1.5 5.44281 1.5 5.16667H0.5ZM1.5 6.83333C1.5 6.55719 1.27614 6.33333 1 6.33333C0.723858 6.33333 0.5 6.55719 0.5 6.83333H1.5ZM0.5 8.5C0.5 8.77614 0.723858 9 1 9C1.27614 9 1.5 8.77614 1.5 8.5H0.5ZM1.5 10.1667C1.5 9.89052 1.27614 9.66667 1 9.66667C0.723858 9.66667 0.5 9.89052 0.5 10.1667H1.5ZM0.585642 11.8777C0.639233 12.1486 0.902278 12.3247 1.17317 12.2711C1.44406 12.2176 1.62022 11.9545 1.56663 11.6836L0.585642 11.8777ZM2.08922 12.9443C1.9356 12.7148 1.62504 12.6534 1.39558 12.807C1.16611 12.9606 1.10463 13.2712 1.25825 13.5006L2.08922 12.9443ZM2.49938 14.7417C2.72884 14.8954 3.0394 14.8339 3.19302 14.6044C3.34665 14.375 3.28516 14.0644 3.0557 13.9108L2.49938 14.7417ZM4.31639 14.4334C4.04549 14.3798 3.78245 14.5559 3.72886 14.8268C3.67527 15.0977 3.85143 15.3608 4.12232 15.4144L4.31639 14.4334ZM6 15.5C6.27614 15.5 6.5 15.2761 6.5 15C6.5 14.7239 6.27614 14.5 6 14.5V15.5ZM8 14.5C7.72386 14.5 7.5 14.7239 7.5 15C7.5 15.2761 7.72386 15.5 8 15.5V14.5ZM10 15.5C10.2761 15.5 10.5 15.2761 10.5 15C10.5 14.7239 10.2761 14.5 10 14.5V15.5ZM12 14.5C11.7239 14.5 11.5 14.7239 11.5 15C11.5 15.2761 11.7239 15.5 12 15.5V14.5ZM14 15.5C14.2761 15.5 14.5 15.2761 14.5 15C14.5 14.7239 14.2761 14.5 14 14.5V15.5ZM16 14.5C15.7239 14.5 15.5 14.7239 15.5 15C15.5 15.2761 15.7239 15.5 16 15.5V14.5ZM18 15.5C18.2761 15.5 18.5 15.2761 18.5 15C18.5 14.7239 18.2761 14.5 18 14.5V15.5ZM20 14.5C19.7239 14.5 19.5 14.7239 19.5 15C19.5 15.2761 19.7239 15.5 20 15.5V14.5ZM22 15.5C22.2761 15.5 22.5 15.2761 22.5 15C22.5 14.7239 22.2761 14.5 22 14.5V15.5ZM24 14.5C23.7239 14.5 23.5 14.7239 23.5 15C23.5 15.2761 23.7239 15.5 24 15.5V14.5ZM0.5 1V1.83333H1.5V1H0.5ZM0.5 3.5V5.16667H1.5V3.5H0.5ZM0.5 6.83333V8.5H1.5V6.83333H0.5ZM0.5 10.1667V11H1.5V10.1667H0.5ZM0.5 11C0.5 11.2999 0.529406 11.5934 0.585642 11.8777L1.56663 11.6836C1.52297 11.4629 1.5 11.2344 1.5 11H0.5ZM1.25825 13.5006C1.58665 13.9911 2.00886 14.4134 2.49938 14.7417L3.0557 13.9108C2.6738 13.6551 2.3449 13.3262 2.08922 12.9443L1.25825 13.5006ZM4.12232 15.4144C4.40658 15.4706 4.70011 15.5 5 15.5V14.5C4.76561 14.5 4.53708 14.477 4.31639 14.4334L4.12232 15.4144ZM5 15.5H6V14.5H5V15.5ZM8 15.5H10V14.5H8V15.5ZM12 15.5H14V14.5H12V15.5ZM16 15.5H18V14.5H16V15.5ZM20 15.5H22V14.5H20V15.5Z"
          fill="#B7B7B7"/>
</svg>
