<svg width="25" height="31" viewBox="0 0 25 31" fill="none" xmlns="http://www.w3.org/2000/svg">
    <path d="M1.5 1V0.5H0.5V1H1.5ZM25 28L20 25.1133V30.8868L25 28ZM0.5 1.95833C0.5 2.23448 0.723858 2.45833 1 2.45833C1.27614 2.45833 1.5 2.23448 1.5 1.95833H0.5ZM1.5 3.875C1.5 3.59886 1.27614 3.375 1 3.375C0.723858 3.375 0.5 3.59886 0.5 3.875H1.5ZM0.5 5.79167C0.5 6.06781 0.723858 6.29167 1 6.29167C1.27614 6.29167 1.5 6.06781 1.5 5.79167H0.5ZM1.5 7.70833C1.5 7.43219 1.27614 7.20833 1 7.20833C0.723858 7.20833 0.5 7.43219 0.5 7.70833H1.5ZM0.5 9.625C0.5 9.90114 0.723858 10.125 1 10.125C1.27614 10.125 1.5 9.90114 1.5 9.625H0.5ZM1.5 11.5417C1.5 11.2655 1.27614 11.0417 1 11.0417C0.723858 11.0417 0.5 11.2655 0.5 11.5417H1.5ZM0.5 13.4583C0.5 13.7345 0.723858 13.9583 1 13.9583C1.27614 13.9583 1.5 13.7345 1.5 13.4583H0.5ZM1.5 15.375C1.5 15.0989 1.27614 14.875 1 14.875C0.723858 14.875 0.5 15.0989 0.5 15.375H1.5ZM0.5 17.2917C0.5 17.5678 0.723858 17.7917 1 17.7917C1.27614 17.7917 1.5 17.5678 1.5 17.2917H0.5ZM1.5 19.2083C1.5 18.9322 1.27614 18.7083 1 18.7083C0.723858 18.7083 0.5 18.9322 0.5 19.2083H1.5ZM0.5 21.125C0.5 21.4011 0.723858 21.625 1 21.625C1.27614 21.625 1.5 21.4011 1.5 21.125H0.5ZM1.5 23.0417C1.5 22.7655 1.27614 22.5417 1 22.5417C0.723858 22.5417 0.5 22.7655 0.5 23.0417H1.5ZM0.585642 24.8777C0.639233 25.1486 0.902278 25.3247 1.17317 25.2711C1.44406 25.2176 1.62022 24.9545 1.56663 24.6836L0.585642 24.8777ZM2.08922 25.9443C1.9356 25.7148 1.62504 25.6534 1.39558 25.807C1.16611 25.9606 1.10463 26.2712 1.25825 26.5006L2.08922 25.9443ZM2.49938 27.7417C2.72884 27.8954 3.0394 27.8339 3.19302 27.6044C3.34665 27.375 3.28516 27.0644 3.0557 26.9108L2.49938 27.7417ZM4.31639 27.4334C4.04549 27.3798 3.78245 27.5559 3.72886 27.8268C3.67527 28.0977 3.85143 28.3608 4.12232 28.4144L4.31639 27.4334ZM6 28.5C6.27614 28.5 6.5 28.2761 6.5 28C6.5 27.7239 6.27614 27.5 6 27.5V28.5ZM8 27.5C7.72386 27.5 7.5 27.7239 7.5 28C7.5 28.2761 7.72386 28.5 8 28.5V27.5ZM10 28.5C10.2761 28.5 10.5 28.2761 10.5 28C10.5 27.7239 10.2761 27.5 10 27.5V28.5ZM12 27.5C11.7239 27.5 11.5 27.7239 11.5 28C11.5 28.2761 11.7239 28.5 12 28.5V27.5ZM14 28.5C14.2761 28.5 14.5 28.2761 14.5 28C14.5 27.7239 14.2761 27.5 14 27.5V28.5ZM16 27.5C15.7239 27.5 15.5 27.7239 15.5 28C15.5 28.2761 15.7239 28.5 16 28.5V27.5ZM18 28.5C18.2761 28.5 18.5 28.2761 18.5 28C18.5 27.7239 18.2761 27.5 18 27.5V28.5ZM20 27.5C19.7239 27.5 19.5 27.7239 19.5 28C19.5 28.2761 19.7239 28.5 20 28.5V27.5ZM22 28.5C22.2761 28.5 22.5 28.2761 22.5 28C22.5 27.7239 22.2761 27.5 22 27.5V28.5ZM24 27.5C23.7239 27.5 23.5 27.7239 23.5 28C23.5 28.2761 23.7239 28.5 24 28.5V27.5ZM0.5 1V1.95833H1.5V1H0.5ZM0.5 3.875V5.79167H1.5V3.875H0.5ZM0.5 7.70833V9.625H1.5V7.70833H0.5ZM0.5 11.5417V13.4583H1.5V11.5417H0.5ZM0.5 15.375V17.2917H1.5V15.375H0.5ZM0.5 19.2083V21.125H1.5V19.2083H0.5ZM0.5 23.0417V24H1.5V23.0417H0.5ZM0.5 24C0.5 24.2999 0.529406 24.5934 0.585642 24.8777L1.56663 24.6836C1.52297 24.4629 1.5 24.2344 1.5 24H0.5ZM1.25825 26.5006C1.58665 26.9911 2.00886 27.4134 2.49938 27.7417L3.0557 26.9108C2.6738 26.6551 2.3449 26.3262 2.08922 25.9443L1.25825 26.5006ZM4.12232 28.4144C4.40658 28.4706 4.70011 28.5 5 28.5V27.5C4.76561 27.5 4.53708 27.477 4.31639 27.4334L4.12232 28.4144ZM5 28.5H6V27.5H5V28.5ZM8 28.5H10V27.5H8V28.5ZM12 28.5H14V27.5H12V28.5ZM16 28.5H18V27.5H16V28.5ZM20 28.5H22V27.5H20V28.5Z"/>
</svg>
