<svg width="21" height="24" viewBox="0 0 21 24" fill="none" xmlns="http://www.w3.org/2000/svg">
    <path d="M7.5 1.5V3H13.5V1.5C13.5 0.671719 14.1703 0 15 0C15.8297 0 16.5 0.671719 16.5 1.5V3H18.75C19.9922 3 21 4.00734 21 5.25V7.5H0V5.25C0 4.00734 1.00734 3 2.25 3H4.5V1.5C4.5 0.671719 5.17031 0 6 0C6.82969 0 7.5 0.671719 7.5 1.5ZM0 9H21V21.75C21 22.9922 19.9922 24 18.75 24H2.25C1.00734 24 0 22.9922 0 21.75V9ZM3.75 12C3.33562 12 3 12.3375 3 12.75V17.25C3 17.6625 3.33562 18 3.75 18H8.25C8.6625 18 9 17.6625 9 17.25V12.75C9 12.3375 8.6625 12 8.25 12H3.75Z"
          fill="white"/>
</svg>
