<svg width="30" height="31" viewBox="0 0 30 31" fill="none" xmlns="http://www.w3.org/2000/svg">
    <g clip-path="url(#clip0_4543_26757)">
        <path d="M27.0611 6.52769C27.3906 6.19829 27.8544 5.84009 28.3278 5.40809L28.7652 5.04149L27.573 3.70349L27.1835 4.06769C25.5359 5.56469 24.5448 6.46949 24.0606 8.32409C23.58 10.1679 23.5608 12.0345 23.6112 13.7793C23.6639 15.5781 23.7317 16.7649 24.2345 18.0885L24.4242 18.5763C24.9065 19.7901 25.6367 21.6237 25.6367 23.9823C25.6367 26.8317 24.4823 28.2771 22.2059 28.2771C20.1347 28.2771 19.0176 26.8947 18.8868 24.1635C18.8274 22.9533 19.167 21.4593 19.524 19.8807C19.8258 18.5481 20.1366 17.1693 20.2896 15.7059C20.4588 14.0925 20.247 12.9393 19.6272 12.2469C18.8316 11.3583 17.607 11.2797 16.5282 11.2797H16.2V2.96309C16.2 2.24309 15.6774 1.67969 14.9616 1.67969H2.57695C1.86235 1.67969 1.19995 2.24309 1.19995 2.96309V29.2797H16.2V13.0797H16.5288C17.2668 13.0797 18.0312 13.1625 18.291 13.4523C18.4302 13.6083 18.6437 14.1135 18.5028 15.4761C18.3605 16.8345 18.0594 18.1779 17.7689 19.4577C17.3843 21.1611 17.0196 22.7811 17.0915 24.2415C17.2686 27.9489 19.1339 30.0795 22.2059 30.0795C25.4801 30.0795 27.4349 27.8007 27.4349 23.9787C27.4349 21.2733 26.5979 19.1655 26.0957 17.9025L25.9146 17.4423C25.5534 16.4889 25.4723 15.6051 25.4225 14.0631C26.0003 14.0499 26.6999 14.0361 27.0143 14.0361C27.7337 14.0361 28.0956 13.6143 28.2498 12.8835C28.3398 12.4575 28.2006 11.8989 28.2006 10.8849V10.6161C28.1999 7.93589 27.7901 7.17029 27.0611 6.52769ZM14.4 11.8797H2.99995V4.07969H14.4V11.8797ZM26.4 10.8873C26.4 11.4111 26.538 11.9121 26.5205 12.2307C26.1617 12.2361 25.7489 12.2457 25.3289 12.2553C25.3445 11.0979 25.4729 9.91949 25.7688 8.78489C25.8492 8.48249 25.8251 8.21609 25.9464 7.96769C26.2661 8.27549 26.4 8.73689 26.4 10.6173V10.8873Z"
              fill="#F44336"/>
    </g>
    <defs>
        <clipPath id="clip0_4543_26757">
            <rect width="30" height="30" fill="white" transform="translate(0 0.479492)"/>
        </clipPath>
    </defs>
</svg>
